<svg width="113" height="108" viewBox="0 0 113 108" fill="none" xmlns="http://www.w3.org/2000/svg">
<path d="M43 22.5L55.5 5H61L72.5 22.5H43Z" fill="#546E7A"/>
<circle cx="45.5" cy="29.5" r="3.5" fill="#2196F3"/>
<circle cx="57.5" cy="29.5" r="3.5" fill="#2196F3"/>
<circle cx="69.5" cy="29.5" r="3.5" fill="#2196F3"/>
<circle cx="45.5" cy="38.5" r="3.5" fill="#2196F3"/>
<circle cx="57.5" cy="38.5" r="3.5" fill="#2196F3"/>
<circle cx="69.5" cy="38.5" r="3.5" fill="#2196F3"/>
<circle cx="45.5" cy="47.5" r="3.5" fill="#2196F3"/>
<circle cx="57.5" cy="47.5" r="3.5" fill="#2196F3"/>
<circle cx="69.5" cy="47.5" r="3.5" fill="#2196F3"/>
<circle cx="45.5" cy="56.5" r="3.5" fill="#2196F3"/>
<circle cx="57.5" cy="56.5" r="3.5" fill="#2196F3"/>
<circle cx="69.5" cy="56.5" r="3.5" fill="#2196F3"/>
<circle cx="45.5" cy="65.5" r="3.5" fill="#2196F3"/>
<circle cx="57.5" cy="65.5" r="3.5" fill="#2196F3"/>
<circle cx="69.5" cy="65.5" r="3.5" fill="#2196F3"/>
<path fill-rule="evenodd" clip-rule="evenodd" d="M0 69C2 81.8333 9.5 107.5 23.5 107.5H54H58.5H89C103 107.5 110.5 81.8333 112.5 69C111.167 69 102.3 70.1 77.5 74.5C74.9237 86.4154 65.4767 90.0558 58.5 90.5873V90.5C57.8225 90.5869 57.0658 90.6426 56.25 90.6559C55.4342 90.6426 54.6775 90.5869 54 90.5V90.5873C47.0233 90.0558 37.5763 86.4154 35 74.5C10.2 70.1 1.33333 69 0 69Z" fill="#BBDEFB"/>
<path fill-rule="evenodd" clip-rule="evenodd" d="M25 0H52.634H62.6001H63.5006C64.8813 0 66.0006 1.11929 66.0006 2.5C66.0006 3.88071 64.8813 5 63.5006 5H62.6001H52.634H25C22.2386 5 20 7.23858 20 10V73H15V10C15 4.47715 19.4772 0 25 0Z" fill="#546E7A"/>
</svg>
