<svg width="79" height="73" viewBox="0 0 79 73" fill="none" xmlns="http://www.w3.org/2000/svg">
<rect x="16.3281" y="6.72363" width="62.4342" height="66.2763" rx="8.64474" fill="#BBDEFB"/>
<path d="M16.3281 53.309C16.3281 48.7999 19.9835 45.1445 24.4926 45.1445C29.0017 45.1445 32.6571 48.7999 32.6571 53.309V72.9998H24.9729C20.1985 72.9998 16.3281 69.1294 16.3281 64.3551V53.309Z" fill="#2196F3"/>
<path d="M16.3281 15.3684C16.3281 10.594 20.1985 6.72363 24.9729 6.72363H70.1176C74.892 6.72363 78.7623 10.594 78.7623 15.3684V24.9736H16.3281V15.3684Z" fill="#2196F3"/>
<path d="M41.3027 44.6643V39.3814L51.3883 36.0195H53.3093V61.9537L47.5462 61.4735V42.7432L41.3027 44.6643Z" fill="#1565C0"/>
<circle cx="36.0192" cy="13.9274" r="5.2829" fill="#1565C0"/>
<circle cx="59.072" cy="13.9274" r="5.2829" fill="#1565C0"/>
<rect x="32.6582" width="6.72368" height="17.2895" rx="3.36184" fill="#B0BEC5"/>
<rect x="55.7109" width="6.72368" height="17.2895" rx="3.36184" fill="#B0BEC5"/>
<path d="M32.6579 73.0003V24.974C23.0526 19.211 13.9276 18.2503 12.4868 18.2503C2.88158 17.4819 0.160088 22.4126 0 24.974V55.7108C0 63.8753 4.32237 63.395 6.24342 63.395C26.9908 61.0898 32.4978 68.838 32.6579 73.0003Z" fill="#90CAF9"/>
</svg>
