<svg width="304" height="47" viewBox="0 0 304 47" fill="none" xmlns="http://www.w3.org/2000/svg">
<path d="M61.6613 46.6209V16.8836H55.0579V46.6209H61.6613ZM78.1043 26.9418C78.1043 24.5803 77.6379 22.6124 76.7049 21.0381C75.8011 19.4346 74.6204 18.2247 73.1627 17.4084C71.7341 16.592 70.189 16.1839 68.5272 16.1839C66.7779 16.1839 65.2619 16.6358 63.9791 17.5395C62.7255 18.4142 61.7634 19.6532 61.0928 21.2567C60.4223 22.8602 60.087 24.7552 60.087 26.9418C60.087 29.0992 60.4223 30.9942 61.0928 32.6269C61.7634 34.2303 62.7255 35.484 63.9791 36.3878C65.2619 37.2624 66.7779 37.6997 68.5272 37.6997C70.189 37.6997 71.7341 37.2915 73.1627 36.4752C74.6204 35.6589 75.8011 34.449 76.7049 32.8455C77.6379 31.242 78.1043 29.2741 78.1043 26.9418ZM71.151 26.9418C71.151 27.9913 70.9324 28.8805 70.4951 29.6094C70.0578 30.3383 69.4747 30.8922 68.7458 31.2712C68.017 31.6502 67.2152 31.8397 66.3406 31.8397C65.5826 31.8397 64.8391 31.6648 64.1103 31.3149C63.4106 30.9359 62.8275 30.382 62.361 29.6531C61.8946 28.9243 61.6613 28.0205 61.6613 26.9418C61.6613 25.8631 61.8946 24.9593 62.361 24.2304C62.8275 23.5016 63.4106 22.9622 64.1103 22.6124C64.8391 22.2334 65.5826 22.0439 66.3406 22.0439C67.2152 22.0439 68.017 22.2334 68.7458 22.6124C69.4747 22.9914 70.0578 23.5453 70.4951 24.2742C70.9324 25.003 71.151 25.8922 71.151 26.9418ZM87.7334 16.8836H81.2175V37H87.7334V16.8836ZM93.5497 23.7057L96.3922 18.0643C96.0424 17.5395 95.5322 17.1314 94.8616 16.8398C94.1911 16.5483 93.4914 16.4025 92.7625 16.4025C91.6547 16.4025 90.5905 16.767 89.5701 17.4958C88.5497 18.2247 87.7188 19.2159 87.0775 20.4695C86.4652 21.7232 86.1591 23.1517 86.1591 24.7552L87.7334 27.073C87.7334 26.1109 87.8646 25.2946 88.127 24.624C88.3894 23.9535 88.7684 23.4433 89.264 23.0934C89.7596 22.7436 90.3282 22.5687 90.9695 22.5687C91.5526 22.5687 92.0337 22.6707 92.4127 22.8748C92.8208 23.0789 93.1998 23.3558 93.5497 23.7057ZM107.915 37.4373C110.48 37.4373 112.652 36.9417 114.431 35.9504C116.238 34.9592 117.667 33.4723 118.716 31.4898L112.813 30.0467C112.317 30.9213 111.647 31.5773 110.801 32.0146C109.985 32.4519 108.993 32.6706 107.827 32.6706C106.807 32.6706 105.947 32.4519 105.247 32.0146C104.547 31.5482 104.023 30.8776 103.673 30.003C103.323 29.1284 103.148 28.0788 103.148 26.8543C103.177 25.5132 103.352 24.4054 103.673 23.5307C104.023 22.627 104.533 21.9564 105.203 21.5191C105.874 21.0818 106.705 20.8631 107.696 20.8631C108.483 20.8631 109.168 21.0381 109.751 21.3879C110.335 21.7378 110.786 22.2334 111.107 22.8748C111.428 23.5162 111.588 24.2742 111.588 25.1488C111.588 25.3529 111.53 25.6153 111.413 25.936C111.326 26.2275 111.209 26.4753 111.063 26.6794L112.638 24.6678H100.218V28.3412H118.585C118.644 28.1371 118.673 27.8893 118.673 27.5978C118.673 27.2771 118.673 26.9564 118.673 26.6357C118.673 24.4783 118.25 22.6415 117.404 21.1255C116.559 19.6095 115.335 18.4579 113.731 17.6707C112.128 16.8544 110.16 16.4463 107.827 16.4463C105.495 16.4463 103.469 16.869 101.749 17.7145C100.058 18.5599 98.7603 19.7698 97.8566 21.3442C96.9528 22.9185 96.5009 24.7844 96.5009 26.9418C96.5009 29.07 96.9673 30.9213 97.9003 32.4957C98.8332 34.07 100.145 35.2945 101.836 36.1691C103.556 37.0146 105.582 37.4373 107.915 37.4373ZM134.951 24.7552V37H141.817V24.0555C141.817 21.6357 141.249 19.7553 140.112 18.4142C138.975 17.0731 137.152 16.4025 134.645 16.4025C133.158 16.4025 131.905 16.7087 130.884 17.3209C129.893 17.9331 129.106 18.7932 128.523 19.901V16.8836H121.876V37H128.523V24.7552C128.523 23.9681 128.669 23.2975 128.96 22.7436C129.252 22.1896 129.66 21.7669 130.185 21.4754C130.709 21.1838 131.322 21.0381 132.021 21.0381C133.071 21.0381 133.814 21.3588 134.252 22.0001C134.718 22.6415 134.951 23.5599 134.951 24.7552ZM144.974 26.9418C144.974 29.0409 145.47 30.8776 146.461 32.4519C147.452 34.0263 148.823 35.2507 150.572 36.1254C152.321 37 154.289 37.4373 156.476 37.4373C158.662 37.4373 160.616 37 162.336 36.1254C164.085 35.2507 165.455 34.0263 166.446 32.4519C167.467 30.8776 167.977 29.0409 167.977 26.9418C167.977 24.8135 167.467 22.9622 166.446 21.3879C165.455 19.8136 164.085 18.5891 162.336 17.7145C160.616 16.8398 158.662 16.4025 156.476 16.4025C154.289 16.4025 152.321 16.8398 150.572 17.7145C148.823 18.5891 147.452 19.8136 146.461 21.3879C145.47 22.9622 144.974 24.8135 144.974 26.9418ZM151.753 26.9418C151.753 25.8922 151.971 24.9885 152.409 24.2304C152.846 23.4724 153.414 22.8893 154.114 22.4812C154.814 22.073 155.601 21.869 156.476 21.869C157.321 21.869 158.094 22.073 158.793 22.4812C159.522 22.8893 160.091 23.4724 160.499 24.2304C160.936 24.9885 161.155 25.8922 161.155 26.9418C161.155 27.9913 160.936 28.8951 160.499 29.6531C160.091 30.382 159.522 30.9505 158.793 31.3587C158.094 31.7668 157.321 31.9709 156.476 31.9709C155.601 31.9709 154.814 31.7668 154.114 31.3587C153.414 30.9505 152.846 30.382 152.409 29.6531C151.971 28.8951 151.753 27.9913 151.753 26.9418ZM168.714 16.8836V22.35H182.183V16.8836H168.714ZM172.256 9.88656V37H178.597V9.88656H172.256ZM183.729 9.31805C183.729 10.3676 184.108 11.2277 184.866 11.8982C185.624 12.5688 186.528 12.904 187.578 12.904C188.656 12.904 189.56 12.5688 190.289 11.8982C191.047 11.2277 191.426 10.3676 191.426 9.31805C191.426 8.2685 191.047 7.42303 190.289 6.78163C189.56 6.11109 188.656 5.77581 187.578 5.77581C186.528 5.77581 185.624 6.11109 184.866 6.78163C184.108 7.42303 183.729 8.2685 183.729 9.31805ZM184.385 16.8836V37H190.77V16.8836H184.385ZM196.427 29.6969L193.672 34.07C194.576 34.7697 195.553 35.4111 196.602 35.9942C197.652 36.5481 198.789 36.9854 200.013 37.3061C201.267 37.656 202.623 37.8309 204.08 37.8309C206.471 37.8309 208.322 37.2915 209.634 36.2128C210.975 35.105 211.646 33.4723 211.646 31.3149C211.646 30.0613 211.369 29.0555 210.815 28.2975C210.29 27.5394 209.576 26.9126 208.672 26.417C207.798 25.9214 206.835 25.4841 205.786 25.1051C204.795 24.7261 203.949 24.4199 203.249 24.1867C202.579 23.9243 202.054 23.6474 201.675 23.3558C201.325 23.0643 201.15 22.6998 201.15 22.2625C201.15 21.8835 201.296 21.5774 201.588 21.3442C201.908 21.1109 202.375 20.9943 202.987 20.9943C203.891 20.9943 204.882 21.2567 205.961 21.7815C207.039 22.2771 208.002 22.9185 208.847 23.7057L211.209 19.42C210.421 18.8369 209.576 18.3267 208.672 17.8894C207.798 17.4521 206.85 17.1022 205.83 16.8398C204.838 16.5775 203.76 16.4463 202.593 16.4463C201.136 16.4463 199.838 16.6649 198.701 17.1022C197.594 17.5395 196.704 18.1809 196.034 19.0264C195.392 19.8719 195.072 20.9069 195.072 22.1313C195.072 23.4141 195.349 24.4637 195.903 25.28C196.457 26.0963 197.156 26.7523 198.002 27.2479C198.876 27.7144 199.795 28.1225 200.757 28.4724C201.835 28.7931 202.681 29.0992 203.293 29.3907C203.935 29.6823 204.386 29.9884 204.649 30.3091C204.911 30.6006 205.042 30.9651 205.042 31.4024C205.042 31.8689 204.882 32.2479 204.561 32.5394C204.241 32.8309 203.745 32.9767 203.075 32.9767C202.608 32.9767 202.054 32.8893 201.413 32.7143C200.771 32.5102 200.028 32.175 199.182 31.7085C198.366 31.2129 197.448 30.5423 196.427 29.6969ZM215.497 29.6969L212.742 34.07C213.645 34.7697 214.622 35.4111 215.672 35.9942C216.721 36.5481 217.858 36.9854 219.083 37.3061C220.336 37.656 221.692 37.8309 223.15 37.8309C225.54 37.8309 227.392 37.2915 228.703 36.2128C230.045 35.105 230.715 33.4723 230.715 31.3149C230.715 30.0613 230.438 29.0555 229.884 28.2975C229.359 27.5394 228.645 26.9126 227.741 26.417C226.867 25.9214 225.905 25.4841 224.855 25.1051C223.864 24.7261 223.018 24.4199 222.319 24.1867C221.648 23.9243 221.123 23.6474 220.744 23.3558C220.395 23.0643 220.22 22.6998 220.22 22.2625C220.22 21.8835 220.365 21.5774 220.657 21.3442C220.978 21.1109 221.444 20.9943 222.056 20.9943C222.96 20.9943 223.951 21.2567 225.03 21.7815C226.109 22.2771 227.071 22.9185 227.916 23.7057L230.278 19.42C229.491 18.8369 228.645 18.3267 227.741 17.8894C226.867 17.4521 225.919 17.1022 224.899 16.8398C223.908 16.5775 222.829 16.4463 221.663 16.4463C220.205 16.4463 218.908 16.6649 217.771 17.1022C216.663 17.5395 215.774 18.1809 215.103 19.0264C214.462 19.8719 214.141 20.9069 214.141 22.1313C214.141 23.4141 214.418 24.4637 214.972 25.28C215.526 26.0963 216.225 26.7523 217.071 27.2479C217.946 27.7144 218.864 28.1225 219.826 28.4724C220.905 28.7931 221.75 29.0992 222.362 29.3907C223.004 29.6823 223.456 29.9884 223.718 30.3091C223.981 30.6006 224.112 30.9651 224.112 31.4024C224.112 31.8689 223.951 32.2479 223.631 32.5394C223.31 32.8309 222.814 32.9767 222.144 32.9767C221.677 32.9767 221.123 32.8893 220.482 32.7143C219.841 32.5102 219.097 32.175 218.252 31.7085C217.435 31.2129 216.517 30.5423 215.497 29.6969ZM233.079 9.31805C233.079 10.3676 233.458 11.2277 234.216 11.8982C234.974 12.5688 235.878 12.904 236.927 12.904C238.006 12.904 238.91 12.5688 239.639 11.8982C240.397 11.2277 240.776 10.3676 240.776 9.31805C240.776 8.2685 240.397 7.42303 239.639 6.78163C238.91 6.11109 238.006 5.77581 236.927 5.77581C235.878 5.77581 234.974 6.11109 234.216 6.78163C233.458 7.42303 233.079 8.2685 233.079 9.31805ZM233.735 16.8836V37H240.12V16.8836H233.735ZM275.383 24.0555C275.383 22.4229 275.179 21.0381 274.771 19.901C274.363 18.764 273.692 17.904 272.759 17.3209C271.856 16.7087 270.617 16.4025 269.042 16.4025C267.672 16.4025 266.448 16.6941 265.369 17.2772C264.29 17.8602 263.386 18.6766 262.657 19.7261C262.249 18.6474 261.579 17.8311 260.646 17.2772C259.713 16.6941 258.459 16.4025 256.885 16.4025C255.515 16.4025 254.334 16.7087 253.343 17.3209C252.381 17.9331 251.623 18.7786 251.069 19.8573V16.8836H244.684V37H251.069V24.7552C251.069 23.9389 251.185 23.2538 251.419 22.6998C251.681 22.1459 252.031 21.7378 252.468 21.4754C252.935 21.1838 253.459 21.0381 254.042 21.0381C254.946 21.0381 255.588 21.3588 255.967 22.0001C256.375 22.6124 256.579 23.5307 256.579 24.7552V37H263.226V24.7552C263.226 23.9389 263.343 23.2538 263.576 22.6998C263.838 22.1459 264.188 21.7378 264.625 21.4754C265.092 21.1838 265.617 21.0381 266.2 21.0381C267.103 21.0381 267.745 21.3588 268.124 22.0001C268.532 22.6124 268.736 23.5307 268.736 24.7552V37H275.383V24.0555ZM278.502 26.9418C278.502 29.0409 278.998 30.8776 279.989 32.4519C280.98 34.0263 282.35 35.2507 284.099 36.1254C285.849 37 287.817 37.4373 290.003 37.4373C292.19 37.4373 294.143 37 295.863 36.1254C297.612 35.2507 298.983 34.0263 299.974 32.4519C300.994 30.8776 301.505 29.0409 301.505 26.9418C301.505 24.8135 300.994 22.9622 299.974 21.3879C298.983 19.8136 297.612 18.5891 295.863 17.7145C294.143 16.8398 292.19 16.4025 290.003 16.4025C287.817 16.4025 285.849 16.8398 284.099 17.7145C282.35 18.5891 280.98 19.8136 279.989 21.3879C278.998 22.9622 278.502 24.8135 278.502 26.9418ZM285.28 26.9418C285.28 25.8922 285.499 24.9885 285.936 24.2304C286.374 23.4724 286.942 22.8893 287.642 22.4812C288.341 22.073 289.129 21.869 290.003 21.869C290.849 21.869 291.621 22.073 292.321 22.4812C293.05 22.8893 293.618 23.4724 294.027 24.2304C294.464 24.9885 294.682 25.8922 294.682 26.9418C294.682 27.9913 294.464 28.8951 294.027 29.6531C293.618 30.382 293.05 30.9505 292.321 31.3587C291.621 31.7668 290.849 31.9709 290.003 31.9709C289.129 31.9709 288.341 31.7668 287.642 31.3587C286.942 30.9505 286.374 30.382 285.936 29.6531C285.499 28.8951 285.28 27.9913 285.28 26.9418Z" fill="white"/>
<path d="M35.177 38.0458C35.177 38.0458 37.0742 38.6183 39.1339 35.5288C41.1935 32.4393 42.9988 28.2541 42.9988 28.2541L43.2024 27.7549L43.224 34.9513L43.075 42.4821C42.9651 42.6977 42.7859 42.877 42.571 42.9866C42.2402 43.1553 42.1083 43.1567 25.4621 43.1567C8.81599 43.1567 8.68412 43.1553 8.35331 42.9866C8.13865 42.8771 7.95922 42.6977 7.84974 42.4831C7.69329 42.1763 7.67969 41.9875 7.67969 40.1202V38.0905L21.4284 38.0682L35.177 38.0458Z" fill="#26C6DA"/>
<circle cx="187.5" cy="9.5" r="4.5" fill="#26C6DA"/>
<circle cx="237.5" cy="9.5" r="4.5" fill="#26C6DA"/>
<path d="M0.876275 32.6539C4.60689 28.8378 7.18515 22.4564 7.51899 16.2124L7.57568 15.1519H25.2547H42.9338L42.8804 16.2647C42.7519 18.9395 42.1436 22.1459 41.2646 24.7818C40.0419 28.4481 37.9695 31.9894 35.6538 34.3698C35.3245 34.7082 34.9149 35.0578 34.7436 35.1467C34.4392 35.3046 34.0487 35.3083 17.6933 35.3083C1.55488 35.3083 0.944135 35.3027 0.661945 35.1526C0.140314 34.875 -0.138181 34.1482 0.0686746 33.6042C0.111171 33.4924 0.474575 33.0648 0.876275 32.6539Z" fill="white"/>
<path fill-rule="evenodd" clip-rule="evenodd" d="M15.8839 5.13236C15.3721 5.38457 15.2393 5.68288 15.207 6.6514L15.1784 7.51225H11.9023C8.28128 7.51225 8.24248 7.51737 7.8643 8.04748C7.68423 8.29994 7.676 8.39216 7.65198 10.4307L7.62695 12.5514H25.3139H43.0008L42.9758 10.4307C42.9387 7.29481 43.256 7.51225 38.7178 7.51225H35.4341V6.74807C35.4341 5.52071 35.0767 5.03469 34.1743 5.03469C33.2719 5.03469 32.9145 5.52071 32.9145 6.74807V7.51225H29.7231H26.5317V6.74807C26.5317 5.52071 26.1743 5.03469 25.2719 5.03469C24.3695 5.03469 24.0121 5.52071 24.0121 6.74807V7.51225H20.8627H17.7132L17.7119 6.73538C17.7107 6.08668 17.6795 5.90452 17.5229 5.63132C17.1904 5.0514 16.4843 4.8364 15.8839 5.13236Z" fill="white"/>
<path d="M13.5387 31.2814C14.4038 30.24 15.0535 28.9386 15.6853 27.479L20.5463 27.479C19.9613 28.9943 19.2283 30.4142 18.422 31.5881H13.2949C13.3685 31.4911 13.4522 31.3855 13.5387 31.2814Z" fill="#26C6DA"/>
<path d="M5.56212 31.2814C6.42729 30.24 7.07698 28.9386 7.70871 27.479L12.5697 27.479C11.9848 28.9943 11.2517 30.4142 10.4455 31.5881H5.31836C5.39194 31.4911 5.47561 31.3855 5.56212 31.2814Z" fill="#1E88E5"/>
<path d="M21.5152 31.2814C22.3804 30.24 23.0301 28.9386 23.6618 27.479L28.5228 27.479C27.9379 28.9943 27.2049 30.4142 26.3986 31.5881H21.2715C21.3451 31.4911 21.4287 31.3855 21.5152 31.2814Z" fill="#1E88E5"/>
<path d="M29.4899 31.2814C30.355 30.24 31.0047 28.9386 31.6364 27.479L36.4974 27.479C35.9125 28.9943 35.1795 30.4142 34.3732 31.5881H29.2461C29.3197 31.4911 29.4033 31.3855 29.4899 31.2814Z" fill="#1E88E5"/>
<line x1="10.3945" y1="19.019" x2="39.3998" y2="19.019" stroke="#1E88E5" stroke-width="0.483422"/>
<line x1="9.42578" y1="22.4033" x2="38.1894" y2="22.4033" stroke="#1E88E5" stroke-width="0.483422"/>
</svg>
