<svg width="1189" height="192" viewBox="0 0 1189 192" fill="none" xmlns="http://www.w3.org/2000/svg">
<path d="M3.6253 137.409C19.0595 121.621 29.7262 95.2201 31.1074 69.3877L31.3419 65H104.483H177.625L177.404 69.6039C176.872 80.6701 174.355 93.9355 170.719 104.841C165.66 120.009 157.086 134.66 147.506 144.508C146.144 145.908 144.449 147.354 143.74 147.722C142.481 148.375 140.865 148.391 73.2002 148.391C6.43279 148.391 3.90605 148.368 2.73858 147.746C0.580503 146.598 -0.571677 143.591 0.284119 141.341C0.459934 140.878 1.9634 139.109 3.6253 137.409Z" fill="#1E88E5"/>
<path d="M216.921 69.2597V91.7435H272.321V69.2597H216.921ZM231.49 40.4805V152H257.572V40.4805H231.49ZM275.443 110.63C275.443 119.264 277.482 126.818 281.559 133.293C285.636 139.769 291.272 144.805 298.467 148.403C305.661 152 313.756 153.799 322.749 153.799C331.743 153.799 339.777 152 346.852 148.403C354.047 144.805 359.683 139.769 363.76 133.293C367.957 126.818 370.055 119.264 370.055 110.63C370.055 101.876 367.957 94.2617 363.76 87.7863C359.683 81.311 354.047 76.2746 346.852 72.6772C339.777 69.0798 331.743 67.2811 322.749 67.2811C313.756 67.2811 305.661 69.0798 298.467 72.6772C291.272 76.2746 285.636 81.311 281.559 87.7863C277.482 94.2617 275.443 101.876 275.443 110.63ZM303.323 110.63C303.323 106.313 304.223 102.596 306.021 99.4779C307.82 96.3601 310.158 93.9619 313.036 92.2831C315.914 90.6043 319.152 89.7649 322.749 89.7649C326.227 89.7649 329.404 90.6043 332.282 92.2831C335.28 93.9619 337.618 96.3601 339.297 99.4779C341.096 102.596 341.995 106.313 341.995 110.63C341.995 114.947 341.096 118.664 339.297 121.782C337.618 124.78 335.28 127.118 332.282 128.797C329.404 130.476 326.227 131.315 322.749 131.315C319.152 131.315 315.914 130.476 313.036 128.797C310.158 127.118 307.82 124.78 306.021 121.782C304.223 118.664 303.323 114.947 303.323 110.63ZM409.778 191.571V69.2597H382.618V191.571H409.778ZM477.409 110.63C477.409 100.917 475.491 92.8227 471.654 86.3474C467.936 79.7521 463.08 74.7757 457.084 71.4181C451.208 68.0606 444.853 66.3818 438.018 66.3818C430.823 66.3818 424.588 68.2404 419.311 71.9577C414.155 75.5552 410.198 80.6515 407.44 87.2467C404.682 93.842 403.303 101.636 403.303 110.63C403.303 119.503 404.682 127.298 407.44 134.013C410.198 140.608 414.155 145.764 419.311 149.482C424.588 153.079 430.823 154.878 438.018 154.878C444.853 154.878 451.208 153.199 457.084 149.842C463.08 146.484 467.936 141.508 471.654 134.912C475.491 128.317 477.409 120.223 477.409 110.63ZM448.81 110.63C448.81 114.947 447.911 118.604 446.112 121.602C444.313 124.6 441.915 126.878 438.917 128.437C435.919 129.996 432.622 130.775 429.024 130.775C425.907 130.775 422.849 130.056 419.851 128.617C416.973 127.058 414.575 124.78 412.656 121.782C410.738 118.784 409.778 115.067 409.778 110.63C409.778 106.193 410.738 102.476 412.656 99.4779C414.575 96.4801 416.973 94.2617 419.851 92.8227C422.849 91.2638 425.907 90.4844 429.024 90.4844C432.622 90.4844 435.919 91.2638 438.917 92.8227C441.915 94.3816 444.313 96.6599 446.112 99.6578C447.911 102.656 448.81 106.313 448.81 110.63Z" fill="#26C6DA"/>
<path d="M496.509 126.638L485.178 133.653C486.736 136.891 489.015 140.069 492.013 143.186C495.13 146.304 498.908 148.882 503.344 150.921C507.781 152.839 512.758 153.799 518.274 153.799C526.788 153.799 533.623 151.4 538.779 146.604C544.055 141.807 546.693 135.812 546.693 128.617C546.693 123.7 545.494 119.683 543.096 116.566C540.817 113.448 537.7 110.81 533.743 108.651C529.785 106.373 525.409 104.274 520.612 102.356C517.734 101.157 514.976 99.8976 512.338 98.5785C509.7 97.2595 507.541 95.7606 505.863 94.0818C504.184 92.403 503.344 90.4844 503.344 88.3259C503.344 85.5679 504.424 83.5294 506.582 82.2104C508.741 80.8913 511.319 80.2318 514.317 80.2318C518.633 80.2318 522.471 81.251 525.828 83.2896C529.306 85.3281 532.184 87.9062 534.462 91.024L545.974 83.6493C544.295 80.5316 541.957 77.7736 538.959 75.3753C535.961 72.977 532.483 71.0584 528.526 69.6194C524.689 68.1805 520.552 67.461 516.115 67.461C511.678 67.461 507.362 68.2404 503.165 69.7993C499.088 71.3582 495.73 73.7564 493.092 76.9941C490.574 80.2318 489.315 84.3088 489.315 89.2253C489.315 94.0218 490.514 98.0389 492.912 101.277C495.43 104.394 498.488 106.972 502.085 109.011C505.803 110.93 509.46 112.608 513.057 114.047C516.295 115.247 519.353 116.566 522.231 118.005C525.109 119.324 527.447 121.002 529.246 123.041C531.164 124.96 532.124 127.358 532.124 130.236C532.124 133.473 530.925 136.052 528.526 137.97C526.248 139.769 523.07 140.668 518.993 140.668C515.636 140.668 512.518 140.069 509.64 138.869C506.882 137.55 504.424 135.812 502.265 133.653C500.107 131.495 498.188 129.156 496.509 126.638ZM568.515 110.63C568.515 104.874 569.714 99.7777 572.113 95.3409C574.631 90.7842 577.988 87.2467 582.185 84.7285C586.502 82.2104 591.359 80.9513 596.755 80.9513C601.192 80.9513 605.329 81.6707 609.166 83.1097C613.123 84.4288 616.54 86.2275 619.418 88.5058C622.296 90.7842 624.335 93.3023 625.534 96.0604V78.0733C622.656 74.7158 618.519 72.1376 613.123 70.3389C607.847 68.4203 602.391 67.461 596.755 67.461C588.721 67.461 581.466 69.3196 574.99 73.037C568.515 76.7543 563.359 81.8506 559.522 88.3259C555.804 94.8013 553.946 102.236 553.946 110.63C553.946 118.904 555.804 126.339 559.522 132.934C563.359 139.409 568.515 144.505 574.99 148.223C581.466 151.94 588.721 153.799 596.755 153.799C602.391 153.799 607.847 152.899 613.123 151.101C618.519 149.182 622.656 146.544 625.534 143.186V125.199C624.335 127.837 622.296 130.356 619.418 132.754C616.54 135.032 613.123 136.891 609.166 138.33C605.329 139.649 601.192 140.308 596.755 140.308C591.359 140.308 586.502 139.049 582.185 136.531C577.988 133.893 574.631 130.356 572.113 125.919C569.714 121.482 568.515 116.386 568.515 110.63ZM658.727 11.7012H644.337V152H658.727V11.7012ZM697.399 101.636V152H711.789V99.8376C711.789 92.6428 710.59 86.6471 708.191 81.8506C705.913 77.0541 702.615 73.4567 698.299 71.0584C694.102 68.6601 689.125 67.461 683.369 67.461C677.613 67.461 672.517 68.9599 668.08 71.9577C663.763 74.9556 660.346 79.0326 657.828 84.1889C655.31 89.2253 654.05 95.0411 654.05 101.636H658.727C658.727 97.6792 659.566 94.1417 661.245 91.024C663.044 87.9062 665.502 85.448 668.62 83.6493C671.858 81.8506 675.575 80.9513 679.772 80.9513C685.648 80.9513 690.025 82.69 692.902 86.1675C695.9 89.645 697.399 94.8013 697.399 101.636ZM767.259 153.799C776.133 153.799 783.807 152.06 790.282 148.582C796.878 144.985 802.334 139.709 806.651 132.754L794.959 125.379C791.961 130.416 788.304 134.193 783.987 136.711C779.67 139.109 774.694 140.308 769.058 140.308C763.422 140.308 758.625 139.109 754.668 136.711C750.711 134.313 747.713 130.835 745.675 126.279C743.636 121.722 742.617 116.206 742.617 109.73C742.737 103.375 743.816 98.0389 745.855 93.722C748.013 89.2852 751.011 85.9277 754.848 83.6493C758.805 81.251 763.542 80.0519 769.058 80.0519C773.734 80.0519 777.811 81.0712 781.289 83.1097C784.766 85.1482 787.465 87.9662 789.383 91.5636C791.422 95.161 792.441 99.4179 792.441 104.334C792.441 105.174 792.261 106.253 791.901 107.572C791.542 108.771 791.182 109.671 790.822 110.27L796.578 101.996H737.221V114.227H807.91C807.91 113.987 807.91 113.448 807.91 112.608C808.03 111.649 808.09 110.75 808.09 109.91C808.09 101.157 806.531 93.6021 803.413 87.2467C800.295 80.8913 795.799 76.0348 789.923 72.6772C784.167 69.1997 777.212 67.461 769.058 67.461C760.904 67.461 753.709 69.2597 747.473 72.8571C741.358 76.4545 736.561 81.4909 733.084 87.9662C729.726 94.4415 728.047 101.996 728.047 110.63C728.047 119.144 729.666 126.638 732.904 133.114C736.261 139.589 740.878 144.685 746.754 148.403C752.75 152 759.585 153.799 767.259 153.799ZM886.27 11.7012V152H900.66V11.7012H886.27ZM817.02 110.63C817.02 119.503 818.879 127.178 822.596 133.653C826.313 140.129 831.29 145.105 837.525 148.582C843.761 152.06 850.596 153.799 858.03 153.799C864.985 153.799 871.041 152.06 876.197 148.582C881.353 145.105 885.371 140.129 888.248 133.653C891.246 127.178 892.745 119.503 892.745 110.63C892.745 101.636 891.246 93.9619 888.248 87.6065C885.371 81.1311 881.353 76.1547 876.197 72.6772C871.041 69.1997 864.985 67.461 858.03 67.461C850.596 67.461 843.761 69.1997 837.525 72.6772C831.29 76.1547 826.313 81.1311 822.596 87.6065C818.879 93.9619 817.02 101.636 817.02 110.63ZM831.589 110.63C831.589 104.274 832.848 98.8783 835.367 94.4415C838.005 90.0047 841.482 86.6471 845.799 84.3688C850.116 82.0904 854.793 80.9513 859.829 80.9513C864.026 80.9513 868.163 82.0904 872.24 84.3688C876.317 86.6471 879.675 90.0047 882.313 94.4415C884.951 98.8783 886.27 104.274 886.27 110.63C886.27 116.985 884.951 122.381 882.313 126.818C879.675 131.255 876.317 134.613 872.24 136.891C868.163 139.169 864.026 140.308 859.829 140.308C854.793 140.308 850.116 139.169 845.799 136.891C841.482 134.613 838.005 131.255 835.367 126.818C832.848 122.381 831.589 116.985 831.589 110.63ZM937.589 119.623V69.2597H923.2V121.422C923.2 131.255 925.778 139.109 930.934 144.985C936.09 150.861 942.985 153.799 951.619 153.799C957.135 153.799 961.932 152.6 966.009 150.201C970.086 147.683 973.503 143.966 976.261 139.049V152H990.651V69.2597H976.261V119.623C976.261 123.7 975.362 127.298 973.563 130.416C971.884 133.533 969.426 135.992 966.189 137.79C963.071 139.469 959.413 140.308 955.216 140.308C949.461 140.308 945.084 138.51 942.086 134.912C939.088 131.315 937.589 126.219 937.589 119.623ZM1014.1 11.7012V152H1028.49V11.7012H1014.1ZM1083.98 153.799C1092.85 153.799 1100.53 152.06 1107 148.582C1113.6 144.985 1119.05 139.709 1123.37 132.754L1111.68 125.379C1108.68 130.416 1105.02 134.193 1100.71 136.711C1096.39 139.109 1091.41 140.308 1085.78 140.308C1080.14 140.308 1075.34 139.109 1071.39 136.711C1067.43 134.313 1064.43 130.835 1062.39 126.279C1060.36 121.722 1059.34 116.206 1059.34 109.73C1059.46 103.375 1060.54 98.0389 1062.57 93.722C1064.73 89.2852 1067.73 85.9277 1071.57 83.6493C1075.52 81.251 1080.26 80.0519 1085.78 80.0519C1090.45 80.0519 1094.53 81.0712 1098.01 83.1097C1101.49 85.1482 1104.18 87.9662 1106.1 91.5636C1108.14 95.161 1109.16 99.4179 1109.16 104.334C1109.16 105.174 1108.98 106.253 1108.62 107.572C1108.26 108.771 1107.9 109.671 1107.54 110.27L1113.3 101.996H1053.94V114.227H1124.63C1124.63 113.987 1124.63 113.448 1124.63 112.608C1124.75 111.649 1124.81 110.75 1124.81 109.91C1124.81 101.157 1123.25 93.6021 1120.13 87.2467C1117.01 80.8913 1112.52 76.0348 1106.64 72.6772C1100.89 69.1997 1093.93 67.461 1085.78 67.461C1077.62 67.461 1070.43 69.2597 1064.19 72.8571C1058.08 76.4545 1053.28 81.4909 1049.8 87.9662C1046.45 94.4415 1044.77 101.996 1044.77 110.63C1044.77 119.144 1046.39 126.638 1049.62 133.114C1052.98 139.589 1057.6 144.685 1063.47 148.403C1069.47 152 1076.3 153.799 1083.98 153.799ZM1155.32 69.2597H1140.93V152H1155.32V69.2597ZM1180.33 85.0883L1188.24 73.2168C1186.08 70.9385 1183.68 69.4396 1181.04 68.7201C1178.53 67.8807 1175.77 67.461 1172.77 67.461C1168.93 67.461 1165.16 68.9599 1161.44 71.9577C1157.72 74.9556 1154.66 79.0326 1152.27 84.1889C1149.99 89.2253 1148.85 95.0411 1148.85 101.636H1155.32C1155.32 97.6792 1155.68 94.1417 1156.4 91.024C1157.24 87.9062 1158.68 85.448 1160.72 83.6493C1162.76 81.8506 1165.58 80.9513 1169.17 80.9513C1171.57 80.9513 1173.55 81.311 1175.11 82.0305C1176.67 82.63 1178.41 83.6493 1180.33 85.0883Z" fill="#1E88E5"/>
<path fill-rule="evenodd" clip-rule="evenodd" d="M65.7111 23.5476C63.594 24.591 63.0443 25.8252 62.9109 29.8321L62.7924 33.3936H49.2386C34.2579 33.3936 34.0973 33.4148 32.5327 35.608C31.7878 36.6524 31.7537 37.0339 31.6543 45.4679L31.5508 54.2413H104.725H177.899L177.795 45.4679C177.642 32.494 178.954 33.3936 160.179 33.3936H146.594V30.2321C146.594 25.1543 145.115 23.1435 141.382 23.1435C137.648 23.1435 136.17 25.1543 136.17 30.2321V33.3936H122.966H109.763V30.2321C109.763 25.1543 108.284 23.1435 104.551 23.1435C100.817 23.1435 99.339 25.1543 99.339 30.2321V33.3936H86.3092H73.2794L73.2739 30.1796C73.269 27.4958 73.1401 26.7422 72.4921 25.6119C71.1165 23.2126 68.1951 22.3231 65.7111 23.5476Z" fill="#1E88E5"/>
<path d="M144.684 158.306C144.684 158.306 152.488 160.661 160.959 147.953C169.431 135.246 176.856 118.032 176.856 118.032L177.693 115.979L177.782 145.578L177.169 176.553C176.717 177.44 175.98 178.177 175.096 178.628C173.736 179.322 173.193 179.327 104.726 179.327C36.2596 179.327 35.7172 179.322 34.3566 178.628C33.4737 178.178 32.7357 177.44 32.2854 176.557C31.6419 175.295 31.5859 174.519 31.5859 166.838V158.49L88.1352 158.398L144.684 158.306Z" fill="#26C6DA"/>
<path d="M56.0085 131.731C59.5878 127.423 62.2757 122.039 64.8893 116L85 116C82.58 122.269 79.5474 128.143 76.2118 133H55C55.3044 132.599 55.6506 132.162 56.0085 131.731Z" fill="#26C6DA"/>
<path d="M23.0085 131.731C26.5878 127.423 29.2757 122.039 31.8893 116L52 116C49.58 122.269 46.5474 128.143 43.2118 133H22C22.3044 132.599 22.6506 132.162 23.0085 131.731Z" fill="#E5E5E5"/>
<path d="M89.0085 131.731C92.5878 127.423 95.2757 122.039 97.8893 116L118 116C115.58 122.269 112.547 128.143 109.212 133H88C88.3044 132.599 88.6506 132.162 89.0085 131.731Z" fill="#E5E5E5"/>
<path d="M122.008 131.731C125.588 127.423 128.276 122.039 130.889 116L151 116C148.58 122.269 145.547 128.143 142.212 133H121C121.304 132.599 121.651 132.162 122.008 131.731Z" fill="#E5E5E5"/>
<line x1="43" y1="81" x2="163" y2="81" stroke="#E5E5E5" stroke-width="2"/>
<line x1="39" y1="95" x2="158" y2="95" stroke="#E5E5E5" stroke-width="2"/>
</svg>
