<svg width="645" height="331" viewBox="0 0 645 331" fill="none" xmlns="http://www.w3.org/2000/svg">
<path d="M513.587 26.0117H167.967C160.253 26.0117 154 32.2703 154 39.9906V316.479C154 324.199 160.253 330.458 167.967 330.458H513.587C521.301 330.458 527.554 324.199 527.554 316.479V39.9906C527.554 32.2703 521.301 26.0117 513.587 26.0117Z" fill="white"/>
<path d="M419.381 64.7422V330.471H513.599C521.316 330.471 527.567 324.214 527.567 316.492V64.7422H419.394H419.381Z" fill="#D4F4F8"/>
<path d="M438.993 105.518H437.812L441.23 96.2085H442.393L445.812 105.518H444.63L441.848 97.6812H441.775L438.993 105.518ZM439.43 101.881H444.193V102.881H439.43V101.881ZM453.371 96.2085H454.498V102.372C454.498 103.008 454.348 103.577 454.048 104.077C453.751 104.574 453.331 104.966 452.789 105.254C452.246 105.539 451.61 105.681 450.88 105.681C450.15 105.681 449.513 105.539 448.971 105.254C448.428 104.966 448.007 104.574 447.707 104.077C447.41 103.577 447.262 103.008 447.262 102.372V96.2085H448.389V102.281C448.389 102.736 448.489 103.14 448.689 103.495C448.889 103.846 449.174 104.124 449.543 104.327C449.916 104.527 450.362 104.627 450.88 104.627C451.398 104.627 451.843 104.527 452.216 104.327C452.589 104.124 452.874 103.846 453.071 103.495C453.271 103.14 453.371 102.736 453.371 102.281V96.2085ZM463.113 99.1176C463.013 98.8115 462.881 98.5373 462.717 98.2949C462.557 98.0494 462.364 97.8403 462.14 97.6676C461.919 97.4949 461.667 97.363 461.386 97.2721C461.104 97.1812 460.795 97.1358 460.458 97.1358C459.907 97.1358 459.405 97.2782 458.954 97.563C458.502 97.8479 458.143 98.2676 457.876 98.8221C457.61 99.3767 457.476 100.057 457.476 100.863C457.476 101.669 457.611 102.349 457.881 102.904C458.151 103.458 458.516 103.878 458.976 104.163C459.437 104.448 459.955 104.59 460.531 104.59C461.064 104.59 461.534 104.477 461.94 104.249C462.349 104.019 462.667 103.695 462.895 103.277C463.125 102.855 463.24 102.36 463.24 101.79L463.586 101.863H460.786V100.863H464.331V101.863C464.331 102.63 464.167 103.296 463.84 103.863C463.516 104.43 463.067 104.869 462.495 105.181C461.925 105.49 461.27 105.645 460.531 105.645C459.707 105.645 458.982 105.451 458.358 105.063C457.737 104.675 457.252 104.124 456.904 103.408C456.558 102.693 456.386 101.845 456.386 100.863C456.386 100.127 456.484 99.4645 456.681 98.8767C456.881 98.2858 457.163 97.7827 457.526 97.3676C457.89 96.9524 458.32 96.6342 458.817 96.413C459.314 96.1918 459.861 96.0812 460.458 96.0812C460.949 96.0812 461.407 96.1555 461.831 96.3039C462.258 96.4494 462.639 96.657 462.972 96.9267C463.308 97.1933 463.589 97.513 463.813 97.8858C464.037 98.2555 464.192 98.6661 464.276 99.1176H463.113ZM472.371 96.2085H473.498V102.372C473.498 103.008 473.348 103.577 473.048 104.077C472.751 104.574 472.331 104.966 471.789 105.254C471.246 105.539 470.61 105.681 469.88 105.681C469.15 105.681 468.513 105.539 467.971 105.254C467.428 104.966 467.007 104.574 466.707 104.077C466.41 103.577 466.262 103.008 466.262 102.372V96.2085H467.389V102.281C467.389 102.736 467.489 103.14 467.689 103.495C467.889 103.846 468.174 104.124 468.543 104.327C468.916 104.527 469.362 104.627 469.88 104.627C470.398 104.627 470.843 104.527 471.216 104.327C471.589 104.124 471.874 103.846 472.071 103.495C472.271 103.14 472.371 102.736 472.371 102.281V96.2085ZM480.84 98.5358C480.786 98.0752 480.564 97.7176 480.176 97.463C479.789 97.2085 479.313 97.0812 478.749 97.0812C478.337 97.0812 477.976 97.1479 477.667 97.2812C477.361 97.4145 477.122 97.5979 476.949 97.8312C476.779 98.0645 476.695 98.3297 476.695 98.6267C476.695 98.8752 476.754 99.0888 476.872 99.2676C476.993 99.4433 477.148 99.5903 477.336 99.7085C477.523 99.8236 477.72 99.9191 477.926 99.9949C478.132 100.068 478.322 100.127 478.495 100.172L479.44 100.427C479.682 100.49 479.952 100.578 480.249 100.69C480.549 100.802 480.836 100.955 481.108 101.149C481.384 101.34 481.611 101.586 481.79 101.886C481.969 102.186 482.058 102.554 482.058 102.99C482.058 103.493 481.926 103.948 481.663 104.354C481.402 104.76 481.02 105.083 480.517 105.322C480.017 105.562 479.41 105.681 478.695 105.681C478.028 105.681 477.451 105.574 476.963 105.358C476.478 105.143 476.096 104.843 475.817 104.458C475.542 104.074 475.386 103.627 475.349 103.118H476.513C476.543 103.469 476.661 103.76 476.867 103.99C477.076 104.218 477.34 104.387 477.658 104.499C477.979 104.608 478.325 104.663 478.695 104.663C479.125 104.663 479.511 104.593 479.854 104.454C480.196 104.312 480.467 104.115 480.667 103.863C480.867 103.608 480.967 103.312 480.967 102.972C480.967 102.663 480.881 102.412 480.708 102.218C480.536 102.024 480.308 101.866 480.026 101.745C479.745 101.624 479.44 101.518 479.113 101.427L477.967 101.099C477.24 100.89 476.664 100.592 476.24 100.204C475.816 99.8161 475.604 99.3085 475.604 98.6812C475.604 98.16 475.745 97.7055 476.026 97.3176C476.311 96.9267 476.693 96.6236 477.172 96.4085C477.654 96.1903 478.192 96.0812 478.786 96.0812C479.386 96.0812 479.919 96.1888 480.386 96.4039C480.852 96.6161 481.222 96.907 481.495 97.2767C481.77 97.6464 481.916 98.0661 481.931 98.5358H480.84ZM483.403 97.2085V96.2085H490.384V97.2085H487.457V105.518H486.33V97.2085H483.403Z" fill="#37474F"/>
<path d="M438.821 150.043C438.821 152.509 436.824 154.508 434.36 154.508C431.896 154.508 429.898 152.509 429.898 150.043C429.898 147.577 431.896 145.578 434.36 145.578C436.824 145.578 438.821 147.577 438.821 150.043Z" stroke="#37474F" stroke-width="1.07" stroke-miterlimit="10"/>
<path d="M445.318 150.043H512.315" stroke="#37474F" stroke-width="1.07" stroke-miterlimit="10"/>
<path d="M434.346 190.643C436.81 190.643 438.807 188.644 438.807 186.178C438.807 183.712 436.81 181.713 434.346 181.713C431.882 181.713 429.885 183.712 429.885 186.178C429.885 188.644 431.882 190.643 434.346 190.643Z" stroke="#37474F" stroke-width="1.07" stroke-miterlimit="10"/>
<path d="M445.318 186.178H512.315" stroke="#37474F" stroke-width="1.07" stroke-miterlimit="10"/>
<path d="M434.346 226.778C436.81 226.778 438.807 224.779 438.807 222.313C438.807 219.847 436.81 217.848 434.346 217.848C431.882 217.848 429.885 219.847 429.885 222.313C429.885 224.779 431.882 226.778 434.346 226.778Z" stroke="#37474F" stroke-width="1.07" stroke-miterlimit="10"/>
<path d="M445.318 222.312H512.315" stroke="#37474F" stroke-width="1.07" stroke-miterlimit="10"/>
<path d="M229.8 133.489C230.799 127.159 226.482 121.217 220.157 120.217C213.833 119.216 207.895 123.537 206.896 129.867C205.896 136.197 210.213 142.139 216.538 143.139C222.863 144.14 228.8 139.819 229.8 133.489Z" stroke="#37474F" stroke-miterlimit="10"/>
<path d="M261.398 139.879C265.925 135.347 265.925 128 261.398 123.469C256.87 118.937 249.529 118.937 245.001 123.469C240.473 128 240.473 135.347 245.001 139.879C249.529 144.41 256.87 144.41 261.398 139.879Z" stroke="#37474F" stroke-miterlimit="10"/>
<path d="M299.328 134.325C300.793 128.087 296.928 121.841 290.695 120.374C284.462 118.907 278.22 122.775 276.755 129.014C275.29 135.252 279.155 141.499 285.388 142.965C291.621 144.432 297.862 140.564 299.328 134.325Z" stroke="#37474F" stroke-miterlimit="10"/>
<path d="M334.344 133.53C335.367 127.204 331.071 121.246 324.75 120.222C318.429 119.199 312.476 123.497 311.453 129.824C310.431 136.15 314.726 142.108 321.047 143.132C327.368 144.155 333.321 139.856 334.344 133.53Z" stroke="#37474F" stroke-miterlimit="10"/>
<path d="M369.195 133.523C370.218 127.197 365.923 121.239 359.602 120.215C353.281 119.192 347.327 123.491 346.305 129.817C345.282 136.143 349.577 142.101 355.898 143.125C362.22 144.148 368.173 139.849 369.195 133.523Z" stroke="#37474F" stroke-miterlimit="10"/>
<path d="M404.061 133.579C405.104 127.256 400.829 121.284 394.511 120.239C388.194 119.195 382.226 123.474 381.183 129.797C380.139 136.119 384.414 142.092 390.732 143.136C397.05 144.181 403.017 139.902 404.061 133.579Z" stroke="#37474F" stroke-miterlimit="10"/>
<path d="M183.491 183.764C189.894 183.764 195.085 178.569 195.085 172.16C195.085 165.752 189.894 160.557 183.491 160.557C177.087 160.557 171.896 165.752 171.896 172.16C171.896 178.569 177.087 183.764 183.491 183.764Z" stroke="#37474F" stroke-miterlimit="10"/>
<path d="M218.352 183.764C224.755 183.764 229.946 178.569 229.946 172.16C229.946 165.752 224.755 160.557 218.352 160.557C211.949 160.557 206.758 165.752 206.758 172.16C206.758 178.569 211.949 183.764 218.352 183.764Z" stroke="#37474F" stroke-miterlimit="10"/>
<path d="M253.198 183.764C259.601 183.764 264.792 178.569 264.792 172.16C264.792 165.752 259.601 160.557 253.198 160.557C246.794 160.557 241.604 165.752 241.604 172.16C241.604 178.569 246.794 183.764 253.198 183.764Z" stroke="#37474F" stroke-miterlimit="10"/>
<path d="M287.594 184.207C293.997 184.207 299.188 179.012 299.188 172.604C299.188 166.195 293.997 161 287.594 161C281.191 161 276 166.195 276 172.604C276 179.012 281.191 184.207 287.594 184.207Z" fill="#F44336"/>
<path d="M322.907 183.764C329.31 183.764 334.501 178.569 334.501 172.16C334.501 165.752 329.31 160.557 322.907 160.557C316.503 160.557 311.312 165.752 311.312 172.16C311.312 178.569 316.503 183.764 322.907 183.764Z" stroke="#37474F" stroke-miterlimit="10"/>
<path d="M357.766 183.764C364.169 183.764 369.36 178.569 369.36 172.16C369.36 165.752 364.169 160.557 357.766 160.557C351.363 160.557 346.172 165.752 346.172 172.16C346.172 178.569 351.363 183.764 357.766 183.764Z" stroke="#37474F" stroke-miterlimit="10"/>
<path d="M392.614 183.764C399.017 183.764 404.208 178.569 404.208 172.16C404.208 165.752 399.017 160.557 392.614 160.557C386.21 160.557 381.02 165.752 381.02 172.16C381.02 178.569 386.21 183.764 392.614 183.764Z" stroke="#37474F" stroke-miterlimit="10"/>
<path d="M183.491 224.247C189.894 224.247 195.085 219.052 195.085 212.644C195.085 206.235 189.894 201.04 183.491 201.04C177.087 201.04 171.896 206.235 171.896 212.644C171.896 219.052 177.087 224.247 183.491 224.247Z" stroke="#37474F" stroke-miterlimit="10"/>
<path d="M218.35 224.247C224.753 224.247 229.944 219.052 229.944 212.644C229.944 206.235 224.753 201.04 218.35 201.04C211.947 201.04 206.756 206.235 206.756 212.644C206.756 219.052 211.947 224.247 218.35 224.247Z" stroke="#37474F" stroke-miterlimit="10"/>
<path d="M253.198 224.247C259.601 224.247 264.792 219.052 264.792 212.644C264.792 206.235 259.601 201.04 253.198 201.04C246.794 201.04 241.604 206.235 241.604 212.644C241.604 219.052 246.794 224.247 253.198 224.247Z" stroke="#37474F" stroke-miterlimit="10"/>
<path d="M288.059 224.247C294.462 224.247 299.653 219.052 299.653 212.644C299.653 206.235 294.462 201.04 288.059 201.04C281.656 201.04 276.465 206.235 276.465 212.644C276.465 219.052 281.656 224.247 288.059 224.247Z" stroke="#37474F" stroke-miterlimit="10"/>
<path d="M322.905 224.247C329.308 224.247 334.499 219.052 334.499 212.644C334.499 206.235 329.308 201.04 322.905 201.04C316.501 201.04 311.311 206.235 311.311 212.644C311.311 219.052 316.501 224.247 322.905 224.247Z" stroke="#37474F" stroke-miterlimit="10"/>
<path d="M357.766 224.247C364.169 224.247 369.36 219.052 369.36 212.644C369.36 206.235 364.169 201.04 357.766 201.04C351.363 201.04 346.172 206.235 346.172 212.644C346.172 219.052 351.363 224.247 357.766 224.247Z" stroke="#37474F" stroke-miterlimit="10"/>
<path d="M392.614 224.247C399.017 224.247 404.208 219.052 404.208 212.644C404.208 206.235 399.017 201.04 392.614 201.04C386.21 201.04 381.02 206.235 381.02 212.644C381.02 219.052 386.21 224.247 392.614 224.247Z" stroke="#37474F" stroke-miterlimit="10"/>
<path d="M187.923 263.832C193.839 261.38 196.648 254.592 194.198 248.671C191.748 242.751 184.965 239.939 179.049 242.392C173.134 244.844 170.324 251.632 172.775 257.552C175.225 263.473 182.007 266.285 187.923 263.832Z" stroke="#37474F" stroke-miterlimit="10"/>
<path d="M222.572 263.916C228.537 261.585 231.484 254.856 229.155 248.887C226.826 242.917 220.102 239.968 214.138 242.299C208.173 244.63 205.226 251.359 207.555 257.328C209.884 263.298 216.608 266.247 222.572 263.916Z" stroke="#37474F" stroke-miterlimit="10"/>
<path d="M264.473 255.768C265.949 249.532 262.095 243.279 255.864 241.801C249.634 240.324 243.386 244.181 241.909 250.417C240.433 256.653 244.287 262.906 250.518 264.383C256.749 265.861 262.997 262.004 264.473 255.768Z" stroke="#37474F" stroke-miterlimit="10"/>
<path d="M296.249 261.314C300.777 256.783 300.777 249.436 296.249 244.904C291.721 240.373 284.38 240.373 279.853 244.904C275.325 249.436 275.325 256.783 279.853 261.314C284.38 265.846 291.721 265.846 296.249 261.314Z" stroke="#37474F" stroke-miterlimit="10"/>
<path d="M327.316 263.846C333.238 261.407 336.062 254.626 333.625 248.7C331.188 242.774 324.413 239.947 318.491 242.386C312.57 244.825 309.745 251.606 312.182 257.532C314.619 263.458 321.395 266.285 327.316 263.846Z" stroke="#37474F" stroke-miterlimit="10"/>
<path d="M362.174 263.846C368.095 261.407 370.92 254.626 368.483 248.7C366.046 242.774 359.27 239.947 353.349 242.386C347.427 244.825 344.603 251.606 347.04 257.532C349.477 263.458 356.252 266.285 362.174 263.846Z" stroke="#37474F" stroke-miterlimit="10"/>
<path d="M397.204 263.751C403.085 261.215 405.798 254.388 403.264 248.503C400.73 242.617 393.909 239.902 388.029 242.438C382.148 244.974 379.435 251.8 381.969 257.686C384.503 263.571 391.324 266.287 397.204 263.751Z" stroke="#37474F" stroke-miterlimit="10"/>
<path d="M183.491 305.2C189.894 305.2 195.085 300.005 195.085 293.597C195.085 287.188 189.894 281.993 183.491 281.993C177.087 281.993 171.896 287.188 171.896 293.597C171.896 300.005 177.087 305.2 183.491 305.2Z" stroke="#37474F" stroke-miterlimit="10"/>
<path d="M218.35 305.2C224.753 305.2 229.944 300.005 229.944 293.597C229.944 287.188 224.753 281.993 218.35 281.993C211.947 281.993 206.756 287.188 206.756 293.597C206.756 300.005 211.947 305.2 218.35 305.2Z" stroke="#37474F" stroke-miterlimit="10"/>
<path d="M253.198 305.2C259.601 305.2 264.792 300.005 264.792 293.597C264.792 287.188 259.601 281.993 253.198 281.993C246.794 281.993 241.604 287.188 241.604 293.597C241.604 300.005 246.794 305.2 253.198 305.2Z" stroke="#37474F" stroke-miterlimit="10"/>
<path d="M178.666 100.034L179.574 98.0089C180.546 98.7227 182.012 99.2159 183.413 99.2159C185.008 99.2159 185.656 98.6838 185.656 97.9699C185.656 95.7894 178.899 97.295 178.899 92.9728C178.899 91 180.495 89.3516 183.789 89.3516C185.254 89.3516 186.746 89.702 187.822 90.3769L186.992 92.4147C185.916 91.8047 184.8 91.5061 183.776 91.5061C182.181 91.5061 181.571 92.1032 181.571 92.8301C181.571 94.9717 188.328 93.492 188.328 97.7622C188.328 99.7092 186.72 101.371 183.4 101.371C181.558 101.371 179.704 100.825 178.666 100.021V100.034Z" fill="#F44336"/>
<path d="M222.371 101.176V94.2062L218.934 99.9561H217.728L214.33 94.362V101.189H211.814V89.5596H214.032L218.377 96.7891L222.656 89.5596H224.861L224.9 101.189H222.371V101.176Z" fill="#37474F"/>
<path d="M251.849 91.7531H248.127V89.5596H258.243V91.7531H254.521V101.189H251.836V91.7531H251.849Z" fill="#37474F"/>
<path d="M297.332 89.5596L293.532 101.189H290.64L288.085 93.3106L285.452 101.189H282.586L278.773 89.5596H281.562L284.181 97.7366L286.918 89.5596H289.408L292.066 97.8015L294.777 89.5596H297.345H297.332Z" fill="#37474F"/>
<path d="M321.558 91.7531H317.836V89.5596H327.952V91.7531H324.23V101.189H321.545V91.7531H321.558Z" fill="#37474F"/>
<path d="M356.054 91.7145V94.7906H361.436V96.9452H356.054V101.176H353.369V89.5469H362.149V91.7015H356.054V91.7145Z" fill="#37474F"/>
<path d="M387.789 100.034L388.697 98.0089C389.67 98.7227 391.135 99.2159 392.536 99.2159C394.131 99.2159 394.779 98.6838 394.779 97.9699C394.779 95.7894 388.022 97.295 388.022 92.9728C388.022 91 389.618 89.3516 392.912 89.3516C394.377 89.3516 395.869 89.702 396.945 90.3769L396.115 92.4147C395.039 91.8047 393.923 91.5061 392.899 91.5061C391.304 91.5061 390.694 92.1032 390.694 92.8301C390.694 94.9717 397.451 93.492 397.451 97.7622C397.451 99.7092 395.843 101.371 392.523 101.371C390.681 101.371 388.827 100.825 387.789 100.021V100.034Z" fill="#37474F"/>
<path d="M167.967 26.0117H513.6C521.303 26.0117 527.567 32.2678 527.567 39.9906V76.2422H154V39.9906C154 32.2808 160.251 26.0117 167.967 26.0117Z" fill="#26C6DA"/>
<path d="M233.642 50.037C220.388 50.037 209.637 39.277 209.637 26.012C209.637 12.747 220.388 2 233.642 2C246.896 2 257.647 12.76 257.647 26.025" stroke="#37474F" stroke-width="2.13" stroke-linecap="round" stroke-linejoin="round"/>
<path d="M269.359 50.037C256.105 50.037 245.354 39.277 245.354 26.012C245.354 12.747 256.092 2 269.359 2C282.626 2 293.364 12.76 293.364 26.025" stroke="#37474F" stroke-width="2.13" stroke-linecap="round" stroke-linejoin="round"/>
<path d="M305.062 50.037C291.808 50.037 281.057 39.277 281.057 26.012C281.057 12.747 291.808 2 305.062 2C318.316 2 329.067 12.76 329.067 26.025" stroke="#37474F" stroke-width="2.13" stroke-linecap="round" stroke-linejoin="round"/>
<path d="M340.777 50.037C327.523 50.037 316.771 39.277 316.771 26.012C316.771 12.747 327.523 2 340.777 2C354.031 2 364.782 12.76 364.782 26.025" stroke="#37474F" stroke-width="2.13" stroke-linecap="round" stroke-linejoin="round"/>
<path d="M376.494 50.037C363.239 50.037 352.488 39.277 352.488 26.012C352.488 12.747 363.239 2 376.494 2C389.748 2 400.499 12.76 400.499 26.025" stroke="#37474F" stroke-width="2.13" stroke-linecap="round" stroke-linejoin="round"/>
<path d="M412.21 50.037C398.956 50.037 388.205 39.277 388.205 26.012C388.205 12.747 398.956 2 412.21 2C425.465 2 436.216 12.76 436.216 26.025" stroke="#37474F" stroke-width="2.13" stroke-linecap="round" stroke-linejoin="round"/>
<path d="M447.925 50.037C434.671 50.037 423.92 39.277 423.92 26.012C423.92 12.747 434.671 2 447.925 2C461.179 2 471.931 12.76 471.931 26.025" stroke="#37474F" stroke-width="2.13" stroke-linecap="round" stroke-linejoin="round"/>
<path d="M592.139 40.4971C562.947 40.4971 539.278 64.1846 539.278 93.4013C539.278 99.2551 540.238 104.862 541.989 110.132L515.52 139.556L551.884 127.68C561.585 139.076 576.006 146.306 592.126 146.306C621.319 146.306 644.987 122.618 644.987 93.4013C644.987 64.1846 621.319 40.4971 592.126 40.4971H592.139Z" fill="#26C6DA"/>
<path d="M586.952 116.985C585.915 116.985 584.864 116.582 584.073 115.791L558.421 90.1172C556.826 88.5208 556.826 85.9508 558.421 84.3544C560.016 82.7579 562.584 82.7579 564.179 84.3544L586.952 107.146L620.101 73.9708C621.696 72.3743 624.264 72.3743 625.859 73.9708C627.454 75.5673 627.454 78.1372 625.859 79.7337L589.831 115.791C589.04 116.582 587.99 116.985 586.952 116.985Z" fill="white"/>
<path d="M130.856 168.935L118.756 147L106.656 168.935C104.218 173.348 99.5877 176.087 94.5558 176.087H13.8248C6.18613 176.087 0 182.278 0 189.923V289.06C0 296.705 6.18613 302.896 13.8248 302.896H223.686C231.325 302.896 237.511 296.705 237.511 289.06V189.923C237.511 182.278 231.325 176.087 223.686 176.087H142.955C137.924 176.087 133.294 173.348 130.856 168.935Z" fill="#D4F4F8"/>
<path d="M70.1738 189.235V291.358" stroke="white" stroke-width="1.22" stroke-miterlimit="10"/>
<path d="M32.9018 210.029C24.9 210.911 18.4156 217.388 17.5078 225.396C16.9242 230.523 18.5583 235.261 21.5671 238.791C26.1191 244.139 29.5299 250.382 32.2534 256.859L34.0301 261.077C34.3543 261.843 35.4437 261.843 35.7679 261.077L38.1153 255.496C40.735 249.253 44.457 243.594 48.6589 238.272C51.0063 235.287 52.4199 231.536 52.4199 227.434C52.4199 217.102 43.4714 208.848 32.9148 210.016L32.9018 210.029ZM34.899 234.248C31.151 234.248 28.1033 231.198 28.1033 227.447C28.1033 223.696 31.151 220.646 34.899 220.646C38.647 220.646 41.6947 223.696 41.6947 227.447C41.6947 231.198 38.647 234.248 34.899 234.248Z" fill="#F44336"/>
<path d="M97.5427 196.119V213.741H95.4088V198.357H95.3056L91.0034 201.213V199.045L95.4088 196.119H97.5427ZM108.358 213.982C107.062 213.982 105.958 213.629 105.046 212.924C104.134 212.212 103.437 211.183 102.955 209.835C102.473 208.481 102.232 206.846 102.232 204.93C102.232 203.026 102.473 201.4 102.955 200.052C103.442 198.698 104.142 197.665 105.054 196.954C105.972 196.237 107.074 195.878 108.358 195.878C109.643 195.878 110.742 196.237 111.654 196.954C112.572 197.665 113.272 198.698 113.753 200.052C114.241 201.4 114.485 203.026 114.485 204.93C114.485 206.846 114.244 208.481 113.762 209.835C113.28 211.183 112.583 212.212 111.671 212.924C110.759 213.629 109.655 213.982 108.358 213.982ZM108.358 212.089C109.643 212.089 110.642 211.47 111.353 210.231C112.064 208.992 112.42 207.225 112.42 204.93C112.42 203.404 112.256 202.105 111.929 201.033C111.608 199.96 111.143 199.142 110.535 198.58C109.933 198.018 109.207 197.737 108.358 197.737C107.085 197.737 106.09 198.365 105.373 199.621C104.656 200.872 104.297 202.642 104.297 204.93C104.297 206.456 104.458 207.753 104.779 208.819C105.1 209.886 105.562 210.698 106.164 211.255C106.772 211.811 107.504 212.089 108.358 212.089ZM119.269 211.487C118.844 211.487 118.48 211.335 118.176 211.031C117.872 210.727 117.72 210.363 117.72 209.938C117.72 209.514 117.872 209.149 118.176 208.845C118.48 208.541 118.844 208.389 119.269 208.389C119.693 208.389 120.058 208.541 120.362 208.845C120.666 209.149 120.818 209.514 120.818 209.938C120.818 210.219 120.746 210.477 120.603 210.712C120.465 210.948 120.278 211.137 120.043 211.28C119.814 211.418 119.556 211.487 119.269 211.487ZM119.269 202.573C118.844 202.573 118.48 202.421 118.176 202.117C117.872 201.813 117.72 201.448 117.72 201.024C117.72 200.599 117.872 200.235 118.176 199.931C118.48 199.627 118.844 199.475 119.269 199.475C119.693 199.475 120.058 199.627 120.362 199.931C120.666 200.235 120.818 200.599 120.818 201.024C120.818 201.305 120.746 201.563 120.603 201.798C120.465 202.033 120.278 202.223 120.043 202.366C119.814 202.504 119.556 202.573 119.269 202.573ZM130.381 213.982C129.246 213.982 128.233 213.787 127.344 213.397C126.461 213.007 125.758 212.465 125.236 211.771C124.72 211.071 124.439 210.259 124.393 209.336H126.561C126.607 209.904 126.802 210.394 127.146 210.807C127.49 211.214 127.941 211.53 128.497 211.754C129.053 211.977 129.67 212.089 130.347 212.089C131.104 212.089 131.775 211.957 132.36 211.693C132.946 211.429 133.404 211.062 133.737 210.592C134.07 210.122 134.236 209.577 134.236 208.957C134.236 208.309 134.076 207.738 133.754 207.245C133.433 206.746 132.963 206.356 132.343 206.075C131.724 205.794 130.967 205.653 130.072 205.653H128.661V203.76H130.072C130.772 203.76 131.385 203.634 131.913 203.382C132.447 203.129 132.862 202.773 133.161 202.315C133.465 201.856 133.617 201.316 133.617 200.697C133.617 200.1 133.485 199.581 133.221 199.14C132.957 198.698 132.584 198.354 132.102 198.107C131.626 197.86 131.064 197.737 130.416 197.737C129.808 197.737 129.234 197.849 128.695 198.073C128.162 198.291 127.726 198.609 127.387 199.028C127.049 199.441 126.865 199.94 126.836 200.525H124.771C124.806 199.601 125.084 198.792 125.606 198.098C126.128 197.399 126.811 196.854 127.654 196.464C128.503 196.074 129.435 195.878 130.45 195.878C131.54 195.878 132.475 196.099 133.255 196.541C134.035 196.977 134.635 197.553 135.054 198.27C135.472 198.988 135.682 199.762 135.682 200.594C135.682 201.586 135.421 202.432 134.899 203.132C134.382 203.832 133.68 204.317 132.791 204.586V204.724C133.904 204.907 134.773 205.381 135.398 206.144C136.023 206.901 136.336 207.839 136.336 208.957C136.336 209.915 136.075 210.776 135.553 211.538C135.036 212.296 134.331 212.892 133.436 213.328C132.541 213.764 131.523 213.982 130.381 213.982ZM145.603 213.982C144.306 213.982 143.202 213.629 142.29 212.924C141.378 212.212 140.681 211.183 140.199 209.835C139.717 208.481 139.476 206.846 139.476 204.93C139.476 203.026 139.717 201.4 140.199 200.052C140.687 198.698 141.386 197.665 142.299 196.954C143.216 196.237 144.318 195.878 145.603 195.878C146.888 195.878 147.986 196.237 148.898 196.954C149.816 197.665 150.516 198.698 150.998 200.052C151.485 201.4 151.729 203.026 151.729 204.93C151.729 206.846 151.488 208.481 151.006 209.835C150.524 211.183 149.827 212.212 148.915 212.924C148.003 213.629 146.899 213.982 145.603 213.982ZM145.603 212.089C146.888 212.089 147.886 211.47 148.597 210.231C149.308 208.992 149.664 207.225 149.664 204.93C149.664 203.404 149.5 202.105 149.173 201.033C148.852 199.96 148.388 199.142 147.78 198.58C147.177 198.018 146.452 197.737 145.603 197.737C144.329 197.737 143.334 198.365 142.617 199.621C141.9 200.872 141.541 202.642 141.541 204.93C141.541 206.456 141.702 207.753 142.023 208.819C142.344 209.886 142.806 210.698 143.409 211.255C144.017 211.811 144.748 212.089 145.603 212.089Z" fill="#37474F"/>
<path d="M205.335 237.882H91.4555C89.8084 237.882 88.4727 236.545 88.4727 234.896C88.4727 233.248 89.8084 231.911 91.4555 231.911H205.335C206.982 231.911 208.318 233.248 208.318 234.896C208.318 236.545 206.982 237.882 205.335 237.882Z" fill="white"/>
<path d="M205.335 253.976H91.4555C89.8084 253.976 88.4727 252.64 88.4727 250.991C88.4727 249.343 89.8084 248.006 91.4555 248.006H205.335C206.982 248.006 208.318 249.343 208.318 250.991C208.318 252.64 206.982 253.976 205.335 253.976Z" fill="white"/>
<path d="M130.751 288.762H91.4555C89.8084 288.762 88.4727 287.425 88.4727 285.776C88.4727 284.128 89.8084 282.791 91.4555 282.791H130.751C132.398 282.791 133.734 284.128 133.734 285.776C133.734 287.425 132.398 288.762 130.751 288.762Z" fill="white"/>
</svg>
