<svg width="80" height="80" viewBox="0 0 80 80" fill="none" xmlns="http://www.w3.org/2000/svg">
<path fill-rule="evenodd" clip-rule="evenodd" d="M29.9116 1.00078C8.51262 7.26278 -4.20538 28.6348 1.27062 49.1348C7.03762 70.7238 28.6676 83.8168 49.4116 78.2758C74.7666 71.5028 86.9436 45.2718 75.4906 22.0968C68.9346 8.83278 56.7546 0.781782 42.1606 0.0647823C37.5456 -0.161218 32.5916 0.216782 29.9116 1.00078ZM33.1526 27.6298C31.3596 28.7228 28.9996 31.0828 27.9066 32.8758C20.6486 44.7788 35.4426 59.0948 47.0136 51.3648C56.3096 45.1548 55.6866 32.4068 45.8406 27.3868C41.3516 25.0968 37.1746 25.1768 33.1526 27.6298Z" fill="#00BCD4"/>
<mask id="mask0_1681_130" style="mask-type:alpha" maskUnits="userSpaceOnUse" x="0" y="0" width="80" height="80">
<path fill-rule="evenodd" clip-rule="evenodd" d="M29.9116 1.00078C8.51262 7.26278 -4.20538 28.6348 1.27062 49.1348C7.03762 70.7238 28.6676 83.8168 49.4116 78.2758C74.7666 71.5028 86.9436 45.2718 75.4906 22.0968C68.9346 8.83278 56.7546 0.781782 42.1606 0.0647823C37.5456 -0.161218 32.5916 0.216782 29.9116 1.00078ZM33.1526 27.6298C31.3596 28.7228 28.9996 31.0828 27.9066 32.8758C20.6486 44.7788 35.4426 59.0948 47.0136 51.3648C56.3096 45.1548 55.6866 32.4068 45.8406 27.3868C41.3516 25.0968 37.1746 25.1768 33.1526 27.6298Z" fill="#00BCD4"/>
</mask>
<g mask="url(#mask0_1681_130)">
<path d="M41 29V-3L81 11L89 40H51.5L41 29Z" fill="#448AFF"/>
<path d="M103.5 39.5H51.5L44 50.5L87 87L103.5 39.5Z" fill="#3F51B5"/>
</g>
</svg>
