<svg width="133" height="132" viewBox="0 0 133 132" fill="none" xmlns="http://www.w3.org/2000/svg">
<rect x="80" y="26" width="36" height="19" rx="9.5" fill="#455A64"/>
<path fill-rule="evenodd" clip-rule="evenodd" d="M66 85V96H77H117C125.284 96 132 89.2843 132 81V47C132 38.1634 124.837 31 116 31H100V42H116C118.761 42 121 44.2386 121 47V81C121 83.2091 119.209 85 117 85H100H77H66Z" fill="#455A64"/>
<rect x="21" y="58" width="16" height="26" fill="#90CAF9"/>
<rect x="16" y="52" width="25.2973" height="6.32432" rx="3" fill="#90CAF9"/>
<path d="M24.5362 75.3376C26.3942 71.7099 31.5788 71.7099 33.4368 75.3376L50.3613 108.383C52.0654 111.71 49.6492 115.662 45.9111 115.662H12.0619C8.32382 115.662 5.90762 111.71 7.61165 108.383L24.5362 75.3376Z" fill="#90CAF9"/>
<path fill-rule="evenodd" clip-rule="evenodd" d="M21.7559 93L15.3285 105.549C14.2566 107.642 15.7765 110.128 18.1278 110.128H39.42C41.7714 110.128 43.2913 107.642 42.2194 105.549L35.792 93H21.7559Z" fill="#F50057"/>
<path fill-rule="evenodd" clip-rule="evenodd" d="M91.9493 81L80.2691 107.589C79.356 109.668 80.8785 111.999 83.1487 111.999H122.539C124.809 111.999 126.331 109.668 125.418 107.589L113.738 81H91.9493Z" fill="#03A9F4"/>
<path d="M133 105H70.5C68.0147 105 66 107.015 66 109.5V114H133V105Z" fill="#455A64"/>
<rect x="66" y="11" width="27" height="46" fill="#03A9F4"/>
<rect x="69" width="21" height="6" fill="#03A9F4"/>
<rect x="72" y="6" width="15" height="5" fill="#455A64"/>
<rect x="72" y="57" width="15" height="9" fill="#455A64"/>
<circle cx="103" cy="91" r="5" fill="#455A64"/>
<circle cx="103" cy="35" r="5" fill="#03A9F4"/>
</svg>
