<svg width="371" height="343" viewBox="0 0 371 343" fill="none" xmlns="http://www.w3.org/2000/svg">
<g clip-path="url(#clip0_1483_2036)">
<path d="M340.47 258.89L35.1499 221.03C34.8125 220.878 34.521 220.64 34.305 220.34C34.089 220.04 33.9562 219.688 33.9199 219.32C33.9199 224.206 33.9199 229.096 33.9199 233.99C33.9512 234.358 34.0809 234.711 34.2956 235.012C34.5102 235.313 34.8019 235.55 35.1399 235.7L218.04 341.3C218.947 341.759 219.949 341.998 220.965 341.998C221.981 341.998 222.983 341.759 223.89 341.3L340.44 273.56C340.771 273.411 341.058 273.177 341.27 272.882C341.482 272.587 341.613 272.241 341.65 271.88C341.65 266.993 341.65 262.103 341.65 257.21C341.618 257.569 341.493 257.913 341.285 258.208C341.078 258.503 340.797 258.738 340.47 258.89Z" fill="#D4F4F8" stroke="#1E88E5" stroke-linejoin="round"/>
<path d="M340.47 255.5C342.09 256.44 342.09 257.96 340.47 258.89L223.89 326.62C222.985 327.084 221.982 327.325 220.965 327.325C219.948 327.325 218.945 327.084 218.04 326.62L35.1501 221.03C33.5201 220.09 33.5101 218.57 35.1501 217.63L151.67 149.9C152.578 149.439 153.582 149.199 154.6 149.199C155.618 149.199 156.622 149.439 157.53 149.9L340.47 255.5Z" fill="white" stroke="#1E88E5" stroke-linejoin="round"/>
<path d="M117.13 239.92L100.73 249.45L121.55 261.46L137.94 251.94L117.13 239.92Z" fill="#D4F4F8"/>
<path d="M168.76 288.72L189.58 300.74L205.97 291.21L185.16 279.2L168.76 288.72Z" fill="#D4F4F8"/>
<path d="M139.791 253L123.391 262.53L144.251 274.57L160.651 265.05L139.791 253Z" fill="#D4F4F8"/>
<path d="M162.49 266.11L146.1 275.64L166.92 287.66L183.31 278.13L162.49 266.11Z" fill="#D4F4F8"/>
<path d="M215.5 233.17L194.64 221.13L178.25 230.65L199.1 242.69L215.5 233.17Z" fill="#D4F4F8"/>
<path d="M238.159 246.26L217.339 234.23L200.949 243.76L221.769 255.78L238.159 246.26Z" fill="#D4F4F8"/>
<path d="M94.4603 226.83L78.0703 236.36L98.8803 248.38L115.28 238.85L94.4603 226.83Z" fill="#D4F4F8"/>
<path d="M132.92 204.48L153.74 216.5L170.13 206.97L149.31 194.96L132.92 204.48Z" fill="#D4F4F8"/>
<path d="M155.59 217.57L176.4 229.59L192.8 220.06L171.98 208.04L155.59 217.57Z" fill="#D4F4F8"/>
<path d="M172.009 205.88L188.399 196.35L167.589 184.34L151.189 193.86L172.009 205.88Z" fill="#D4F4F8"/>
<path d="M217.38 232.07L233.77 222.55L212.91 210.51L196.52 220.03L217.38 232.07Z" fill="#D4F4F8"/>
<path d="M194.679 218.97L211.069 209.44L190.249 197.42L173.859 206.95L194.679 218.97Z" fill="#D4F4F8"/>
<path d="M165.739 183.27L144.929 171.25L128.529 180.78L149.349 192.8L165.739 183.27Z" fill="#D4F4F8"/>
<path d="M240.051 245.16L256.441 235.64L235.621 223.61L219.221 233.14L240.051 245.16Z" fill="#D4F4F8"/>
<path d="M258.281 236.7L241.891 246.23L262.711 258.24L279.101 248.72L258.281 236.7Z" fill="#D4F4F8"/>
<path d="M223.619 256.85L244.429 268.87L260.819 259.34L240.009 247.32L223.619 256.85Z" fill="#D4F4F8"/>
<path d="M147.47 193.89L126.65 181.87L110.26 191.4L131.08 203.42L147.47 193.89Z" fill="#D4F4F8"/>
<path d="M96.3398 225.74L117.16 237.76L133.55 228.23L112.73 216.21L96.3398 225.74Z" fill="#D4F4F8"/>
<path d="M129.191 204.51L108.381 192.49L91.9609 202.03L112.781 214.05L129.191 204.51Z" fill="#D4F4F8"/>
<path d="M71.8002 213.75L55.4102 223.28L76.2202 235.29L92.6202 225.77L71.8002 213.75Z" fill="#D4F4F8"/>
<path d="M110.89 215.15L90.0797 203.13L73.6797 212.66L94.4997 224.68L110.89 215.15Z" fill="#D4F4F8"/>
<path d="M114.619 215.12L135.429 227.14L151.849 217.6L131.039 205.58L114.619 215.12Z" fill="#D4F4F8"/>
<path d="M156.22 241.32L135.4 229.3L119.01 238.83L139.83 250.84L156.22 241.32Z" fill="#D4F4F8"/>
<path d="M178.92 254.43L158.06 242.38L141.67 251.91L162.53 263.95L178.92 254.43Z" fill="#D4F4F8"/>
<path d="M201.589 267.51L180.759 255.49L164.369 265.01L185.199 277.04L201.589 267.51Z" fill="#D4F4F8"/>
<path d="M187.039 278.1L207.849 290.12L224.249 280.6L203.429 268.58L187.039 278.1Z" fill="#D4F4F8"/>
<path d="M205.311 267.48L226.131 279.5L242.551 269.96L221.731 257.94L205.311 267.48Z" fill="#D4F4F8"/>
<path d="M137.289 228.21L158.099 240.22L174.519 230.68L153.699 218.66L137.289 228.21Z" fill="#D4F4F8"/>
<path d="M219.89 256.88L199.06 244.85L182.65 254.4L203.47 266.42L219.89 256.88Z" fill="#D4F4F8"/>
<path d="M197.219 243.79L176.359 231.75L159.939 241.29L180.799 253.33L197.219 243.79Z" fill="#D4F4F8"/>
<path d="M191.42 301.81L212.25 313.83L228.64 304.3L207.82 292.28L191.42 301.81Z" fill="#F44336"/>
<path d="M280.941 249.78L264.551 259.31L285.381 271.33L301.771 261.81L280.941 249.78Z" fill="#F44336"/>
<path d="M227.971 280.56L248.801 292.59L265.221 283.05L244.391 271.02L227.971 280.56Z" fill="#F44336"/>
<path d="M246.279 269.93L267.099 281.95L283.489 272.43L262.669 260.4L246.279 269.93Z" fill="#F44336"/>
<path d="M209.699 291.19L230.519 303.21L246.919 293.68L226.089 281.66L209.699 291.19Z" fill="#F44336"/>
<path d="M159.95 182.8C160.17 182.674 160.28 182.534 160.28 182.38C160.28 182.22 160.17 182.08 159.93 181.95C159.703 181.815 159.443 181.745 159.18 181.75C158.927 181.747 158.678 181.813 158.46 181.94L157.61 182.43C157.38 182.56 157.27 182.71 157.27 182.86C157.27 183.01 157.38 183.16 157.62 183.29C157.846 183.426 158.106 183.495 158.37 183.49C158.627 183.494 158.88 183.425 159.1 183.29L159.95 182.8ZM158.33 183.14C158.217 183.146 158.106 183.118 158.01 183.06C157.973 183.045 157.942 183.021 157.919 182.989C157.896 182.957 157.882 182.919 157.88 182.88C157.88 182.82 157.93 182.75 158.02 182.7L158.9 182.19C158.997 182.133 159.107 182.102 159.22 182.1C159.33 182.096 159.44 182.12 159.54 182.17C159.576 182.188 159.607 182.214 159.63 182.248C159.653 182.281 159.666 182.32 159.67 182.36C159.67 182.42 159.62 182.48 159.52 182.54L158.64 183.05C158.546 183.108 158.439 183.139 158.33 183.14Z" fill="#1E88E5"/>
<path d="M161.679 183L161.659 182.98L161.279 182.76L161.229 182.74L160.749 182.64L160.679 182.65L160.409 182.81L160.399 182.85L160.409 182.86L160.809 182.99L160.819 183H160.809L159.049 184.03L159.039 184.05L159.059 184.07L159.419 184.28L159.459 184.29L159.499 184.28L161.669 183.02L161.679 183Z" fill="#1E88E5"/>
<path d="M182.27 195.69C182.49 195.563 182.6 195.423 182.6 195.27C182.6 195.11 182.48 194.97 182.25 194.83C182.022 194.699 181.763 194.63 181.5 194.63C181.248 194.631 181 194.697 180.78 194.82L179.93 195.32C179.7 195.45 179.59 195.59 179.59 195.74C179.59 195.89 179.7 196.04 179.94 196.18C180.167 196.312 180.427 196.378 180.69 196.37C180.946 196.377 181.2 196.311 181.42 196.18L182.27 195.69ZM180.64 196.03C180.531 196.029 180.425 196.002 180.33 195.95C180.24 195.9 180.19 195.83 180.2 195.77C180.206 195.73 180.221 195.693 180.246 195.661C180.271 195.63 180.303 195.605 180.34 195.59L181.22 195.07C181.319 195.018 181.428 194.988 181.54 194.98C181.652 194.979 181.762 195.007 181.86 195.06C181.896 195.075 181.928 195.099 181.951 195.131C181.974 195.163 181.987 195.201 181.99 195.24C181.99 195.31 181.94 195.37 181.84 195.43L180.96 195.94C180.863 195.998 180.753 196.03 180.64 196.03Z" fill="#1E88E5"/>
<path d="M184.3 196.12C184.228 196.006 184.128 195.913 184.01 195.85C183.874 195.768 183.725 195.711 183.57 195.68C183.418 195.65 183.261 195.65 183.11 195.68C182.965 195.687 182.825 195.728 182.7 195.8L182.54 195.88L182.92 196.1H182.99L183.08 196.05L183.34 195.99C183.437 195.991 183.533 196.015 183.62 196.06C183.71 196.11 183.75 196.17 183.75 196.22L183.64 196.38C183.396 196.465 183.138 196.502 182.88 196.49H182.5H181.47H181.4L181.1 196.66L182.51 197.47H182.59L182.9 197.29L182.06 196.8H182.85H183.31C183.477 196.786 183.644 196.763 183.81 196.73C183.931 196.703 184.048 196.663 184.16 196.61C184.258 196.556 184.335 196.472 184.38 196.37C184.39 196.325 184.388 196.278 184.373 196.234C184.359 196.19 184.334 196.15 184.3 196.12Z" fill="#1E88E5"/>
<path d="M204.959 208.79C205.179 208.66 205.299 208.52 205.289 208.37C205.279 208.22 205.179 208.07 204.949 207.93C204.718 207.799 204.455 207.733 204.189 207.74C203.936 207.732 203.686 207.798 203.469 207.93L202.619 208.42C202.393 208.547 202.283 208.687 202.289 208.84C202.289 209 202.399 209.14 202.629 209.28C202.857 209.411 203.116 209.48 203.379 209.48C203.636 209.48 203.888 209.411 204.109 209.28L204.959 208.79ZM203.339 209.13C203.228 209.131 203.118 209.103 203.019 209.05C202.983 209.035 202.952 209.01 202.929 208.979C202.906 208.947 202.892 208.909 202.889 208.87C202.889 208.81 202.939 208.74 203.039 208.69L203.919 208.17C204.019 208.119 204.128 208.089 204.239 208.08C204.348 208.08 204.454 208.108 204.549 208.16C204.588 208.173 204.621 208.197 204.646 208.229C204.671 208.261 204.686 208.3 204.689 208.34C204.679 208.382 204.659 208.421 204.632 208.454C204.604 208.487 204.569 208.513 204.529 208.53L203.649 209.04C203.556 209.098 203.449 209.129 203.339 209.13Z" fill="#1E88E5"/>
<path d="M205.991 208.58H205.921L205.611 208.76L206.351 209.18H205.411H205.361L205.291 209.45H205.441H205.541C205.641 209.51 205.681 209.59 205.621 209.68C205.57 209.753 205.501 209.812 205.421 209.85C205.342 209.901 205.253 209.935 205.161 209.95C205.098 209.978 205.03 209.992 204.961 209.992C204.892 209.992 204.824 209.978 204.761 209.95L204.661 209.84V209.71L204.781 209.59L204.411 209.37H204.341C204.255 209.417 204.18 209.482 204.121 209.56C204.076 209.603 204.046 209.659 204.034 209.719C204.021 209.78 204.027 209.843 204.051 209.9C204.103 210.037 204.207 210.149 204.341 210.21C204.507 210.305 204.691 210.367 204.881 210.39C205.072 210.408 205.265 210.391 205.451 210.34C205.585 210.311 205.713 210.26 205.831 210.19C205.937 210.131 206.032 210.053 206.111 209.96C206.136 209.929 206.154 209.893 206.165 209.855C206.175 209.817 206.178 209.776 206.172 209.737C206.166 209.698 206.153 209.66 206.132 209.626C206.111 209.592 206.083 209.563 206.051 209.54H206.921L207.281 209.34L205.991 208.58Z" fill="#1E88E5"/>
<path d="M227.85 221.39C227.85 221.23 227.73 221.09 227.5 220.96C227.274 220.824 227.014 220.755 226.75 220.76C226.497 220.757 226.248 220.822 226.03 220.95L225.18 221.44C224.95 221.58 224.84 221.72 224.85 221.87C224.86 222.02 224.96 222.17 225.19 222.3C225.417 222.434 225.677 222.503 225.94 222.5C226.199 222.503 226.454 222.437 226.68 222.31L227.52 221.81C227.74 221.69 227.86 221.54 227.85 221.39ZM227.09 221.55L226.21 222.07C226.115 222.121 226.008 222.148 225.9 222.15C225.789 222.154 225.679 222.13 225.58 222.08C225.544 222.063 225.513 222.036 225.49 222.002C225.467 221.969 225.453 221.93 225.45 221.89C225.45 221.83 225.45 221.77 225.59 221.71L226.47 221.25C226.566 221.19 226.677 221.159 226.79 221.16C226.899 221.155 227.007 221.183 227.1 221.24C227.2 221.29 227.24 221.35 227.24 221.42C227.209 221.481 227.155 221.527 227.09 221.55Z" fill="#1E88E5"/>
<path d="M229.09 221.91L229.03 221.9L227.16 222.33L227.1 222.35L226.84 222.5L226.83 222.52L226.85 222.54L227.81 223.1V223.12L227.29 223.42L227.27 223.44L227.29 223.47L227.66 223.68L227.69 223.69L227.73 223.68L228.25 223.37H228.29L228.43 223.45L228.46 223.46L228.5 223.45L228.82 223.26L228.84 223.24L228.83 223.22L228.69 223.14V223.12L229.08 222.89L229.1 222.87L229.09 222.85L228.72 222.64L228.68 222.62L228.64 222.63L228.25 222.86L228.21 222.87L227.74 222.59V222.58H227.75L229.47 222.18L229.51 222.16L229.48 222.14L229.09 221.91Z" fill="#1E88E5"/>
<path d="M250.29 234.96C250.51 234.83 250.62 234.69 250.61 234.53C250.6 234.37 250.5 234.23 250.26 234.1C250.032 233.966 249.773 233.897 249.51 233.9C249.257 233.897 249.008 233.962 248.79 234.09L247.94 234.58C247.71 234.72 247.6 234.86 247.6 235.01C247.6 235.16 247.72 235.31 247.95 235.44C248.176 235.576 248.436 235.645 248.7 235.64C248.959 235.649 249.216 235.583 249.44 235.45L250.29 234.96ZM248.66 235.29C248.549 235.297 248.438 235.273 248.34 235.22C248.25 235.17 248.21 235.1 248.22 235.04C248.23 234.98 248.27 234.91 248.36 234.86L249.24 234.34C249.34 234.292 249.449 234.262 249.56 234.25C249.669 234.245 249.776 234.273 249.87 234.33C249.97 234.38 250.01 234.45 250 234.51C249.99 234.57 250 234.64 249.85 234.69L248.97 235.21C248.872 235.253 248.765 235.267 248.66 235.25V235.29Z" fill="#1E88E5"/>
<path d="M252.619 235.51L251.329 234.76H251.249L249.959 235.51V235.56L250.349 235.77H250.629L250.829 235.85L250.949 235.97V236.09L250.819 236.2L250.619 236.28H250.389L250.189 236.22L250.079 236.11V235.98V235.93L249.699 235.71H249.619L249.499 235.84C249.458 235.883 249.429 235.936 249.417 235.995C249.405 236.053 249.409 236.114 249.429 236.17C249.491 236.307 249.601 236.418 249.739 236.48C249.905 236.575 250.089 236.636 250.279 236.66C250.471 236.695 250.667 236.695 250.859 236.66C250.978 236.624 251.093 236.574 251.199 236.51C251.297 236.46 251.385 236.392 251.459 236.31C251.499 236.268 251.528 236.217 251.542 236.16C251.556 236.104 251.555 236.045 251.539 235.99C251.517 235.926 251.483 235.868 251.439 235.818C251.394 235.769 251.34 235.728 251.279 235.7C251.148 235.631 251.006 235.587 250.859 235.57L251.349 235.3L252.219 235.8H252.299L252.609 235.61L252.619 235.51Z" fill="#1E88E5"/>
<path d="M272.95 248.04C273.17 247.913 273.28 247.773 273.28 247.62C273.28 247.46 273.16 247.32 272.93 247.19C272.703 247.054 272.443 246.985 272.18 246.99C271.927 246.987 271.678 247.052 271.46 247.18L270.61 247.67C270.38 247.8 270.27 247.95 270.27 248.1C270.27 248.25 270.39 248.4 270.62 248.53C270.846 248.666 271.106 248.735 271.37 248.73C271.627 248.734 271.88 248.664 272.1 248.53L272.95 248.04ZM271.32 248.38C271.211 248.385 271.103 248.357 271.01 248.3C270.973 248.285 270.942 248.26 270.919 248.229C270.896 248.197 270.882 248.159 270.88 248.12C270.88 248.06 270.88 247.99 271.02 247.94L271.9 247.43C271.997 247.373 272.107 247.342 272.22 247.34C272.33 247.336 272.44 247.36 272.54 247.41C272.577 247.427 272.608 247.453 272.631 247.487C272.654 247.52 272.668 247.559 272.67 247.6C272.67 247.66 272.62 247.72 272.52 247.78L271.64 248.29C271.543 248.349 271.432 248.38 271.32 248.38Z" fill="#1E88E5"/>
<path d="M274.961 248.44C274.885 248.335 274.786 248.249 274.671 248.19C274.535 248.109 274.386 248.051 274.231 248.02C274.079 247.995 273.923 247.995 273.771 248.02C273.635 248.036 273.502 248.076 273.381 248.14L272.381 248.7C272.28 248.755 272.192 248.83 272.121 248.92C272.081 248.964 272.055 249.018 272.044 249.076C272.034 249.135 272.039 249.195 272.061 249.25C272.121 249.385 272.228 249.495 272.361 249.56C272.691 249.739 273.076 249.789 273.441 249.7C273.574 249.668 273.702 249.618 273.821 249.55C273.941 249.49 274.044 249.4 274.121 249.29C274.147 249.246 274.161 249.196 274.161 249.145C274.161 249.094 274.147 249.044 274.121 249C274.064 248.896 273.977 248.813 273.871 248.76C273.735 248.678 273.58 248.633 273.421 248.63L273.721 248.45L273.981 248.39L274.251 248.46L274.351 248.6L274.251 248.74L274.621 248.96L274.711 248.91C274.807 248.867 274.883 248.788 274.921 248.69C274.945 248.653 274.961 248.612 274.968 248.569C274.974 248.526 274.972 248.482 274.961 248.44ZM273.471 248.91C273.571 248.97 273.601 249.04 273.571 249.12C273.536 249.187 273.48 249.24 273.411 249.27L273.161 249.36C273.032 249.39 272.897 249.373 272.781 249.31C272.671 249.24 272.641 249.17 272.691 249.09L272.841 248.95C272.92 248.907 273.004 248.874 273.091 248.85C273.221 248.824 273.356 248.845 273.471 248.91Z" fill="#1E88E5"/>
<path d="M141.469 193.25C141.689 193.13 141.799 192.98 141.789 192.83C141.779 192.68 141.669 192.53 141.429 192.4C141.209 192.268 140.956 192.199 140.699 192.2C140.443 192.191 140.189 192.257 139.969 192.39L139.119 192.88C138.889 193.01 138.779 193.16 138.779 193.31C138.779 193.46 138.899 193.61 139.129 193.74C139.354 193.87 139.609 193.939 139.869 193.94C140.132 193.95 140.393 193.884 140.619 193.75L141.469 193.25ZM139.829 193.59C139.72 193.598 139.611 193.57 139.519 193.51C139.429 193.46 139.379 193.4 139.389 193.34C139.399 193.28 139.389 193.21 139.539 193.15L140.419 192.64C140.516 192.582 140.626 192.55 140.739 192.55C140.846 192.541 140.952 192.569 141.039 192.63C141.139 192.68 141.189 192.74 141.179 192.8C141.169 192.86 141.179 192.93 141.029 192.99L140.149 193.5C140.034 193.554 139.905 193.572 139.779 193.55L139.829 193.59Z" fill="#1E88E5"/>
<path d="M143.15 193.36C143.026 193.29 142.891 193.239 142.75 193.21C142.605 193.185 142.456 193.185 142.31 193.21C142.131 193.218 141.956 193.27 141.8 193.36C141.707 193.402 141.632 193.477 141.59 193.57V193.73H141.24C141.101 193.767 140.967 193.821 140.84 193.89C140.737 193.942 140.651 194.022 140.59 194.12C140.563 194.167 140.549 194.221 140.549 194.275C140.549 194.329 140.563 194.383 140.59 194.43C140.665 194.547 140.768 194.644 140.89 194.71C141.195 194.876 141.547 194.936 141.89 194.88C142.033 194.849 142.171 194.799 142.3 194.73C142.402 194.672 142.488 194.589 142.55 194.49V194.29H142.84C142.975 194.276 143.105 194.231 143.22 194.16C143.282 194.133 143.336 194.093 143.381 194.043C143.426 193.993 143.46 193.934 143.48 193.87C143.497 193.83 143.506 193.788 143.506 193.745C143.506 193.702 143.497 193.66 143.48 193.62C143.397 193.504 143.283 193.414 143.15 193.36ZM142 194.31L141.85 194.45C141.761 194.499 141.662 194.53 141.56 194.54C141.447 194.561 141.329 194.54 141.23 194.48C141.13 194.42 141.09 194.35 141.12 194.28L141.28 194.13C141.361 194.082 141.449 194.048 141.54 194.03C141.664 194.005 141.792 194.026 141.9 194.09C142.01 194.16 142.05 194.25 142 194.31ZM142.87 193.81L142.76 193.9L142.55 193.97C142.43 193.992 142.306 193.97 142.2 193.91C142.1 193.86 142.07 193.79 142.1 193.71L142.23 193.59L142.39 193.53H142.59L142.76 193.58L142.87 193.69V193.81Z" fill="#1E88E5"/>
<path d="M164.091 206.31C164.317 206.184 164.427 206.044 164.421 205.89C164.421 205.73 164.291 205.59 164.061 205.45C163.837 205.322 163.584 205.255 163.326 205.255C163.068 205.255 162.815 205.322 162.591 205.45L161.741 205.94C161.511 206.08 161.401 206.22 161.411 206.38C161.421 206.54 161.531 206.67 161.751 206.8C161.982 206.933 162.244 207.006 162.511 207.01C162.771 207.009 163.026 206.94 163.251 206.81L164.091 206.31ZM162.461 206.65C162.349 206.65 162.239 206.622 162.141 206.57C162.051 206.51 162.001 206.45 162.011 206.39C162.021 206.33 162.071 206.26 162.171 206.21L163.051 205.69C163.147 205.63 163.258 205.599 163.371 205.6C163.476 205.601 163.579 205.628 163.671 205.68C163.771 205.74 163.821 205.79 163.821 205.86C163.811 205.902 163.792 205.942 163.764 205.975C163.736 206.008 163.701 206.034 163.661 206.05L162.781 206.56C162.685 206.613 162.58 206.644 162.471 206.65H162.461Z" fill="#1E88E5"/>
<path d="M165.771 206.44C165.612 206.346 165.434 206.288 165.251 206.27C165.069 206.24 164.883 206.24 164.701 206.27C164.56 206.307 164.425 206.365 164.301 206.44C164.184 206.496 164.084 206.582 164.011 206.69C163.989 206.733 163.977 206.781 163.977 206.83C163.977 206.878 163.989 206.926 164.011 206.97C164.064 207.079 164.152 207.167 164.261 207.22C164.4 207.303 164.559 207.348 164.721 207.35L164.421 207.52L164.161 207.59L163.911 207.52L163.791 207.38L163.901 207.23L163.541 207.02H163.471L163.381 207.07C163.286 207.12 163.212 207.201 163.171 207.3C163.15 207.338 163.139 207.381 163.139 207.425C163.139 207.468 163.15 207.511 163.171 207.55C163.243 207.66 163.343 207.75 163.461 207.81C163.598 207.889 163.746 207.946 163.901 207.98C164.05 208.005 164.202 208.005 164.351 207.98C164.488 207.964 164.621 207.92 164.741 207.85L165.741 207.29C165.841 207.238 165.929 207.166 166.001 207.08C166.04 207.036 166.067 206.981 166.077 206.923C166.088 206.865 166.082 206.805 166.061 206.75C166.003 206.616 165.9 206.506 165.771 206.44ZM165.481 206.89L165.321 207.03C165.242 207.079 165.153 207.11 165.061 207.12C164.935 207.149 164.804 207.132 164.691 207.07C164.591 207.01 164.561 206.94 164.591 206.86L164.751 206.71L165.001 206.62C165.064 206.602 165.13 206.597 165.196 206.606C165.261 206.615 165.324 206.636 165.381 206.67C165.471 206.73 165.531 206.81 165.471 206.89H165.481Z" fill="#1E88E5"/>
<path d="M186.999 218.73L186.989 218.71L186.609 218.49L186.549 218.47L186.059 218.38H185.989L185.719 218.54V218.59H185.729L186.129 218.72L186.139 218.73L186.129 218.74L184.379 219.76L184.359 219.78L184.379 219.81L184.739 220.02H184.779L184.819 220.01L186.989 218.75L186.999 218.73Z" fill="#1E88E5"/>
<path d="M188.121 219.34C187.894 219.206 187.635 219.137 187.371 219.14C187.118 219.132 186.867 219.198 186.651 219.33L185.801 219.82C185.571 219.95 185.461 220.09 185.461 220.25C185.461 220.41 185.581 220.55 185.811 220.68C186.038 220.808 186.295 220.875 186.556 220.875C186.817 220.875 187.073 220.808 187.301 220.68L188.151 220.18C188.238 220.146 188.313 220.089 188.37 220.015C188.426 219.941 188.461 219.853 188.471 219.76C188.471 219.61 188.351 219.47 188.121 219.34ZM187.711 219.93L186.831 220.44C186.735 220.5 186.624 220.532 186.511 220.53C186.402 220.536 186.294 220.508 186.201 220.45C186.111 220.4 186.061 220.34 186.061 220.27C186.071 220.231 186.089 220.194 186.115 220.163C186.141 220.132 186.174 220.107 186.211 220.09L187.101 219.58C187.197 219.522 187.308 219.491 187.421 219.49C187.527 219.486 187.631 219.514 187.721 219.57C187.821 219.62 187.871 219.68 187.861 219.75C187.851 219.82 187.811 219.87 187.711 219.93Z" fill="#1E88E5"/>
<path d="M210 232.01L209.98 231.99L209.6 231.77L209.54 231.74L209.05 231.65L208.98 231.66L208.72 231.82L208.7 231.86H208.72L209.12 231.99L209.13 232V232.01L207.37 233.03L207.35 233.06L207.36 233.08L207.73 233.29L207.78 233.3L207.81 233.29L209.98 232.03L210 232.01Z" fill="#1E88E5"/>
<path d="M210.73 232.42L210.68 232.4L210.18 232.3L210.12 232.31L209.85 232.48L209.84 232.51L209.86 232.52L210.25 232.65L210.27 232.66L210.25 232.67L208.5 233.69L208.49 233.71L208.5 233.74L208.86 233.95H208.9L208.95 233.94L211.12 232.68L211.13 232.66L211.11 232.64L210.73 232.42Z" fill="#1E88E5"/>
<path d="M232.339 244.91L232.319 244.89L231.939 244.67L231.889 244.65L231.399 244.55L231.319 244.56L231.059 244.72L231.049 244.76H231.069L231.469 244.9H231.479L231.469 244.91L229.709 245.94L229.689 245.95L229.709 245.98L230.079 246.19L230.119 246.2L230.159 246.19L232.329 244.93L232.339 244.91Z" fill="#1E88E5"/>
<path d="M233.75 246.05C233.772 246.006 233.783 245.959 233.783 245.91C233.783 245.861 233.772 245.813 233.75 245.77C233.68 245.651 233.575 245.557 233.45 245.5C233.313 245.418 233.165 245.357 233.01 245.32C232.857 245.3 232.703 245.3 232.55 245.32C232.407 245.336 232.269 245.376 232.14 245.44L231.99 245.53V245.58L232.35 245.79H232.44L232.51 245.74L232.78 245.67C232.878 245.675 232.974 245.702 233.06 245.75C233.14 245.75 233.19 245.85 233.2 245.91L233.08 246.06C232.836 246.147 232.579 246.188 232.32 246.18H231.93H231.51H230.86H230.8L230.5 246.35L231.92 247.17H232L232.3 246.99L231.45 246.49H231.56H232.25H232.7C232.868 246.484 233.035 246.464 233.2 246.43C233.299 246.385 233.39 246.324 233.47 246.25C233.584 246.218 233.683 246.148 233.75 246.05Z" fill="#1E88E5"/>
<path d="M255.031 258.01L255.021 257.99L254.641 257.77L254.581 257.75L254.091 257.65L254.021 257.66L253.751 257.82V257.86H253.761L254.161 258H254.171L254.161 258.02L252.411 259.04L252.391 259.06L252.401 259.08L252.771 259.3H252.811L252.851 259.29L255.021 258.03L255.031 258.01Z" fill="#1E88E5"/>
<path d="M256.74 259L255.43 258.24H255.36L255.04 258.42V258.47L255.78 258.9H254.83L254.75 259.16H254.95H255.03C255.15 259.23 255.18 259.31 255.12 259.39C255.066 259.461 254.998 259.519 254.92 259.56C254.839 259.609 254.751 259.646 254.66 259.67C254.525 259.707 254.381 259.689 254.26 259.62L254.14 259.51L254.19 259.37L254.31 259.27L253.94 259.06H253.86C253.78 259.113 253.707 259.173 253.64 259.24C253.601 259.287 253.574 259.342 253.562 259.402C253.55 259.461 253.553 259.522 253.57 259.58C253.627 259.72 253.733 259.834 253.87 259.9C254.21 260.082 254.606 260.128 254.98 260.03C255.112 259.997 255.24 259.946 255.36 259.88C255.464 259.819 255.556 259.737 255.63 259.64C255.647 259.605 255.657 259.565 255.659 259.526C255.66 259.486 255.653 259.446 255.638 259.409C255.623 259.372 255.6 259.339 255.571 259.311C255.542 259.284 255.507 259.263 255.47 259.25H256.27H256.34L256.69 259.04L256.74 259Z" fill="#1E88E5"/>
<path d="M123.509 203.19L123.489 203.16L123.109 202.95L123.059 202.92L122.559 202.83L122.489 202.84L122.219 203L122.209 203.04H122.239L122.629 203.17L122.639 203.19L120.879 204.22L120.859 204.24L120.869 204.26L121.239 204.47L121.279 204.48L121.309 204.47L123.489 203.21L123.509 203.19Z" fill="#1E88E5"/>
<path d="M123.819 204.25C123.694 204.174 123.554 204.126 123.409 204.11L123.879 203.83L124.759 204.34H124.829L125.139 204.16L123.829 203.41L122.539 204.16L122.929 204.39H123.219L123.419 204.46L123.529 204.58V204.71L123.389 204.81L123.189 204.89H122.959L122.749 204.83L122.649 204.71V204.59V204.52L122.259 204.3H122.189L122.059 204.43C122.016 204.474 121.988 204.53 121.977 204.591C121.967 204.652 121.974 204.714 121.999 204.77C122.059 204.906 122.165 205.016 122.299 205.08C122.467 205.173 122.65 205.234 122.839 205.26C123.048 205.297 123.262 205.294 123.469 205.25C123.591 205.218 123.709 205.171 123.819 205.11C123.913 205.054 123.998 204.983 124.069 204.9C124.107 204.859 124.134 204.809 124.148 204.755C124.162 204.701 124.162 204.644 124.149 204.59C124.125 204.511 124.082 204.439 124.025 204.38C123.968 204.321 123.897 204.277 123.819 204.25Z" fill="#1E88E5"/>
<path d="M146.17 216.27L146.15 216.25L145.77 216.03L145.72 216.01L145.23 215.91L145.15 215.92L144.88 216.09V216.13H144.9L145.3 216.26V216.27V216.28L143.53 217.3L143.52 217.32L143.54 217.35L143.91 217.56L143.94 217.57L143.98 217.56L146.15 216.3L146.17 216.27Z" fill="#1E88E5"/>
<path d="M147.22 217.65L147.3 217.6C147.397 217.551 147.477 217.475 147.53 217.38C147.541 217.335 147.542 217.288 147.531 217.243C147.521 217.197 147.5 217.155 147.47 217.12C147.401 217.013 147.304 216.926 147.19 216.87C147.053 216.79 146.904 216.733 146.75 216.7C146.597 216.675 146.442 216.675 146.29 216.7C146.152 216.718 146.02 216.762 145.9 216.83L144.9 217.39C144.802 217.445 144.714 217.516 144.64 217.6C144.602 217.645 144.577 217.699 144.566 217.757C144.556 217.815 144.56 217.875 144.58 217.93C144.637 218.068 144.744 218.178 144.88 218.24C145.041 218.329 145.217 218.39 145.4 218.42C145.582 218.45 145.767 218.45 145.95 218.42C146.092 218.382 146.229 218.328 146.36 218.26C146.477 218.203 146.574 218.113 146.64 218C146.664 217.957 146.677 217.909 146.677 217.86C146.677 217.811 146.664 217.763 146.64 217.72C146.59 217.612 146.506 217.523 146.4 217.47C146.255 217.392 146.094 217.348 145.93 217.34L146.23 217.16L146.49 217.09L146.75 217.16L146.86 217.3L146.75 217.45L147.12 217.67L147.22 217.65ZM146.03 217.57C146.13 217.63 146.17 217.7 146.13 217.78C146.095 217.847 146.038 217.9 145.97 217.93L145.72 218.02C145.597 218.066 145.462 218.066 145.34 218.02C145.22 217.95 145.2 217.88 145.24 217.79L145.4 217.66C145.479 217.604 145.572 217.569 145.67 217.56C145.727 217.537 145.789 217.527 145.851 217.528C145.912 217.53 145.973 217.544 146.03 217.57Z" fill="#1E88E5"/>
<path d="M168.9 229.39L168.88 229.37L168.5 229.15L168.44 229.13L167.96 229.03L167.88 229.04L167.61 229.21V229.25H167.63L168.02 229.38L168.03 229.39L168.02 229.4L166.26 230.42L166.24 230.44L166.27 230.47L166.63 230.68L166.67 230.69L166.7 230.68L168.87 229.42L168.9 229.39Z" fill="#1E88E5"/>
<path d="M170.24 230.58L170.56 230.39L170.59 230.37L170.57 230.34L169.2 229.56L169.16 229.54L169.12 229.56L168.6 229.85L168.59 229.87L168.6 229.9L168.88 230.06L168.93 230.07L168.97 230.06L169.11 229.98H169.15L169.73 230.31V230.33L167.25 230.98L167.23 231.02L167.63 231.25L167.7 231.26L170.18 230.6L170.24 230.58Z" fill="#1E88E5"/>
<path d="M191.49 242.44L191.47 242.41L191.09 242.19L191.03 242.17L190.54 242.07L190.47 242.08L190.2 242.25L190.19 242.28L190.22 242.29L190.61 242.42L190.62 242.43V242.44L188.85 243.47L188.84 243.49L188.85 243.51L189.22 243.72L189.26 243.73L189.29 243.72L191.47 242.46L191.49 242.44Z" fill="#1E88E5"/>
<path d="M192.89 243.49C192.899 243.449 192.899 243.406 192.891 243.365C192.882 243.323 192.865 243.284 192.84 243.25C192.776 243.148 192.686 243.066 192.58 243.01C192.451 242.938 192.313 242.884 192.17 242.85C192.024 242.825 191.876 242.825 191.73 242.85C191.55 242.857 191.375 242.909 191.22 243C191.124 243.042 191.047 243.117 191 243.21V243.37H190.66C190.519 243.397 190.384 243.448 190.26 243.52C190.154 243.572 190.065 243.652 190 243.75C189.971 243.796 189.955 243.85 189.955 243.905C189.955 243.96 189.971 244.014 190 244.06C190.063 244.186 190.17 244.286 190.3 244.34C190.451 244.429 190.617 244.49 190.79 244.52C190.958 244.555 191.132 244.555 191.3 244.52C191.445 244.502 191.585 244.455 191.71 244.38C191.815 244.328 191.905 244.248 191.97 244.15V243.94H192.27C192.404 243.923 192.533 243.879 192.65 243.81C192.712 243.779 192.767 243.734 192.808 243.679C192.85 243.623 192.878 243.558 192.89 243.49ZM191.26 244.1C191.175 244.151 191.079 244.181 190.98 244.19C190.866 244.206 190.751 244.185 190.65 244.13C190.54 244.06 190.5 244 190.54 243.92L190.7 243.77C190.773 243.724 190.855 243.694 190.94 243.68C191.065 243.649 191.197 243.667 191.31 243.73C191.43 243.8 191.46 243.88 191.43 243.96L191.26 244.1ZM192.26 243.45L192.16 243.55L191.95 243.62C191.829 243.644 191.703 243.618 191.6 243.55C191.5 243.5 191.46 243.43 191.5 243.36L191.62 243.24L191.78 243.18H191.99L192.16 243.24L192.27 243.35L192.26 243.45Z" fill="#1E88E5"/>
<path d="M214.17 255.53L214.15 255.51L213.77 255.29L213.71 255.26L213.22 255.17L213.15 255.18L212.88 255.34L212.87 255.38H212.89L213.28 255.51L213.29 255.52V255.53L211.53 256.56L211.51 256.58L211.53 256.6L211.9 256.81L211.94 256.82L211.97 256.81L214.14 255.55L214.17 255.53Z" fill="#1E88E5"/>
<path d="M215.47 256.39C215.406 256.26 215.301 256.154 215.17 256.09C215.009 255.999 214.833 255.938 214.65 255.91C214.465 255.88 214.276 255.88 214.09 255.91C213.952 255.94 213.82 255.994 213.7 256.07C213.579 256.124 213.477 256.215 213.41 256.33C213.387 256.373 213.374 256.421 213.374 256.47C213.374 256.519 213.387 256.567 213.41 256.61C213.472 256.712 213.558 256.798 213.66 256.86C213.798 256.938 213.952 256.983 214.11 256.99L213.81 257.16L213.55 257.23L213.29 257.15L213.18 257.01L213.29 256.87L212.93 256.66H212.85L212.77 256.71C212.65 256.78 212.57 256.85 212.55 256.93C212.531 256.972 212.521 257.018 212.521 257.065C212.521 257.112 212.531 257.158 212.55 257.2C212.632 257.297 212.73 257.378 212.84 257.44C212.974 257.518 213.119 257.575 213.27 257.61C213.426 257.64 213.585 257.64 213.74 257.61C213.878 257.601 214.011 257.56 214.13 257.49L215.13 256.93C215.228 256.875 215.316 256.804 215.39 256.72C215.43 256.676 215.458 256.623 215.472 256.565C215.486 256.507 215.485 256.447 215.47 256.39ZM214.88 256.54L214.73 256.67C214.649 256.723 214.557 256.758 214.46 256.77C214.337 256.793 214.209 256.772 214.1 256.71C213.99 256.65 213.96 256.58 213.99 256.5L214.14 256.35L214.47 256.25C214.535 256.234 214.601 256.232 214.666 256.242C214.732 256.252 214.794 256.275 214.85 256.31C214.91 256.38 214.94 256.45 214.9 256.54H214.88Z" fill="#1E88E5"/>
<path d="M234.401 269.36H235.191H235.651C235.822 269.353 235.992 269.333 236.161 269.3C236.279 269.276 236.393 269.235 236.501 269.18C236.602 269.128 236.682 269.043 236.731 268.94C236.75 268.894 236.76 268.845 236.76 268.795C236.76 268.745 236.75 268.696 236.731 268.65C236.651 268.536 236.545 268.444 236.421 268.38C236.287 268.302 236.142 268.244 235.991 268.21C235.838 268.19 235.683 268.19 235.531 268.21C235.384 268.221 235.241 268.262 235.111 268.33L234.971 268.42L235.341 268.64H235.411L235.691 268.57C235.787 268.57 235.88 268.598 235.961 268.65C235.995 268.664 236.025 268.686 236.049 268.714C236.074 268.742 236.091 268.775 236.101 268.81L235.991 268.96C235.743 269.046 235.482 269.086 235.221 269.08H234.841H234.411H233.761H233.691L233.471 269.25L234.891 270.07H234.951L235.271 269.88L234.401 269.36Z" fill="#1E88E5"/>
<path d="M238.549 269.8C238.549 269.64 238.429 269.5 238.199 269.37C237.974 269.24 237.719 269.171 237.459 269.17C237.199 269.161 236.942 269.227 236.719 269.36L235.869 269.85C235.783 269.888 235.707 269.948 235.65 270.023C235.592 270.098 235.554 270.186 235.539 270.28C235.539 270.44 235.659 270.58 235.889 270.71C236.117 270.842 236.376 270.911 236.639 270.91C236.895 270.914 237.148 270.849 237.369 270.72L238.219 270.22C238.469 270.09 238.549 269.96 238.549 269.8ZM237.799 269.96L236.909 270.47C236.813 270.528 236.702 270.559 236.589 270.56C236.483 270.564 236.379 270.536 236.289 270.48C236.179 270.43 236.139 270.37 236.149 270.3C236.159 270.23 236.199 270.18 236.299 270.12L237.179 269.61C237.276 269.551 237.386 269.52 237.499 269.52C237.608 269.515 237.716 269.543 237.809 269.6C237.899 269.6 237.949 269.71 237.949 269.78C237.939 269.819 237.92 269.855 237.894 269.886C237.868 269.917 237.836 269.942 237.799 269.96Z" fill="#1E88E5"/>
<path d="M103.75 215.06L102.91 214.57H103.7H104.16C104.328 214.556 104.495 214.532 104.66 214.5C104.782 214.475 104.899 214.435 105.01 214.38C105.111 214.33 105.19 214.245 105.23 214.14C105.255 214.097 105.268 214.049 105.268 214C105.268 213.951 105.255 213.902 105.23 213.86C105.152 213.748 105.05 213.656 104.93 213.59C104.795 213.509 104.646 213.451 104.49 213.42C104.339 213.39 104.182 213.39 104.03 213.42C103.886 213.428 103.746 213.469 103.62 213.54L103.47 213.62L103.85 213.84H103.92H104L104.27 213.78C104.368 213.778 104.465 213.802 104.55 213.85C104.64 213.9 104.68 213.95 104.68 214.01L104.58 214.16C104.335 214.255 104.073 214.296 103.81 214.28H103.43H102.36H102.28L101.98 214.45L103.39 215.26H103.47L103.78 215.08L103.75 215.06Z" fill="#1E88E5"/>
<path d="M106.971 215.09C106.995 215.046 107.008 214.996 107.008 214.945C107.008 214.894 106.995 214.844 106.971 214.8C106.892 214.689 106.79 214.596 106.671 214.53C106.534 214.452 106.385 214.398 106.231 214.37C106.079 214.34 105.923 214.34 105.771 214.37C105.627 214.375 105.487 214.412 105.361 214.48L105.211 214.57L105.591 214.78H105.661H105.741L106.011 214.71C106.109 214.712 106.206 214.74 106.291 214.79C106.381 214.84 106.421 214.89 106.421 214.95L106.321 215.1C106.073 215.185 105.812 215.222 105.551 215.21H105.171H104.731H104.091H104.021L103.721 215.38L105.131 216.2H105.211L105.521 216.02L104.681 215.54H105.481H105.941C106.108 215.529 106.275 215.509 106.441 215.48C106.562 215.457 106.68 215.417 106.791 215.36C106.882 215.296 106.946 215.199 106.971 215.09Z" fill="#1E88E5"/>
<path d="M125.6 227.66H125.71H126.39H126.86C127.025 227.651 127.189 227.627 127.35 227.59C127.473 227.57 127.591 227.529 127.7 227.47C127.8 227.421 127.881 227.34 127.93 227.24C127.95 227.194 127.96 227.145 127.96 227.095C127.96 227.045 127.95 226.996 127.93 226.95C127.85 226.836 127.744 226.743 127.62 226.68C127.483 226.601 127.335 226.544 127.18 226.51C127.028 226.485 126.872 226.485 126.72 226.51C126.576 226.518 126.436 226.559 126.31 226.63L126.15 226.72L126.53 226.93H126.59L126.68 226.88L126.94 226.82C127.039 226.819 127.137 226.847 127.22 226.9C127.256 226.91 127.287 226.931 127.31 226.96C127.334 226.988 127.347 227.023 127.35 227.06L127.25 227.21C127.006 227.295 126.748 227.333 126.49 227.32H126.1H125.67H124.96L124.66 227.5L126.08 228.32H126.15L126.46 228.13L125.6 227.66Z" fill="#1E88E5"/>
<path d="M129.941 228.03L128.621 227.28H128.541L128.231 227.46L128.971 227.89H127.971L127.891 228.15H128.041H128.131C128.251 228.22 128.271 228.29 128.231 228.38C128.175 228.453 128.103 228.512 128.021 228.55C127.941 228.601 127.853 228.638 127.761 228.66C127.628 228.71 127.483 228.71 127.351 228.66L127.251 228.54V228.41L127.381 228.3L127.011 228.09H126.941C126.861 228.146 126.787 228.21 126.721 228.28C126.679 228.325 126.651 228.38 126.637 228.44C126.623 228.499 126.624 228.561 126.641 228.62C126.703 228.758 126.813 228.868 126.951 228.93C127.112 229.021 127.288 229.082 127.471 229.11C127.662 229.151 127.859 229.151 128.051 229.11C128.182 229.074 128.31 229.024 128.431 228.96C128.538 228.898 128.633 228.817 128.711 228.72C128.737 228.69 128.757 228.654 128.768 228.616C128.78 228.577 128.782 228.536 128.777 228.497C128.771 228.457 128.757 228.418 128.735 228.385C128.713 228.351 128.684 228.322 128.651 228.3H129.521L129.881 228.09L129.941 228.03Z" fill="#1E88E5"/>
<path d="M148.151 240.65H148.241H148.931H149.391C149.581 240.65 149.751 240.65 149.891 240.59C150.011 240.568 150.127 240.524 150.231 240.46C150.333 240.421 150.419 240.346 150.471 240.25C150.493 240.205 150.505 240.155 150.505 240.105C150.505 240.055 150.493 240.005 150.471 239.96C150.395 239.846 150.292 239.753 150.171 239.69C150.035 239.61 149.886 239.556 149.731 239.53C149.579 239.505 149.423 239.505 149.271 239.53C149.124 239.539 148.98 239.58 148.851 239.65L148.701 239.74L149.071 239.96H149.141L149.221 239.91L149.491 239.84C149.59 239.841 149.687 239.868 149.771 239.92C149.805 239.932 149.835 239.954 149.858 239.982C149.881 240.01 149.896 240.044 149.901 240.08L149.801 240.23C149.553 240.315 149.292 240.352 149.031 240.34H148.641H148.221H147.571H147.501L147.211 240.51L148.621 241.33H148.691L149.001 241.14L148.141 240.64L148.151 240.65Z" fill="#1E88E5"/>
<path d="M151.74 240.59H151.67L149.81 241.01L149.75 241.03L149.48 241.18V241.21L149.49 241.23L150.46 241.78V241.8L149.93 242.11L149.91 242.13L149.94 242.15L150.3 242.36L150.34 242.37L150.37 242.36L150.89 242.06H150.93L151.07 242.14L151.1 242.15L151.14 242.14L151.46 241.95L151.48 241.93L151.47 241.91L151.33 241.82V241.81L151.73 241.57L151.74 241.55L151.73 241.53L151.36 241.32L151.32 241.31L151.28 241.32L150.89 241.55H150.85L150.38 241.28L150.37 241.26H150.38L152.12 240.87L152.15 240.85L152.13 240.82L151.74 240.59Z" fill="#1E88E5"/>
<path d="M170.901 253.82H171.711H172.161C172.329 253.814 172.496 253.794 172.661 253.76C172.783 253.737 172.901 253.696 173.011 253.64C173.112 253.59 173.19 253.505 173.231 253.4C173.256 253.357 173.268 253.309 173.268 253.26C173.268 253.211 173.256 253.162 173.231 253.12C173.156 253.003 173.053 252.906 172.931 252.84C172.789 252.766 172.638 252.712 172.481 252.68C172.329 252.65 172.173 252.65 172.021 252.68C171.879 252.69 171.739 252.728 171.611 252.79L171.461 252.88L171.821 253.1H171.901L171.981 253.05L172.241 252.99C172.342 252.987 172.442 253.011 172.531 253.06C172.611 253.11 172.651 253.16 172.651 253.22L172.551 253.37C172.308 253.459 172.05 253.499 171.791 253.49H171.401H170.971H170.331H170.261L169.961 253.66L171.381 254.48H171.471L171.781 254.3L170.901 253.82Z" fill="#1E88E5"/>
<path d="M173.96 253.42H173.88L172.58 254.18L172.96 254.4H173.24L173.45 254.47L173.56 254.59V254.71L173.43 254.83L173.23 254.9H173L172.8 254.84L172.69 254.73V254.59L172.31 254.37H172.24L172.11 254.51C172.07 254.552 172.043 254.604 172.031 254.66C172.019 254.717 172.022 254.775 172.04 254.83C172.107 254.967 172.215 255.079 172.35 255.15C172.517 255.242 172.7 255.3 172.89 255.32C173.085 255.355 173.285 255.355 173.48 255.32C173.599 255.288 173.713 255.241 173.82 255.18C173.914 255.124 173.999 255.053 174.07 254.97C174.112 254.932 174.142 254.882 174.157 254.827C174.171 254.772 174.168 254.714 174.15 254.66C174.105 254.533 174.011 254.428 173.89 254.37C173.757 254.295 173.611 254.248 173.46 254.23L173.94 253.95L174.83 254.46H174.9L175.21 254.28V254.23L173.96 253.42Z" fill="#1E88E5"/>
<path d="M193.561 266.9H194.361H194.821L195.321 266.84C195.444 266.817 195.562 266.773 195.671 266.71C195.77 266.663 195.849 266.581 195.891 266.48C195.913 266.435 195.924 266.385 195.924 266.335C195.924 266.285 195.913 266.235 195.891 266.19C195.815 266.076 195.712 265.983 195.591 265.92C195.454 265.842 195.305 265.788 195.151 265.76C194.995 265.73 194.836 265.73 194.681 265.76C194.541 265.774 194.405 265.815 194.281 265.88L194.131 265.97L194.511 266.18H194.581L194.661 266.13L194.931 266.07C195.028 266.073 195.123 266.097 195.211 266.14C195.301 266.2 195.341 266.25 195.341 266.31L195.241 266.46C194.993 266.544 194.732 266.582 194.471 266.57H194.081H193.651C193.431 266.57 193.221 266.57 193.011 266.57H192.941L192.641 266.75L194.051 267.56H194.131L194.441 267.38L193.561 266.9Z" fill="#1E88E5"/>
<path d="M197.31 266.87C197.173 266.792 197.025 266.737 196.87 266.71C196.717 266.685 196.562 266.685 196.41 266.71C196.272 266.726 196.139 266.77 196.02 266.84L195.02 267.4C194.923 267.452 194.838 267.523 194.77 267.61C194.727 267.654 194.697 267.709 194.683 267.769C194.669 267.829 194.671 267.891 194.69 267.95C194.76 268.083 194.873 268.189 195.01 268.25C195.165 268.343 195.339 268.401 195.52 268.42C195.705 268.455 195.895 268.455 196.08 268.42C196.216 268.378 196.347 268.321 196.47 268.25C196.589 268.193 196.69 268.102 196.76 267.99C196.784 267.947 196.796 267.899 196.796 267.85C196.796 267.801 196.784 267.753 196.76 267.71C196.699 267.603 196.609 267.516 196.5 267.46C196.364 267.377 196.209 267.333 196.05 267.33L196.36 267.15L196.61 267.09L196.88 267.16L196.99 267.31L196.88 267.45L197.24 267.66H197.31L197.4 267.61C197.494 267.561 197.571 267.484 197.62 267.39C197.653 267.306 197.653 267.213 197.62 267.13C197.537 267.022 197.431 266.933 197.31 266.87ZM196.11 267.6C196.21 267.66 196.24 267.72 196.21 267.8C196.174 267.865 196.123 267.92 196.06 267.96L195.8 268.05C195.67 268.077 195.535 268.056 195.42 267.99C195.31 267.93 195.28 267.85 195.33 267.77L195.48 267.64C195.56 267.591 195.648 267.557 195.74 267.54C195.802 267.524 195.867 267.521 195.931 267.531C195.995 267.542 196.056 267.565 196.11 267.6Z" fill="#1E88E5"/>
<path d="M216.279 280.02H217.079H217.539L218.049 279.96C218.17 279.938 218.285 279.894 218.389 279.83C218.489 279.781 218.57 279.7 218.619 279.6C218.641 279.555 218.653 279.506 218.653 279.455C218.653 279.405 218.641 279.355 218.619 279.31C218.54 279.196 218.433 279.104 218.309 279.04C218.033 278.893 217.722 278.824 217.409 278.84C217.266 278.854 217.127 278.895 216.999 278.96L216.849 279.05L217.219 279.26H217.289L217.379 279.21L217.649 279.15C217.744 279.152 217.836 279.176 217.919 279.22C217.999 279.27 218.049 279.33 218.049 279.39L217.949 279.54C217.702 279.627 217.441 279.664 217.179 279.65H216.799H216.369C216.139 279.65 215.929 279.65 215.719 279.65H215.659L215.359 279.83L216.769 280.65L217.089 280.47L216.279 280.02Z" fill="#1E88E5"/>
<path d="M219.27 279.58L219.23 279.57L219.2 279.58L218.68 279.89L218.66 279.9L218.68 279.93L218.97 280.09L219 280.1L219.04 280.09L219.19 280H219.22L219.81 280.34L219.8 280.36L217.33 281.01L217.32 281.05L217.71 281.28L217.78 281.29L220.26 280.63L220.32 280.61L220.64 280.42L220.66 280.4L220.65 280.38L219.27 279.58Z" fill="#1E88E5"/>
<path d="M84.7001 225.16H84.8101H85.5001H85.9501C86.1214 225.154 86.292 225.134 86.4601 225.1C86.5787 225.077 86.6933 225.037 86.8001 224.98C86.9029 224.93 86.9844 224.845 87.0301 224.74C87.052 224.697 87.0635 224.649 87.0635 224.6C87.0635 224.551 87.052 224.504 87.0301 224.46C86.9531 224.344 86.846 224.25 86.7201 224.19C86.5886 224.107 86.4427 224.05 86.2901 224.02C86.1382 223.991 85.982 223.991 85.8301 224.02C85.6841 224.028 85.5412 224.065 85.4101 224.13L85.2601 224.22V224.27L85.6301 224.48H85.7101H85.7901L86.0601 224.41C86.1585 224.414 86.2546 224.441 86.3401 224.49C86.3723 224.505 86.4006 224.528 86.4231 224.555C86.4456 224.583 86.4617 224.615 86.4701 224.65L86.3601 224.8C86.1131 224.888 85.852 224.929 85.5901 224.92H85.2201H84.7901H84.1301L83.8301 225.09L85.2501 225.91H85.3201L85.6401 225.73L84.7001 225.16Z" fill="#1E88E5"/>
<path d="M88.4098 225.12C88.2524 225.031 88.0792 224.973 87.8998 224.95C87.7148 224.914 87.5248 224.914 87.3398 224.95C87.1982 224.979 87.0628 225.034 86.9398 225.11C86.8219 225.169 86.7219 225.259 86.6498 225.37C86.6278 225.413 86.6164 225.461 86.6164 225.51C86.6164 225.559 86.6278 225.606 86.6498 225.65C86.7027 225.759 86.7908 225.847 86.8998 225.9C87.0404 225.98 87.1982 226.024 87.3598 226.03L87.0498 226.21L86.7998 226.27L86.5398 226.21L86.4198 226.06L86.5298 225.92L86.1598 225.7H86.0898L85.9998 225.76C85.9512 225.78 85.9074 225.809 85.8712 225.847C85.835 225.885 85.8072 225.93 85.7898 225.98C85.7688 226.02 85.7578 226.065 85.7578 226.11C85.7578 226.155 85.7688 226.2 85.7898 226.24C85.8654 226.345 85.9648 226.431 86.0798 226.49C86.2149 226.573 86.364 226.631 86.5198 226.66C86.6688 226.684 86.8208 226.684 86.9698 226.66C87.1067 226.641 87.239 226.597 87.3598 226.53L88.3598 225.97C88.4604 225.915 88.5489 225.84 88.6198 225.75C88.6628 225.708 88.6916 225.654 88.7024 225.594C88.7131 225.535 88.7052 225.474 88.6798 225.42C88.6228 225.295 88.5285 225.19 88.4098 225.12ZM88.1198 225.57L87.9698 225.71C87.8872 225.761 87.7955 225.795 87.6998 225.81C87.5766 225.837 87.4476 225.815 87.3398 225.75C87.2398 225.69 87.1998 225.63 87.2298 225.54L87.3898 225.39L87.6498 225.3C87.7752 225.274 87.9058 225.291 88.0198 225.35C88.1398 225.42 88.1698 225.5 88.1198 225.57Z" fill="#1E88E5"/>
<path d="M108.779 238.25C108.804 238.219 108.822 238.183 108.833 238.145C108.844 238.106 108.846 238.066 108.84 238.027C108.835 237.987 108.821 237.95 108.8 237.916C108.779 237.882 108.752 237.853 108.719 237.83H109.519H109.589L109.949 237.63L108.649 236.88H108.569L108.259 237.06L108.999 237.49H108.059L107.989 237.76H108.139H108.239C108.339 237.82 108.379 237.9 108.319 237.99C108.273 238.063 108.207 238.122 108.129 238.16C108.047 238.211 107.955 238.245 107.859 238.26C107.796 238.287 107.728 238.302 107.659 238.302C107.59 238.302 107.522 238.287 107.459 238.26L107.359 238.15V238.02L107.479 237.91L107.109 237.69H107.029C106.945 237.731 106.872 237.793 106.819 237.87C106.778 237.915 106.75 237.97 106.737 238.03C106.725 238.09 106.729 238.152 106.749 238.21C106.804 238.348 106.907 238.461 107.039 238.53C107.383 238.713 107.783 238.76 108.159 238.66C108.288 238.619 108.411 238.566 108.529 238.5C108.629 238.435 108.714 238.35 108.779 238.25Z" fill="#1E88E5"/>
<path d="M111.061 238.25C110.836 238.119 110.581 238.05 110.321 238.05C110.068 238.047 109.819 238.112 109.601 238.24L108.751 238.73C108.521 238.87 108.411 239.01 108.401 239.16C108.391 239.31 108.531 239.46 108.761 239.59C108.985 239.723 109.24 239.795 109.501 239.8C109.764 239.801 110.023 239.732 110.251 239.6L111.101 239.11C111.321 238.98 111.431 238.84 111.421 238.68C111.411 238.52 111.301 238.34 111.061 238.25ZM110.661 238.84L109.781 239.36C109.683 239.414 109.573 239.445 109.461 239.45C109.353 239.448 109.246 239.421 109.151 239.37C109.061 239.31 109.011 239.26 109.021 239.19C109.031 239.12 109.081 239.06 109.171 239.01L110.051 238.49C110.147 238.431 110.258 238.4 110.371 238.4C110.478 238.397 110.585 238.421 110.681 238.47C110.781 238.53 110.821 238.59 110.811 238.66C110.801 238.73 110.761 238.74 110.661 238.79V238.84Z" fill="#1E88E5"/>
<path d="M131.78 251.55C131.805 251.519 131.823 251.483 131.833 251.445C131.844 251.407 131.847 251.367 131.841 251.327C131.835 251.288 131.822 251.25 131.801 251.216C131.78 251.182 131.752 251.153 131.72 251.13H132.6L132.96 250.92L131.65 250.16H131.58L131.27 250.34L132.01 250.76H131.07L130.99 251.02H131.14H131.23C131.34 251.09 131.37 251.17 131.31 251.25C131.264 251.324 131.198 251.383 131.12 251.42C131.038 251.465 130.95 251.498 130.86 251.52C130.795 251.548 130.725 251.562 130.655 251.562C130.584 251.562 130.514 251.548 130.45 251.52L130.35 251.4V251.27L130.47 251.25V251.2L130.11 250.99H130.02C129.943 251.046 129.873 251.11 129.81 251.18C129.769 251.226 129.742 251.282 129.732 251.342C129.721 251.402 129.727 251.463 129.75 251.52C129.8 251.658 129.9 251.772 130.03 251.84C130.202 251.928 130.388 251.986 130.58 252.01C130.768 252.045 130.961 252.045 131.15 252.01C131.283 251.976 131.412 251.922 131.53 251.85C131.634 251.77 131.719 251.667 131.78 251.55Z" fill="#1E88E5"/>
<path d="M133.67 251.28L133.61 251.25L133.13 251.15L133.05 251.17L132.79 251.33L132.78 251.36L132.79 251.37L133.19 251.5L133.2 251.51L133.19 251.52L131.43 252.54L131.42 252.56L131.43 252.59L131.79 252.8L131.85 252.81L131.88 252.8L134.05 251.54L134.07 251.52L134.04 251.49L133.67 251.28Z" fill="#1E88E5"/>
<path d="M158.571 169.06C158.632 168.787 158.597 168.5 158.471 168.25C158.257 167.901 158.02 167.567 157.761 167.25C157.53 166.983 157.317 166.703 157.121 166.41C157.014 166.27 156.957 166.097 156.961 165.92C156.975 165.837 157.011 165.758 157.063 165.692C157.115 165.626 157.183 165.574 157.261 165.54C157.537 165.384 157.855 165.317 158.171 165.35C158.526 165.386 158.867 165.503 159.171 165.69C159.621 165.94 159.861 166.21 159.891 166.48C159.901 166.627 159.864 166.773 159.787 166.899C159.71 167.024 159.596 167.122 159.461 167.18H159.371L159.311 167.26L159.371 167.33L160.651 168.07H160.771H160.911L161.081 167.97C161.498 167.764 161.82 167.406 161.981 166.97C162.039 166.789 162.053 166.596 162.021 166.408C161.99 166.221 161.914 166.043 161.801 165.89C161.486 165.467 161.074 165.124 160.601 164.89C160.082 164.586 159.518 164.367 158.931 164.24C158.36 164.113 157.772 164.079 157.191 164.14C156.656 164.2 156.139 164.366 155.671 164.63C155.483 164.714 155.315 164.836 155.176 164.987C155.036 165.138 154.929 165.316 154.861 165.51C154.782 165.824 154.825 166.156 154.981 166.44C155.191 166.797 155.435 167.132 155.711 167.44C155.991 167.79 156.181 168.06 156.291 168.22C156.388 168.362 156.44 168.529 156.441 168.7C156.428 168.779 156.395 168.853 156.346 168.915C156.297 168.978 156.234 169.028 156.161 169.06C155.885 169.218 155.567 169.288 155.251 169.26C154.846 169.239 154.454 169.115 154.111 168.9C153.651 168.63 153.381 168.36 153.321 168.08C153.288 167.944 153.306 167.8 153.373 167.676C153.439 167.553 153.549 167.458 153.681 167.41L153.851 167.31L153.901 167.23L153.851 167.15L152.591 166.42H152.451H152.321L152.061 166.57C151.666 166.768 151.351 167.096 151.171 167.5C151.117 167.681 151.107 167.873 151.141 168.059C151.176 168.245 151.255 168.42 151.371 168.57C151.713 169.01 152.146 169.372 152.641 169.63C153.453 170.123 154.373 170.411 155.321 170.47C156.169 170.545 157.02 170.36 157.761 169.94C158.241 169.66 158.521 169.37 158.571 169.06Z" fill="#F44336"/>
<path d="M164.84 173.53L164.79 173.46L163.54 172.68C163.502 172.658 163.459 172.647 163.415 172.647C163.371 172.647 163.328 172.658 163.29 172.68C162.891 172.917 162.434 173.038 161.97 173.03C161.511 173.037 161.058 172.92 160.66 172.69C160.27 172.46 160.07 172.21 160.07 171.93C160.07 171.65 160.27 171.4 160.67 171.17L163.39 169.59C163.788 169.358 164.24 169.237 164.7 169.24C165.163 169.226 165.621 169.344 166.02 169.58C166.41 169.8 166.61 170.05 166.61 170.34C166.61 170.63 166.41 170.87 166.01 171.1V171.24L167.39 171.94C167.429 171.959 167.472 171.97 167.515 171.97C167.559 171.97 167.601 171.959 167.64 171.94C168.074 171.725 168.425 171.374 168.64 170.94C168.719 170.762 168.753 170.568 168.737 170.374C168.721 170.18 168.657 169.993 168.55 169.83C168.259 169.377 167.851 169.011 167.37 168.77C166.799 168.437 166.172 168.21 165.52 168.1C164.859 167.982 164.182 167.982 163.52 168.1C162.894 168.202 162.291 168.416 161.74 168.73L159.17 170.25C158.716 170.469 158.337 170.817 158.08 171.25C157.987 171.425 157.938 171.621 157.938 171.82C157.938 172.019 157.987 172.215 158.08 172.39C158.362 172.85 158.767 173.22 159.25 173.46C159.814 173.789 160.429 174.019 161.07 174.14C161.712 174.255 162.369 174.255 163.01 174.14C163.622 174.061 164.213 173.864 164.75 173.56L164.84 173.53Z" fill="#F44336"/>
<path d="M176.91 174.41L176.87 174.34L175.57 173.59L175.44 173.56L175.3 173.59L172.26 175.36H172.14L169.7 173.95V173.88L172.74 172.12L172.79 172.04L172.75 171.96L171.45 171.21L171.32 171.18L171.18 171.21L163.53 175.66L163.48 175.74L163.53 175.81L164.83 176.56L164.96 176.59L165.09 176.56L168.22 174.75H168.33L170.77 176.15V176.22L167.65 178.04L167.6 178.11L167.65 178.19L168.94 178.94L169.08 178.97L169.21 178.94L176.86 174.49L176.91 174.41Z" fill="#F44336"/>
<path d="M177.03 182.06L176.97 181.98L173.34 179.89L173.33 179.82L175.16 178.76H175.28L177.67 180.13L177.8 180.16L177.93 180.13L179.03 179.5L179.09 179.41L179.03 179.34L176.65 177.97V177.9L178.4 176.88H178.51L182.14 178.98L182.28 179.01L182.41 178.97L183.51 178.33L183.57 178.26L183.52 178.18L178.4 175.22L178.27 175.19L178.13 175.23L170.48 179.67L170.43 179.75L170.48 179.83L175.6 182.78L175.74 182.81L175.86 182.78L176.97 182.14L177.03 182.06Z" fill="#F44336"/>
<path d="M188.909 182.62C188.971 182.456 188.993 182.279 188.972 182.105C188.951 181.931 188.888 181.765 188.789 181.62C188.491 181.196 188.093 180.852 187.629 180.62L184.869 179.02H184.729H184.599L176.949 183.47V183.55V183.62L179.719 185.22C180.27 185.537 180.867 185.763 181.489 185.89C182.081 186.014 182.69 186.035 183.289 185.95C183.853 185.888 184.397 185.711 184.889 185.43L188.009 183.61C188.42 183.402 188.741 183.049 188.909 182.62ZM186.179 182.8L183.579 184.31C183.194 184.536 182.756 184.66 182.309 184.67C181.902 184.692 181.496 184.599 181.139 184.4L179.809 183.62V183.56L184.879 180.61H184.989L186.319 181.37C186.659 181.58 186.829 181.81 186.819 182.07C186.809 182.33 186.579 182.57 186.179 182.8Z" fill="#F44336"/>
<path d="M197.121 186.19L197.171 186.11L197.121 186.04L195.831 185.29H195.691H195.561L190.391 188.29C189.984 188.517 189.526 188.638 189.061 188.64C188.602 188.652 188.149 188.538 187.751 188.31C187.351 188.08 187.151 187.83 187.171 187.55C187.191 187.27 187.371 187.01 187.771 186.78L192.941 183.78L193.001 183.71L192.941 183.63L191.651 182.88H191.521H191.381L186.221 185.88C185.775 186.096 185.408 186.445 185.171 186.88C185.083 187.057 185.041 187.254 185.05 187.451C185.059 187.649 185.117 187.841 185.221 188.01C185.502 188.464 185.903 188.83 186.381 189.07C186.95 189.399 187.573 189.625 188.221 189.74C188.882 189.854 189.559 189.854 190.221 189.74C190.846 189.641 191.449 189.431 192.001 189.12L197.121 186.19Z" fill="#F44336"/>
<path d="M197.279 193.76L197.229 193.68L193.609 191.59V191.53L199.969 187.83L200.019 187.76L199.969 187.68L198.679 186.93L198.529 186.9L198.409 186.93L190.759 191.38L190.699 191.45L190.759 191.53L195.849 194.48L195.999 194.51L196.119 194.47L197.229 193.83L197.279 193.76Z" fill="#F44336"/>
<path d="M210.119 193.54L204.999 190.58L204.869 190.56L204.739 190.59L197.089 195.03L197.029 195.11L197.079 195.19L202.199 198.14L202.339 198.17L202.469 198.14L203.569 197.5L203.629 197.42L203.569 197.34L199.939 195.25V195.18L201.769 194.12H201.889L204.259 195.49L204.399 195.52L204.539 195.49L205.629 194.85L205.689 194.77L205.629 194.69L203.249 193.32V193.26L205.009 192.24H205.119L208.749 194.34L208.889 194.37L209.009 194.33L210.119 193.69L210.179 193.62L210.119 193.54Z" fill="#F44336"/>
<path d="M295.681 261.16C295.901 261.03 296.011 260.89 296.001 260.74C295.991 260.59 295.891 260.44 295.661 260.31C295.434 260.175 295.174 260.105 294.911 260.11C294.655 260.106 294.402 260.172 294.181 260.3L293.331 260.79C293.101 260.92 292.991 261.07 293.001 261.22C293.011 261.37 293.111 261.52 293.341 261.65C293.568 261.783 293.827 261.852 294.091 261.85C294.35 261.853 294.605 261.787 294.831 261.66L295.681 261.16ZM294.051 261.5C293.94 261.504 293.83 261.48 293.731 261.43C293.694 261.413 293.663 261.386 293.64 261.353C293.617 261.319 293.604 261.28 293.601 261.24C293.601 261.18 293.651 261.12 293.751 261.06L294.631 260.55C294.726 260.49 294.838 260.459 294.951 260.46C295.061 260.456 295.172 260.48 295.271 260.53C295.307 260.548 295.338 260.574 295.361 260.608C295.384 260.641 295.398 260.68 295.401 260.72C295.401 260.79 295.351 260.84 295.241 260.9L294.361 261.42C294.266 261.472 294.159 261.5 294.051 261.5Z" fill="white"/>
<path d="M298 261.69L296.63 260.9L296.59 260.89L296.56 260.9L296.04 261.2L296.02 261.22L296.04 261.24L296.33 261.41L296.36 261.42L296.4 261.41L296.55 261.32H296.58L297.17 261.66L297.15 261.68L294.68 262.32V262.37L295.07 262.59L295.14 262.61L297.62 261.94L297.69 261.93L298.01 261.74L298.02 261.71L298 261.69Z" fill="white"/>
<path d="M277.589 271.03L277.579 271.01L277.189 270.8L277.139 270.77L276.649 270.68H276.579L276.309 270.85V270.89H276.319L276.719 271.02L276.729 271.03L276.719 271.04L274.969 272.06L274.949 272.08L274.959 272.11L275.329 272.32L275.369 272.33L275.409 272.31L277.579 271.05L277.589 271.03Z" fill="white"/>
<path d="M278.52 271.56L278.44 271.54L276.58 271.97L276.52 272L276.27 272.14L276.25 272.16L276.26 272.19L277.23 272.75V272.77L276.71 273.07L276.69 273.09L276.7 273.11L277.07 273.33H277.12L277.15 273.32L277.67 273.02H277.7L277.83 273.1H277.88H277.92L278.24 272.91L278.25 272.89L278.24 272.86L278.11 272.79V272.77L278.5 272.54L278.52 272.51L278.51 272.5L278.13 272.28L278.1 272.27L278.06 272.29L277.67 272.51H277.63L277.15 272.23H277.14L277.16 272.22L278.89 271.82L278.93 271.81L278.91 271.78L278.52 271.56Z" fill="white"/>
<path d="M257.47 282.65H258.26H258.71C258.877 282.636 259.044 282.612 259.21 282.58C259.331 282.557 259.449 282.517 259.56 282.46C259.66 282.407 259.741 282.323 259.79 282.22C259.813 282.177 259.826 282.129 259.826 282.08C259.826 282.031 259.813 281.983 259.79 281.94C259.724 281.822 259.622 281.727 259.5 281.67C259.363 281.59 259.214 281.533 259.06 281.5C258.908 281.471 258.751 281.471 258.6 281.5C258.452 281.507 258.308 281.548 258.18 281.62L258.04 281.7L258.41 281.92H258.46H258.53L258.81 281.85C258.907 281.858 259.002 281.885 259.09 281.93C259.121 281.946 259.149 281.969 259.171 281.997C259.193 282.024 259.21 282.056 259.22 282.09L259.11 282.25C258.861 282.331 258.601 282.368 258.34 282.36H257.96C257.816 282.351 257.673 282.351 257.53 282.36H256.89H256.81L256.52 282.53V282.58L257.93 283.39H258.01L258.32 283.2V283.15L257.47 282.65Z" fill="white"/>
<path d="M260.789 282.44L260.739 282.42L260.249 282.32L260.179 282.33L259.909 282.5L259.899 282.53L259.919 282.54L260.309 282.66L260.319 282.68H260.309L258.549 283.71L258.539 283.73L258.559 283.75L258.919 283.96L258.959 283.97H258.999L261.169 282.7L261.189 282.68L261.169 282.66L260.789 282.44Z" fill="white"/>
<path d="M238.879 293.06H238.989H239.679H240.129C240.297 293.054 240.465 293.034 240.629 293C240.753 292.979 240.872 292.935 240.979 292.87C241.099 292.8 241.179 292.73 241.199 292.64C241.224 292.598 241.237 292.549 241.237 292.5C241.237 292.451 241.224 292.403 241.199 292.36C241.121 292.243 241.014 292.147 240.889 292.08C240.752 292.005 240.603 291.951 240.449 291.92C240.297 291.895 240.142 291.895 239.989 291.92C239.847 291.939 239.709 291.979 239.579 292.04L239.429 292.13L239.799 292.34L239.879 292.29L240.139 292.22C240.238 292.224 240.334 292.251 240.419 292.3C240.509 292.35 240.549 292.4 240.559 292.46L240.449 292.61C240.205 292.695 239.948 292.736 239.689 292.73H239.299H238.869H238.229H238.159L237.859 292.9L239.279 293.72H239.469L239.779 293.54L238.879 293.06Z" fill="white"/>
<path d="M242.651 293.03C242.526 292.954 242.386 292.906 242.241 292.89C242.096 292.86 241.946 292.86 241.801 292.89C241.624 292.898 241.453 292.95 241.301 293.04C241.205 293.082 241.128 293.157 241.081 293.25V293.41H240.721C240.58 293.443 240.445 293.497 240.321 293.57C240.218 293.622 240.132 293.702 240.071 293.8C240.044 293.847 240.029 293.901 240.029 293.955C240.029 294.009 240.044 294.063 240.071 294.11C240.147 294.23 240.254 294.327 240.381 294.39C240.687 294.554 241.037 294.617 241.381 294.57C241.524 294.54 241.662 294.489 241.791 294.42C241.895 294.365 241.981 294.282 242.041 294.18V293.98H242.331C242.464 293.96 242.593 293.916 242.711 293.85C242.771 293.823 242.824 293.782 242.867 293.732C242.911 293.682 242.942 293.624 242.961 293.56C242.98 293.519 242.989 293.475 242.989 293.43C242.989 293.385 242.98 293.341 242.961 293.3C242.886 293.182 242.778 293.088 242.651 293.03ZM241.501 294.03L241.341 294.17C241.257 294.225 241.161 294.26 241.061 294.27C240.944 294.281 240.827 294.26 240.721 294.21C240.621 294.15 240.581 294.08 240.621 294L240.771 293.85C240.85 293.802 240.939 293.772 241.031 293.76C241.154 293.734 241.283 293.755 241.391 293.82C241.471 293.83 241.541 293.9 241.471 293.98L241.501 294.03ZM242.361 293.53L242.261 293.62L242.041 293.7C241.924 293.717 241.805 293.696 241.701 293.64C241.601 293.58 241.561 293.51 241.591 293.44L241.721 293.32L241.891 293.26H242.081L242.261 293.32L242.361 293.43V293.53Z" fill="white"/>
<path d="M133.671 160.33C132.195 158.157 131.36 155.614 131.261 152.99C131.261 150.87 132.011 149.38 133.261 148.68L127.391 151.08C126.181 151.78 125.391 153.27 125.391 155.39C125.391 157.87 126.981 160.68 129.051 163.01L133.671 160.33Z" fill="#D4F4F8" stroke="#1E88E5" stroke-linejoin="round"/>
<path d="M138.019 145.3C135.219 143.68 132.679 143.53 130.849 144.6L126.689 147.02C128.529 145.95 143.919 158.72 143.899 165.11L148.059 162.69C148.079 156.31 143.569 148.5 138.019 145.3Z" fill="white" stroke="#1E88E5" stroke-linejoin="round"/>
<path d="M133.86 147.71C128.3 144.51 123.77 147.09 123.75 153.47C123.889 157.264 125.065 160.947 127.15 164.12L129.47 162.75C127.994 160.578 127.159 158.034 127.06 155.41C127.06 151.15 130.06 149.41 133.81 151.56C135.764 152.829 137.389 154.543 138.554 156.561C139.718 158.578 140.389 160.843 140.51 163.17L143.86 165.11C143.92 158.72 139.41 150.92 133.86 147.71Z" fill="white" stroke="#1E88E5" stroke-linejoin="round"/>
<path d="M107.631 175.48C106.155 173.303 105.317 170.758 105.211 168.13C105.211 166.02 105.971 164.53 107.211 163.83L101.311 166.25C100.101 166.95 99.3105 168.44 99.3105 170.56C99.3105 173.04 100.911 175.85 102.981 178.19L107.631 175.48Z" fill="#D4F4F8" stroke="#1E88E5" stroke-linejoin="round"/>
<path d="M111.97 160.44C109.18 158.83 106.64 158.68 104.81 159.75L100.65 162.16C102.48 161.1 117.87 173.87 117.85 180.25L122.01 177.83C122.03 171.45 117.53 163.65 111.97 160.44Z" fill="white" stroke="#1E88E5" stroke-linejoin="round"/>
<path d="M107.811 162.86C102.261 159.65 97.7209 162.24 97.7109 168.62C97.8513 172.406 99.0235 176.082 101.101 179.25L103.471 177.87C101.995 175.698 101.16 173.154 101.061 170.53C101.061 166.27 104.061 164.53 107.801 166.69C109.75 167.967 111.369 169.685 112.528 171.706C113.687 173.727 114.353 175.993 114.471 178.32L117.811 180.25C117.871 173.87 113.371 166.07 107.811 162.86Z" fill="white" stroke="#1E88E5" stroke-linejoin="round"/>
<path d="M81.5808 190.62C80.0996 188.439 79.2642 185.885 79.1708 183.25C79.1708 181.14 79.9308 179.64 81.1708 178.94L75.3008 181.34C74.1008 182.04 73.3508 183.53 73.3008 185.65C73.3008 188.13 74.8908 190.94 76.9608 193.28L81.5808 190.62Z" fill="#D4F4F8" stroke="#1E88E5" stroke-linejoin="round"/>
<path d="M85.9296 175.59C83.1296 173.97 80.5996 173.83 78.7596 174.89L74.5996 177.31C76.4396 176.24 91.8296 189.02 91.8096 195.4L95.9696 192.98C95.9896 186.6 91.4696 178.79 85.9296 175.59Z" fill="white" stroke="#1E88E5" stroke-linejoin="round"/>
<path d="M81.7702 178C76.2202 174.8 71.6802 177.38 71.6602 183.76C71.7993 187.554 72.9752 191.237 75.0602 194.41L77.4202 193.04C75.9443 190.868 75.1092 188.324 75.0101 185.7C75.0101 181.44 78.0101 179.7 81.7601 181.85C83.7127 183.124 85.3377 184.839 86.5035 186.858C87.6693 188.877 88.343 191.142 88.4702 193.47L91.8102 195.4C91.8302 189.02 87.3302 181.25 81.7702 178Z" fill="white" stroke="#1E88E5" stroke-linejoin="round"/>
<path d="M55.5398 205.77C54.0639 203.598 53.2288 201.054 53.1298 198.43C53.1298 196.31 53.8798 194.82 55.1298 194.12L49.2598 196.51C48.0498 197.22 47.2598 198.71 47.2598 200.82C47.2598 203.31 48.8498 206.11 50.9198 208.45L55.5398 205.77Z" fill="#D4F4F8" stroke="#1E88E5" stroke-linejoin="round"/>
<path d="M59.8806 190.73C57.0906 189.12 54.5506 188.97 52.7206 190.04L48.5605 192.46C50.3905 191.39 65.7906 204.16 65.7706 210.54L69.9306 208.13C69.9406 201.74 65.4706 193.94 59.8806 190.73Z" fill="white" stroke="#1E88E5" stroke-linejoin="round"/>
<path d="M55.7191 193.15C50.1691 189.94 45.6291 192.53 45.6191 198.91C45.7609 202.702 46.9328 206.384 49.0091 209.56L51.3791 208.19C49.9015 206.015 49.0663 203.468 48.9691 200.84C48.9691 196.58 51.9691 194.84 55.7091 197C57.6719 198.265 59.3075 199.976 60.4824 201.994C61.6573 204.011 62.3381 206.279 62.4691 208.61L65.8191 210.54C65.7891 204.16 61.2791 196.36 55.7191 193.15Z" fill="white" stroke="#1E88E5" stroke-linejoin="round"/>
<path d="M196.66 48.06C186.48 41.94 169.66 41.76 159 47.68C151.48 51.88 149.11 58 152 63.4L157.63 73.93L197.36 73.82L202.91 63.25C205.64 58.08 203.58 52.25 196.66 48.06Z" fill="#D4F4F8" stroke="#1E88E5" stroke-linejoin="round"/>
<path d="M192.47 61.9698C200.41 66.7498 200.14 74.3698 191.86 78.9698C183.58 83.5698 170.42 83.4498 162.48 78.6698C154.54 73.8898 154.8 66.2698 163.08 61.6698C171.36 57.0698 184.52 57.1798 192.47 61.9698Z" fill="#D4F4F8" stroke="#1E88E5" stroke-linejoin="round"/>
<path d="M152.72 109.98L143.16 61.1102C143.98 65.3102 147.1 67.6002 152.54 70.8802C165.73 78.8202 187.54 79.0401 201.33 71.3701C207.4 67.9901 210.88 65.3702 211.74 60.9102L202.47 109.84C201.85 113.1 199.32 116.26 194.92 118.71C184.92 124.27 169.11 124.11 159.55 118.36C155.58 115.98 153.32 113.02 152.72 109.98Z" fill="white" stroke="#1E88E5" stroke-linejoin="round"/>
<path d="M202.339 44.8997C215.529 52.8397 215.079 65.4897 201.339 73.1597C187.599 80.8297 165.739 80.6097 152.549 72.6697C139.359 64.7297 139.809 52.0697 153.549 44.4097C167.289 36.7497 189.139 36.9597 202.339 44.8997ZM196.659 48.0597C186.479 41.9397 169.659 41.7597 158.999 47.6797C148.339 53.5997 147.999 63.3697 158.219 69.4997C168.439 75.6297 185.269 75.7997 195.879 69.8797C206.489 63.9597 206.879 54.1897 196.659 48.0597Z" fill="white"/>
<path d="M196.659 48.0597C186.479 41.9397 169.659 41.7597 158.999 47.6797C148.339 53.5997 147.999 63.3697 158.219 69.4997C168.439 75.6297 185.269 75.7997 195.879 69.8797C206.489 63.9597 206.879 54.1897 196.659 48.0597M202.339 44.8997C215.529 52.8397 215.079 65.4897 201.339 73.1597C187.599 80.8297 165.739 80.6097 152.549 72.6697C139.359 64.7297 139.809 52.0697 153.549 44.4097C167.289 36.7497 189.139 36.9597 202.339 44.8997Z" stroke="#1E88E5" stroke-linejoin="round"/>
<path d="M176.37 67.37C173.32 57.37 165.99 46.37 179.32 23.88C184.699 15.0269 191.508 7.12657 199.47 0.5C199.47 0.5 208.01 38.95 176.37 67.37Z" fill="#689F38" stroke="#1E88E5" stroke-linejoin="round"/>
<path d="M176.37 67.37C176.37 67.37 174.67 37.52 199.47 0.5" stroke="#1E88E5" stroke-linejoin="round"/>
<path d="M176.99 57.0899C176.99 57.0899 185.47 50.7599 194.47 42.3799" stroke="#1E88E5" stroke-linejoin="round"/>
<path d="M180.15 41.7201C180.15 41.7201 191.15 32.7201 199.53 25.1001" stroke="#1E88E5" stroke-linejoin="round"/>
<path d="M186.471 24.0502C186.471 24.0502 196.151 15.5302 200.471 10.9902" stroke="#1E88E5" stroke-linejoin="round"/>
<path d="M188.55 19.5902C188.55 19.5902 187.93 15.6602 187.74 12.1802" stroke="#1E88E5" stroke-linejoin="round"/>
<path d="M181.05 38.64C179.65 34.6934 178.569 30.6403 177.82 26.52" stroke="#1E88E5" stroke-linejoin="round"/>
<path d="M177.251 55.2501C175.18 51.6574 173.363 47.925 171.811 44.0801" stroke="#1E88E5" stroke-linejoin="round"/>
<path d="M178.25 71.3498C181.78 61.5098 182.47 48.2498 206.57 38.2498C216.184 34.3658 226.376 32.1019 236.73 31.5498C236.73 31.5498 220.6 67.4298 178.25 71.3498Z" fill="#689F38" stroke="#1E88E5" stroke-linejoin="round"/>
<path d="M178.25 71.3498C178.25 71.3498 194.71 46.3498 236.73 31.5098" stroke="#1E88E5" stroke-linejoin="round"/>
<path d="M184.881 63.4701C184.881 63.4701 195.491 63.4701 207.721 62.1201" stroke="#1E88E5" stroke-linejoin="round"/>
<path d="M196.6 53.0198C196.6 53.0198 210.77 52.3398 222.06 51.2598" stroke="#1E88E5" stroke-linejoin="round"/>
<path d="M212.23 42.63C212.23 42.63 225.08 41.57 231.29 40.54" stroke="#1E88E5" stroke-linejoin="round"/>
<path d="M216.539 40.2503C216.539 40.2503 218.389 36.7203 220.309 33.8203" stroke="#1E88E5" stroke-linejoin="round"/>
<path d="M199.15 51.0899C200.383 47.0887 201.934 43.1928 203.79 39.4399" stroke="#1E88E5" stroke-linejoin="round"/>
<path d="M186.221 62.1201C186.704 58.0018 187.472 53.922 188.521 49.9102" stroke="#1E88E5" stroke-linejoin="round"/>
<path d="M175.009 68.0103C172.519 57.8603 173.179 44.6203 150.249 32.1404C141.089 27.2854 131.189 23.9808 120.949 22.3604C120.949 22.3604 133.289 59.7503 175.009 68.0103Z" fill="#689F38" stroke="#1E88E5" stroke-linejoin="round"/>
<path d="M175.009 68.0103C175.009 68.0103 161.219 41.4804 120.949 22.3604" stroke="#1E88E5" stroke-linejoin="round"/>
<path d="M169.22 59.5C169.22 59.5 158.68 58.4 146.66 55.79" stroke="#1E88E5" stroke-linejoin="round"/>
<path d="M158.65 47.9C158.65 47.9 144.65 45.76 133.51 43.52" stroke="#1E88E5" stroke-linejoin="round"/>
<path d="M144.17 35.9502C144.17 35.9502 131.5 33.5702 125.43 31.9502" stroke="#1E88E5" stroke-linejoin="round"/>
<path d="M140.129 33.1699C140.129 33.1699 138.649 29.4699 137.039 26.3799" stroke="#1E88E5" stroke-linejoin="round"/>
<path d="M156.311 45.7096C155.494 41.6017 154.35 37.5656 152.891 33.6396" stroke="#1E88E5" stroke-linejoin="round"/>
<path d="M168.039 58.0099C167.989 53.8652 167.654 49.7289 167.039 45.6299" stroke="#1E88E5" stroke-linejoin="round"/>
<path d="M175.47 69.2498C175.47 69.2498 183.15 61.2498 194.32 62.6598C203.43 66.4798 209.57 75.4298 209.02 93.2698C198.69 90.0398 182.52 81.1898 175.43 77.1798C174.933 76.9453 174.491 76.6093 174.132 76.1933C173.773 75.7774 173.506 75.2908 173.346 74.765C173.187 74.2392 173.14 73.6859 173.208 73.1407C173.276 72.5955 173.457 72.0706 173.74 71.5998C174.259 70.7752 174.837 69.9897 175.47 69.2498Z" fill="#689F38" stroke="#1E88E5" stroke-linejoin="round"/>
<path d="M176.23 68.5599C184.89 65.8699 196.44 70.7399 209.05 93.2699" stroke="#1E88E5" stroke-linejoin="round"/>
<path d="M180.92 67.9001C184.972 65.2164 189.551 63.4298 194.35 62.6602" stroke="#1E88E5" stroke-linejoin="round"/>
<path d="M191.029 71.3799C195.92 71.5465 200.787 72.1523 205.569 73.1899" stroke="#1E88E5" stroke-linejoin="round"/>
<path d="M200.25 80.0498C200.25 80.0498 205.45 81.6798 208.53 83.0498" stroke="#1E88E5" stroke-linejoin="round"/>
<path d="M198.729 78.25C198.729 78.25 198.089 84.25 197.789 88.76" stroke="#1E88E5" stroke-linejoin="round"/>
<path d="M190.039 70.75C190.039 70.75 190.089 79.29 189.609 84.8" stroke="#1E88E5" stroke-linejoin="round"/>
<path d="M178.63 68C178.63 68 176.339 71.46 176.909 78" stroke="#1E88E5" stroke-linejoin="round"/>
<path d="M177.04 68.14C177.04 68.14 167.59 58.27 153.83 60.03C142.62 64.73 135.06 75.76 135.74 97.72C148.45 93.72 168.36 82.85 177.09 77.91C179.8 76.37 180.65 73.39 179.17 71.04C178.532 70.0222 177.82 69.0529 177.04 68.14Z" fill="#689F38" stroke="#1E88E5" stroke-linejoin="round"/>
<path d="M176.14 67.3001C165.48 63.9901 151.26 69.9801 135.74 97.7201" stroke="#1E88E5" stroke-linejoin="round"/>
<path d="M170.37 66.4798C170.37 66.4798 162.79 61.1798 153.83 60.0298" stroke="#1E88E5" stroke-linejoin="round"/>
<path d="M157.92 70.77C151.898 70.9775 145.908 71.7238 140.02 73" stroke="#1E88E5" stroke-linejoin="round"/>
<path d="M146.569 81.4399C146.569 81.4399 140.159 83.4399 136.369 85.1799" stroke="#1E88E5" stroke-linejoin="round"/>
<path d="M148.471 79.25C148.471 79.25 149.261 86.65 149.631 92.19" stroke="#1E88E5" stroke-linejoin="round"/>
<path d="M159.14 70C159.14 70 159.08 80.51 159.66 87.29" stroke="#1E88E5" stroke-linejoin="round"/>
<path d="M173.18 66.6104C173.18 66.6104 176.01 70.8704 175.31 78.9104" stroke="#1E88E5" stroke-linejoin="round"/>
<path d="M300.301 40.7598C284.021 31.6798 269.301 30.9798 258.681 37.1698C253.541 40.1698 224.141 56.9798 219.001 59.9698L219.251 59.8298C208.091 66.1698 201.251 79.9898 201.501 99.6498V100.25L260.221 201.34L260.781 201.67C261.291 201.96 261.781 202.26 262.311 202.54C278.741 211.69 293.521 212.33 304.201 205.97L303.941 206.13C309.081 203.13 338.481 186.32 343.621 183.33C354.621 176.93 361.361 163.16 361.121 143.65C360.661 105.3 333.471 59.2498 300.301 40.7598Z" fill="#D4F4F8" stroke="#1E88E5" stroke-linejoin="round"/>
<path d="M311.801 161.12L260.191 74.3997C232.081 58.7397 209.621 72.3997 210.021 105.03C210.421 137.66 233.531 176.72 261.641 192.39C289.751 208.06 312.211 194.34 311.811 161.76L311.801 161.12Z" fill="#D4F4F8" stroke="#1E88E5" stroke-linejoin="round"/>
<path d="M315.38 159.04C315.78 191.26 293.56 204.82 265.76 189.33C237.96 173.84 215.11 135.16 214.76 102.94C214.41 70.7198 236.58 57.1598 264.38 72.6498C292.18 88.1398 314.99 126.82 315.38 159.04Z" fill="white" stroke="#1E88E5" stroke-linejoin="round"/>
<path d="M263.65 134.25L263.72 140.49C263.756 140.991 263.908 141.478 264.165 141.91C264.422 142.342 264.777 142.709 265.2 142.98C266 143.42 266.64 143.03 266.63 142.11L266.55 135.87C266.042 135.818 265.551 135.658 265.11 135.4C264.571 135.088 264.08 134.701 263.65 134.25ZM264.52 87.2498C263.72 86.7998 263.07 87.1898 263.08 88.1298L263.55 126.13C264.062 126.187 264.556 126.35 265 126.61C265.538 126.915 266.027 127.299 266.45 127.75L265.99 89.7498C265.959 89.2483 265.809 88.7614 265.554 88.3287C265.298 87.896 264.944 87.5297 264.52 87.2598" fill="#1E88E5"/>
<path d="M265.04 129.94C264.53 129.66 264.14 129.94 264.14 130.49C264.163 130.803 264.259 131.106 264.42 131.376C264.582 131.645 264.805 131.872 265.07 132.04C265.57 132.32 265.97 132.04 265.96 131.5C265.941 131.186 265.847 130.881 265.687 130.61C265.527 130.339 265.306 130.109 265.04 129.94ZM262.14 126.53C261.827 126.83 261.584 127.197 261.432 127.604C261.28 128.011 261.221 128.447 261.26 128.88C261.271 129.188 261.301 129.495 261.35 129.8L256.82 130.19C256.24 130.24 256.03 130.98 256.37 131.85C256.574 132.394 256.95 132.858 257.44 133.17C257.62 133.273 257.824 133.325 258.03 133.32L262.61 132.92C262.903 133.389 263.237 133.831 263.61 134.24C264.04 134.691 264.532 135.078 265.07 135.39C265.511 135.648 266.002 135.808 266.51 135.86C266.713 135.885 266.918 135.885 267.12 135.86L265.91 133.61C265.604 133.601 265.305 133.515 265.04 133.36C264.459 132.981 263.975 132.47 263.627 131.869C263.28 131.268 263.079 130.593 263.04 129.9C263.015 129.508 263.124 129.12 263.35 128.8L262.14 126.56M285 128C284.826 127.894 284.625 127.839 284.42 127.84L267.62 129.25C267.287 128.702 266.895 128.192 266.45 127.73C266.027 127.279 265.538 126.895 265 126.59C264.556 126.33 264.062 126.167 263.55 126.11C263.312 126.089 263.072 126.109 262.84 126.17L264.05 128.4C264.402 128.378 264.751 128.465 265.05 128.65C265.641 129.024 266.134 129.532 266.491 130.134C266.847 130.735 267.056 131.412 267.1 132.11C267.118 132.319 267.092 132.53 267.025 132.73C266.958 132.929 266.851 133.113 266.71 133.27L267.92 135.5C268.26 135.205 268.523 134.833 268.688 134.416C268.854 133.998 268.916 133.547 268.87 133.1C268.87 132.858 268.85 132.618 268.81 132.38L285.66 130.94C286.24 130.88 286.44 130.15 286.11 129.28C285.906 128.732 285.527 128.268 285.03 127.96" fill="#1E88E5"/>
<path d="M265.68 84L265.61 78.57C265.583 78.1534 265.459 77.749 265.247 77.3894C265.035 77.0298 264.741 76.7251 264.39 76.5C263.72 76.13 263.18 76.45 263.19 77.22L263.26 82.65C263.287 83.0688 263.413 83.4752 263.627 83.8365C263.84 84.1978 264.136 84.5038 264.49 84.73C265.15 85.1 265.69 84.77 265.68 84Z" fill="#1E88E5"/>
<path d="M286.16 102.45L288.45 99.0601C288.585 98.6926 288.612 98.2943 288.529 97.9117C288.446 97.5292 288.255 97.1783 287.98 96.9001C287.809 96.6885 287.603 96.509 287.37 96.3701C287.218 96.2624 287.031 96.2151 286.846 96.2373C286.662 96.2595 286.492 96.3496 286.37 96.4901L284.09 99.8801C283.957 100.25 283.931 100.649 284.014 101.032C284.097 101.416 284.286 101.768 284.56 102.05C284.726 102.259 284.929 102.435 285.16 102.57C285.54 102.8 285.95 102.78 286.16 102.45Z" fill="#1E88E5"/>
<path d="M300.4 128.41C300.581 128.519 300.79 128.571 301 128.56L305 128.1C305.58 128.04 305.76 127.29 305.42 126.44C305.22 125.904 304.847 125.451 304.36 125.15C304.181 125.038 303.971 124.985 303.76 125L299.76 125.45C299.18 125.52 299 126.27 299.33 127.12C299.543 127.651 299.917 128.102 300.4 128.41Z" fill="#1E88E5"/>
<path d="M310.841 155.11L306.161 152.51C305.491 152.13 304.961 152.51 304.971 153.24C304.995 153.658 305.12 154.065 305.334 154.425C305.548 154.785 305.845 155.088 306.201 155.31L310.871 157.92C311.541 158.29 312.081 157.92 312.071 157.19C312.044 156.771 311.918 156.364 311.705 156.003C311.491 155.641 311.195 155.336 310.841 155.11Z" fill="#1E88E5"/>
<path d="M301.55 173.79C301.379 173.581 301.173 173.405 300.94 173.27C300.789 173.16 300.602 173.111 300.416 173.134C300.231 173.156 300.06 173.248 299.94 173.39C299.807 173.758 299.781 174.156 299.864 174.538C299.947 174.92 300.136 175.271 300.41 175.55L304.49 180.55C304.662 180.757 304.868 180.933 305.1 181.07C305.52 181.31 305.92 181.28 306.1 180.96C306.237 180.591 306.265 180.191 306.182 179.806C306.099 179.422 305.907 179.069 305.63 178.79L301.55 173.79Z" fill="#1E88E5"/>
<path d="M287.159 183.61C286.956 183.079 286.583 182.629 286.099 182.33C285.92 182.218 285.71 182.165 285.499 182.18C284.929 182.25 284.739 182.99 285.079 183.85L287.479 189.85C287.682 190.382 288.055 190.832 288.539 191.13C288.719 191.242 288.928 191.297 289.139 191.29C289.709 191.22 289.899 190.47 289.549 189.61L287.159 183.61Z" fill="#1E88E5"/>
<path d="M265.62 177.25C264.95 176.87 264.42 177.25 264.43 177.98L264.49 183.4C264.518 183.819 264.643 184.225 264.857 184.587C265.071 184.948 265.366 185.254 265.72 185.48C266.39 185.85 266.92 185.48 266.91 184.74L266.84 179.32C266.818 178.903 266.696 178.496 266.483 178.136C266.271 177.775 265.975 177.472 265.62 177.25Z" fill="#1E88E5"/>
<path d="M244.979 159.41C244.559 159.18 244.159 159.2 243.979 159.53L241.699 162.92C241.562 163.289 241.534 163.689 241.617 164.074C241.7 164.458 241.892 164.811 242.169 165.09C242.336 165.298 242.539 165.475 242.769 165.61C243.189 165.84 243.589 165.82 243.769 165.49L246.049 162.1C246.186 161.731 246.215 161.331 246.132 160.946C246.048 160.562 245.857 160.209 245.579 159.93C245.413 159.721 245.21 159.545 244.979 159.41Z" fill="#1E88E5"/>
<path d="M229.711 133.57C229.53 133.462 229.321 133.41 229.111 133.42L225.111 133.88C224.531 133.94 224.351 134.69 224.691 135.55C224.894 136.082 225.266 136.532 225.751 136.83C225.93 136.942 226.14 136.995 226.351 136.98L230.351 136.53C230.921 136.46 231.111 135.72 230.771 134.86C230.57 134.325 230.197 133.871 229.711 133.57Z" fill="#1E88E5"/>
<path d="M225.139 108.75C225.114 108.331 224.989 107.923 224.775 107.562C224.561 107.2 224.264 106.894 223.909 106.67L219.229 104.06C218.559 103.69 218.029 104.06 218.039 104.79C218.067 105.207 218.192 105.613 218.404 105.974C218.616 106.335 218.909 106.641 219.259 106.87L223.939 109.47C224.609 109.85 225.139 109.52 225.139 108.75Z" fill="#1E88E5"/>
<path d="M228.56 88.1901C228.727 88.3989 228.93 88.5752 229.16 88.7101C229.58 88.9401 229.98 88.9201 230.16 88.5901C230.303 88.2238 230.334 87.8235 230.251 87.4393C230.167 87.0551 229.972 86.7041 229.69 86.4301L225.61 81.4301C225.443 81.2187 225.236 81.0421 225 80.9101C224.59 80.6801 224.18 80.7001 224 81.0301C223.853 81.4055 223.819 81.816 223.902 82.2107C223.986 82.6053 224.183 82.9668 224.47 83.2501L228.56 88.1901Z" fill="#1E88E5"/>
<path d="M244 79.66C244.182 79.7651 244.391 79.8138 244.6 79.8C245.18 79.74 245.37 78.99 245.02 78.14L242.63 72.14C242.427 71.6085 242.054 71.1587 241.57 70.86C241.39 70.7509 241.181 70.6987 240.97 70.71C240.39 70.77 240.21 71.52 240.55 72.38L242.94 78.38C243.155 78.9048 243.525 79.3514 244 79.66Z" fill="#1E88E5"/>
<path d="M265.069 132.04C264.803 131.873 264.581 131.645 264.419 131.376C264.258 131.107 264.162 130.803 264.139 130.49C264.139 129.9 264.529 129.66 265.039 129.94C265.305 130.109 265.526 130.339 265.686 130.61C265.846 130.881 265.939 131.186 265.959 131.5C265.959 132.08 265.569 132.32 265.069 132.04ZM259.159 119.64C259.109 119.617 259.055 119.604 258.999 119.604C258.944 119.604 258.889 119.617 258.839 119.64C258.639 119.73 258.619 120.08 258.839 120.41L262.169 126.57L263.379 128.81C263.153 129.13 263.043 129.518 263.069 129.91C263.107 130.603 263.308 131.278 263.656 131.879C264.003 132.48 264.488 132.991 265.069 133.37C265.333 133.525 265.633 133.612 265.939 133.62L267.149 135.87L289.049 176.38C289.134 176.538 289.258 176.672 289.409 176.77C289.459 176.793 289.514 176.805 289.569 176.805C289.625 176.805 289.679 176.793 289.729 176.77C289.929 176.68 289.939 176.33 289.729 176L267.839 135.51L266.679 133.25C266.82 133.093 266.927 132.909 266.994 132.71C267.061 132.511 267.086 132.3 267.069 132.09C267.025 131.392 266.816 130.715 266.459 130.114C266.103 129.512 265.61 129.004 265.019 128.63C264.72 128.446 264.37 128.358 264.019 128.38L262.809 126.15L259.489 120.01C259.408 119.846 259.284 119.708 259.129 119.61" fill="#F44336"/>
<path d="M320.32 166.5C320.78 204.5 294.57 220.5 261.76 202.25C228.95 184 201.98 138.32 201.47 100.25C200.96 62.1801 227.22 46.2501 260.03 64.5001C292.84 82.7501 319.85 128.47 320.32 166.5ZM311.81 161.76C311.41 129.18 288.3 90.0701 260.19 74.4001C232.08 58.7301 209.62 72.4001 210.02 105.03C210.42 137.66 233.53 176.72 261.64 192.39C289.75 208.06 312.21 194.34 311.81 161.76Z" fill="#D4F4F8" stroke="#1E88E5" stroke-linejoin="round"/>
<path d="M247.469 252.59L259.469 231.9L277.369 218.17L293.369 239.08L272.169 255.37L252.589 259.58C251.649 256.767 249.852 254.319 247.449 252.58L247.469 252.59Z" fill="#F7A9A0" stroke="#1E88E5" stroke-linejoin="round"/>
<path d="M247.47 252.59C249.872 254.329 251.67 256.777 252.61 259.59L242.08 261.86L247.47 252.59Z" fill="#1E88E5" stroke="#1E88E5" stroke-linejoin="round"/>
<path d="M331.47 176.66C330.094 177.714 328.938 179.028 328.07 180.528C327.202 182.028 326.639 183.684 326.411 185.402C326.184 187.121 326.297 188.867 326.744 190.541C327.192 192.215 327.965 193.785 329.02 195.16C331.149 197.937 334.294 199.755 337.763 200.215C341.232 200.674 344.741 199.737 347.52 197.61L365.27 184.01C368.046 181.878 369.863 178.731 370.32 175.26C370.778 171.789 369.839 168.279 367.71 165.5C366.656 164.125 365.341 162.97 363.84 162.103C362.34 161.236 360.684 160.673 358.965 160.447C357.247 160.22 355.502 160.334 353.828 160.783C352.154 161.231 350.585 162.005 349.21 163.06L331.47 176.66Z" fill="#F44336" stroke="#1E88E5" stroke-linejoin="round"/>
<path d="M259.47 231.9L338.91 171.01L334.97 178.42L257.85 237.55C261.65 233.96 262.47 230.84 259.47 231.9Z" fill="white" stroke="#1E88E5" stroke-linejoin="round"/>
<path d="M257.85 237.55L334.99 178.42L341.38 190.12L264.27 249.25C264.725 248.064 264.917 246.793 264.831 245.526C264.745 244.258 264.384 243.025 263.773 241.911C263.162 240.797 262.316 239.83 261.293 239.077C260.27 238.324 259.095 237.803 257.85 237.55Z" fill="#D4F4F8" stroke="#1E88E5" stroke-linejoin="round"/>
<path d="M264.27 249.25L341.38 190.14L351.71 194.43L272.26 255.32C274.02 252.77 270.04 247.65 264.27 249.25Z" fill="white" stroke="#1E88E5" stroke-linejoin="round"/>
<path d="M346.13 165.48L338.93 171L335 178.42L342.19 172.9L346.13 165.48Z" fill="#26C6DA" stroke="#1E88E5" stroke-linejoin="round"/>
<path d="M342.19 172.9L335 178.42L341.38 190.12L348.58 184.6L342.19 172.9Z" fill="#26C6DA" stroke="#1E88E5" stroke-linejoin="round"/>
<path d="M348.581 184.6L341.381 190.12L351.711 194.4L358.911 188.88L348.581 184.6Z" fill="#26C6DA" stroke="#1E88E5" stroke-linejoin="round"/>
<path d="M102.27 130.76L0.759766 131.06V141.42C0.759766 148.52 5.20977 155.62 14.1498 161.23C33.1498 173.15 65.2298 173.87 85.8598 162.85C96.7698 157.02 102.29 149.07 102.27 141.12V130.76Z" fill="#D4F4F8" stroke="#1E88E5" stroke-linejoin="round"/>
<path d="M85.8608 152.49C65.2308 163.49 33.1208 162.79 14.1508 150.88C-4.8192 138.97 -3.4692 120.36 17.1508 109.33C37.7708 98.3 69.8908 99.03 88.8608 110.95C107.831 122.87 106.471 141.46 85.8608 152.49Z" fill="#D4F4F8" stroke="#1E88E5" stroke-linejoin="round"/>
<path d="M92.5601 122.33C92.4301 121.33 92.0801 120.03 91.8401 119.05C91.316 117.23 90.6815 115.443 89.9401 113.7C89.5801 112.83 88.9401 111.7 88.5301 110.89C87.213 108.509 85.644 106.276 83.8501 104.23C81.9223 102.018 79.7746 100.008 77.4401 98.2299C76.4401 97.4599 75.0401 96.4899 73.9601 95.8299C72.6201 95.0099 70.7801 93.9799 69.3801 93.2699C66.6293 91.9409 63.785 90.8145 60.8701 89.8999C59.9801 89.6498 59.1161 89.315 58.2901 88.8999C57.4376 88.4267 56.6453 87.8526 55.9301 87.1899C57.2601 88.4299 56.9301 90.0799 55.0101 91.0999C53.8296 91.6706 52.5305 91.9528 51.2196 91.9233C49.9087 91.8937 48.6236 91.5532 47.4701 90.9299C45.8101 89.9299 45.6301 88.3699 46.8601 87.2099C46.1263 87.9053 45.3063 88.5036 44.4201 88.9899C43.6037 89.3955 42.7539 89.7301 41.8801 89.9899C38.5207 91.0418 35.2667 92.4044 32.1601 94.0599C30.3821 95.0265 28.6594 96.0915 27.0001 97.2499C25.8901 98.0499 24.4501 99.1799 23.3901 100.06C22.7201 100.61 21.9001 101.44 21.2601 102.06C20.0971 103.183 19.0145 104.386 18.0201 105.66C17.0201 106.89 15.9101 108.66 15.0201 109.93C13.3271 112.783 12.0254 115.85 11.1501 119.05C10.6301 121.242 10.2394 123.462 9.98008 125.7C9.84008 126.75 9.88008 128.17 9.83008 129.23C9.83008 135.05 13.4801 140.87 20.8301 145.48C36.3801 155.26 62.7201 155.85 79.6401 146.8C88.5901 142.02 93.1101 135.51 93.0901 128.98C93.0501 126.96 92.8201 124.31 92.5601 122.33Z" fill="white" stroke="#1E88E5" stroke-linejoin="round"/>
<path d="M79.4702 66.34C62.5502 75.34 36.2202 74.8 20.6602 65.02C13.8302 60.73 10.2202 55.39 9.74023 49.97C9.81744 51.7875 9.98767 53.5999 10.2502 55.4C10.573 57.321 11.058 59.2111 11.7002 61.05C12.412 63.0427 13.2745 64.9783 14.2802 66.84C15.0602 68.17 16.1802 69.84 17.0702 71.15C17.5902 71.89 18.3602 72.82 18.9602 73.5C21.1302 75.93 27.7302 83.34 41.9602 87.78C42.8793 88.0417 43.7703 88.3934 44.6202 88.83C45.4588 89.2939 46.2379 89.858 46.9402 90.51C47.1241 90.6804 47.3252 90.8313 47.5402 90.96C48.6938 91.5833 49.9789 91.9238 51.2898 91.9533C52.6006 91.9829 53.8998 91.7007 55.0802 91.13C56.7267 89.5125 58.7567 88.3392 60.9802 87.72C62.9802 87.05 64.6202 86.46 66.2202 85.78C67.6002 85.21 69.3702 84.32 70.7002 83.65C72.4841 82.701 74.2074 81.6423 75.8602 80.48C78.4096 78.6973 80.7568 76.6418 82.8602 74.35C84.1834 72.8519 85.4284 71.2865 86.5902 69.66C87.4802 68.36 88.4802 66.49 89.2202 65.1C90.2185 63.0499 91.022 60.9105 91.6202 58.71C92.0602 56.71 92.5302 54.06 92.7902 52.05C92.9302 51 92.8902 49.58 92.9402 48.52C92.9302 55.05 88.4002 61.56 79.4702 66.34Z" fill="white" stroke="#1E88E5" stroke-linejoin="round"/>
<path d="M9.72015 49.97C9.72015 49.56 9.72016 49.15 9.66016 48.77C9.66016 49.17 9.68015 49.57 9.72015 49.97Z" fill="white" stroke="#1E88E5" stroke-linejoin="round"/>
<path d="M102 36.3101L0.5 36.6101V46.9601C0.5 54.0601 4.94001 61.1601 13.88 66.7801C32.88 78.6901 64.96 79.4201 85.59 68.3901C96.5 62.5601 102.02 54.6201 102 46.6601V36.3101Z" fill="#D4F4F8" stroke="#1E88E5" stroke-linejoin="round"/>
<path d="M85.5897 58.0403C64.9597 69.0403 32.8497 68.3403 13.8797 56.4303C-5.09031 44.5203 -3.73031 25.9103 16.8797 14.8803C37.4897 3.85032 69.6197 4.58032 88.5897 16.5003C107.56 28.4203 106.23 47.0103 85.5897 58.0403Z" fill="#D4F4F8" stroke="#1E88E5" stroke-linejoin="round"/>
<path d="M85.2291 131.45C84.4555 131.451 83.7115 131.153 83.1525 130.618C82.5935 130.083 82.2626 129.353 82.2291 128.58C82.1491 126.97 81.9691 124.82 81.7591 123.24C81.7091 122.86 81.4491 121.86 81.3291 121.38L81.2591 121.12C80.8607 119.761 80.3866 118.426 79.8391 117.12C79.7391 116.89 79.4191 116.27 79.2191 115.9L78.8491 115.19C78.1488 113.947 77.3531 112.76 76.4691 111.64C76.0125 111.013 75.8166 110.233 75.9227 109.464C76.0288 108.696 76.4286 107.998 77.0382 107.518C77.6478 107.038 78.4196 106.812 79.1918 106.889C79.9639 106.966 80.6762 107.339 81.1791 107.93C82.299 109.347 83.3023 110.852 84.1791 112.43L84.5091 113.07C84.8339 113.651 85.1276 114.248 85.3891 114.86C86.0435 116.399 86.6078 117.975 87.0791 119.58L87.1391 119.84C87.3777 120.685 87.568 121.543 87.7091 122.41C87.9391 124.17 88.1391 126.47 88.2191 128.26C88.2544 129.054 87.973 129.83 87.4368 130.417C86.9005 131.004 86.1533 131.354 85.3591 131.39L85.2291 131.45Z" fill="white" stroke="#1E88E5" stroke-linejoin="round"/>
<path d="M73.0908 107.16C72.4153 107.159 71.7599 106.93 71.2308 106.51L70.7308 106.12C70.1009 105.633 69.6901 104.916 69.5889 104.127C69.4876 103.337 69.7041 102.54 70.1908 101.91C70.6774 101.28 71.3944 100.869 72.1839 100.768C72.9735 100.667 73.7709 100.883 74.4008 101.37L74.9608 101.8C75.4529 102.186 75.812 102.717 75.9878 103.317C76.1636 103.917 76.1473 104.558 75.9413 105.148C75.7352 105.739 75.3496 106.25 74.8385 106.611C74.3274 106.972 73.7163 107.164 73.0908 107.16Z" fill="white" stroke="#1E88E5" stroke-linejoin="round"/>
<path d="M18.8392 123.4C18.5755 123.397 18.3133 123.36 18.0591 123.29C17.2918 123.084 16.6376 122.582 16.2402 121.894C15.8427 121.206 15.7345 120.388 15.9392 119.62C16.706 116.817 17.8391 114.127 19.3091 111.62C20.3091 110.12 21.2392 108.71 21.9292 107.83C22.7948 106.722 23.7371 105.676 24.7492 104.7C25.3392 104.202 26.0983 103.951 26.8688 103.999C27.6393 104.047 28.3617 104.389 28.8859 104.956C29.41 105.523 29.6956 106.27 29.6832 107.041C29.6708 107.813 29.3613 108.551 28.8192 109.1C28.0428 109.865 27.3179 110.68 26.6492 111.54C26.0792 112.26 25.2192 113.54 24.3992 114.8C23.2431 116.79 22.349 118.921 21.7391 121.14C21.575 121.785 21.2009 122.357 20.6759 122.766C20.1509 123.176 19.5048 123.399 18.8392 123.4Z" fill="white" stroke="#1E88E5" stroke-linejoin="round"/>
</g>
<defs>
<clipPath id="clip0_1483_2036">
<rect width="370.95" height="342.5" fill="white"/>
</clipPath>
</defs>
</svg>
