<svg width="80" height="60" viewBox="0 0 80 60" fill="none" xmlns="http://www.w3.org/2000/svg">
<path fill-rule="evenodd" clip-rule="evenodd" d="M69.4568 54.3703C69.6556 54.3966 69.8543 54.4237 70.0529 54.4516L71.0558 54.5923C75.4221 55.205 79.3287 51.877 79.3287 47.5445V44.238C79.3287 41.1395 77.3456 38.3755 74.3749 37.3333C70.9436 36.1295 67.4012 35.3457 63.8253 34.9816C67.5575 37.6801 69.8723 42.0496 69.8723 46.8166V50.9218C69.8723 52.1141 69.728 53.2686 69.4568 54.3703ZM54.3281 30.5835C55.815 31.1971 57.4482 31.5361 59.162 31.5361C66.0601 31.5361 71.6522 26.0432 71.6522 19.2673C71.6522 12.4915 66.0601 6.99854 59.162 6.99854C58.9585 6.99854 58.7561 7.00332 58.555 7.01277C59.8095 9.68442 60.5106 12.6675 60.5106 15.8143C60.5106 21.5952 58.1446 26.8234 54.3281 30.5835Z" fill="#448AFF"/>
<path fill-rule="evenodd" clip-rule="evenodd" d="M9.93382 54.3712C9.73504 54.3976 9.53633 54.4247 9.33771 54.4526L8.33485 54.5933C3.96849 55.206 0.0619736 51.878 0.0619736 47.5455V44.239C0.0619736 41.1405 2.04499 38.3764 5.0157 37.3343C8.44701 36.1305 11.9894 35.3466 15.5653 34.9826C11.8332 37.681 9.51834 42.0505 9.51834 46.8176V50.9227C9.51834 52.115 9.66263 53.2696 9.93382 54.3712ZM25.0625 30.5845C23.5757 31.198 21.9425 31.5371 20.2287 31.5371C13.3305 31.5371 7.73843 26.0442 7.73843 19.2683C7.73843 12.4924 13.3305 6.99951 20.2287 6.99951C20.4322 6.99951 20.6345 7.00429 20.8357 7.01375C19.5812 9.68539 18.8801 12.6685 18.8801 15.8153C18.8801 21.5961 21.2461 26.8244 25.0625 30.5845Z" fill="#3F51B5"/>
<path fill-rule="evenodd" clip-rule="evenodd" d="M55.0098 15.8153C55.0098 7.40273 48.1901 0.583008 39.7775 0.583008C31.365 0.583008 24.5453 7.40273 24.5453 15.8153C24.5453 24.2278 31.365 31.0475 39.7775 31.0475C48.1901 31.0475 55.0098 24.2278 55.0098 15.8153Z" fill="#00BCD4"/>
<path fill-rule="evenodd" clip-rule="evenodd" d="M21.2248 38.245C33.2222 33.9603 46.3329 33.9603 58.3303 38.245C61.9532 39.5389 64.3715 42.9706 64.3715 46.8176V50.9227C64.3715 56.3017 59.6074 60.4336 54.2825 59.6729L53.0594 59.4982C44.2496 58.2396 35.3055 58.2396 26.4957 59.4982L25.2727 59.6729C19.9477 60.4336 15.1836 56.3017 15.1836 50.9227V46.8176C15.1836 42.9706 17.602 39.5389 21.2248 38.245Z" fill="#00BCD4"/>
</svg>
