<svg width="734" height="435" viewBox="0 0 734 435" fill="none" xmlns="http://www.w3.org/2000/svg">
<path d="M516.171 92.8574C514.262 131.528 537.304 148.592 566.692 150.042C596.079 151.492 620.688 136.781 622.594 98.1078C624.501 59.4346 573.602 10 573.602 10C573.602 10 518.08 54.1867 516.171 92.8574Z" fill="#D4F4F8"/>
<path d="M562.742 230.376C562.737 230.376 562.734 230.376 562.73 230.376C562.598 230.369 562.495 230.256 562.502 230.125L571.97 38.2514C571.977 38.1198 572.084 38.017 572.221 38.0242C572.352 38.0313 572.455 38.1438 572.448 38.2753L562.981 230.149C562.974 230.275 562.868 230.376 562.742 230.376Z" fill="#D3BBA3"/>
<path d="M566.694 150.281C566.617 150.281 566.541 150.243 566.495 150.176L533.761 101.356C533.687 101.246 533.718 101.098 533.826 101.024C533.936 100.95 534.084 100.978 534.158 101.088L566.124 148.762L544.582 63.3838C544.551 63.2546 544.628 63.1255 544.755 63.0944C544.884 63.0609 545.013 63.1398 545.044 63.269L566.923 149.985C566.952 150.097 566.895 150.214 566.789 150.262C566.761 150.274 566.727 150.281 566.694 150.281Z" fill="#D3BBA3"/>
<path d="M566.693 150.281C566.653 150.281 566.612 150.271 566.576 150.25C566.476 150.192 566.43 150.07 566.469 149.96L596.777 65.8209C596.823 65.6965 596.956 65.632 597.083 65.6774C597.208 65.7228 597.272 65.8592 597.227 65.9836L567.387 148.827L603.891 104.53C603.974 104.427 604.125 104.413 604.228 104.497C604.331 104.58 604.345 104.731 604.262 104.834L566.88 150.195C566.832 150.252 566.763 150.281 566.693 150.281Z" fill="#D3BBA3"/>
<path d="M599.282 112.165C590.733 137.377 602.753 153.001 621.912 159.497C641.072 165.994 660.117 160.904 668.666 135.69C677.214 110.479 652.872 68.1963 652.872 68.1963C652.872 68.1963 607.831 86.9516 599.282 112.165Z" fill="#1E88E5"/>
<path d="M604.208 211.955C604.182 211.955 604.158 211.951 604.131 211.943C604.007 211.9 603.94 211.764 603.981 211.64L646.395 86.5473C646.438 86.423 646.574 86.356 646.699 86.3966C646.823 86.4397 646.89 86.5761 646.849 86.7004L604.435 211.793C604.402 211.891 604.308 211.955 604.208 211.955Z" fill="#D3BBA3"/>
<path d="M621.911 159.737C621.808 159.737 621.715 159.672 621.684 159.572L609.236 121.121C609.196 120.994 609.265 120.86 609.389 120.819C609.514 120.779 609.65 120.848 609.691 120.973L621.713 158.112L623.543 98.0265C623.547 97.8949 623.669 97.7921 623.789 97.7945C623.92 97.7993 624.026 97.9093 624.021 98.0408L622.148 159.505C622.143 159.622 622.057 159.718 621.942 159.734C621.933 159.737 621.923 159.737 621.911 159.737Z" fill="#D3BBA3"/>
<path d="M621.914 159.737C621.852 159.737 621.79 159.713 621.744 159.665C621.663 159.581 621.653 159.452 621.72 159.359L657.616 109.431C657.693 109.324 657.843 109.3 657.951 109.376C658.059 109.453 658.083 109.603 658.006 109.711L622.916 158.519L655.047 136.35C655.155 136.276 655.306 136.303 655.38 136.413C655.454 136.52 655.428 136.671 655.32 136.745L622.055 159.696C622.01 159.722 621.962 159.737 621.914 159.737Z" fill="#D3BBA3"/>
<path d="M701.617 435C701.617 435 653.91 435 631.556 435V378.109H629.194L625.171 435H558.617L575.826 315.393L689.844 315L701.617 435Z" fill="#363E44"/>
<path d="M591.564 234.244C590.251 236.291 551.434 238.303 527.912 239.338C517.32 239.805 507.575 233.586 503.535 223.783C499.526 214.06 503.767 202.897 513.22 198.288L567.824 171.66L591.564 234.244Z" fill="#D4F4F8"/>
<path d="M696.594 279.837L707.686 278.313C722.195 281.396 733.318 269.893 733.234 255.061C733.146 239.14 725.114 212.03 705.892 180.968C694.264 162.179 672.294 152.448 650.563 156.445L567.823 171.663L566.85 326.004L699.555 321.758L696.594 279.837Z" fill="#D4F4F8"/>
<path d="M677.091 227.283C676.986 227.283 676.89 227.214 676.862 227.106L670.903 205.346C670.868 205.22 670.944 205.088 671.071 205.052C671.198 205.016 671.329 205.093 671.365 205.22L677.323 226.979C677.359 227.106 677.283 227.238 677.156 227.273C677.132 227.281 677.111 227.283 677.091 227.283Z" fill="#363E44"/>
<path d="M677.174 240.135C677.134 240.135 677.09 240.125 677.055 240.102C676.94 240.035 676.902 239.889 676.969 239.774C683.161 229.211 693.133 227.034 700.41 227.068C708.27 227.104 714.761 229.663 714.826 229.689C714.948 229.737 715.008 229.878 714.96 230C714.91 230.122 714.771 230.182 714.649 230.134C714.584 230.108 708.167 227.58 700.395 227.549C700.347 227.549 700.297 227.549 700.249 227.549C693.117 227.549 683.415 229.728 677.382 240.02C677.337 240.094 677.256 240.135 677.174 240.135Z" fill="#363E44"/>
<path d="M567.414 235.975L567.507 221.097L567.414 235.975Z" fill="#8B865C"/>
<path d="M541.712 200.967C541.712 200.967 523.973 172.345 513.628 156.335C502.766 139.52 484.279 116.275 481.059 118.903C479.227 120.401 481.093 124.092 486.735 133.626C485.967 133.43 483.496 133.408 482.023 135.076C479.844 137.542 481.353 139.85 481.389 140.115C481.136 140.027 478.179 139.183 476.44 140.587C474.481 142.168 474.318 144.299 474.852 146.203C474.213 146.004 471.364 145.612 469.764 147.045C467.683 148.908 468.291 151.939 469.57 153.86C471.919 157.378 478.576 166.836 481.456 172.287C487.127 183.015 499.692 229.967 517.45 233.67C530.833 236.459 547.041 219.227 541.712 200.967Z" fill="#F7A9A0"/>
<path d="M477.802 157.888C476.553 157.888 475.096 157.314 473.664 155.878C473.57 155.785 473.57 155.634 473.664 155.541C473.757 155.448 473.908 155.448 474.001 155.541C476.431 157.971 478.656 157.687 479.823 156.704C480.997 155.716 480.792 153.656 480.005 152.221C479.931 152.087 479.964 151.922 480.086 151.831C480.208 151.738 480.376 151.75 480.486 151.855C482.294 153.611 484.612 153.838 486.248 152.42C487.499 151.338 487.604 148.597 486.468 146.784C486.391 146.662 486.415 146.507 486.525 146.413C486.635 146.32 486.793 146.325 486.901 146.421C488.817 148.169 491.862 148.375 493.007 147.315C493.653 146.72 493.981 146.002 494.01 145.122C494.122 141.701 489.585 136.922 487.147 134.353C486.97 134.167 486.803 133.99 486.647 133.825C486.556 133.729 486.561 133.578 486.657 133.487C486.753 133.396 486.906 133.401 486.994 133.497C487.15 133.66 487.315 133.837 487.494 134.023C489.979 136.642 494.605 141.515 494.486 145.136C494.452 146.136 494.062 146.987 493.328 147.664C492.163 148.741 489.388 148.746 487.276 147.32C488.063 149.253 487.793 151.709 486.559 152.776C484.932 154.185 482.634 154.13 480.756 152.711C481.328 154.228 481.304 156.077 480.129 157.065C479.529 157.577 478.72 157.888 477.802 157.888Z" fill="#363E44"/>
<path d="M487.084 141.493C488.383 139.082 498.482 142.165 500.357 142.751L497.985 153.742C497.076 153.058 485.558 144.325 487.084 141.493Z" fill="#F7A9A0"/>
<path d="M497.985 153.982C497.935 153.982 497.885 153.965 497.841 153.934C495.734 152.35 485.298 144.301 486.874 141.381C488.161 138.996 496.782 141.386 500.43 142.524C500.556 142.562 500.626 142.699 500.587 142.823C500.547 142.95 500.413 143.019 500.288 142.981C494.605 141.209 488.209 139.917 487.298 141.608C486.142 143.751 493.878 150.358 498.131 153.553C498.236 153.632 498.258 153.783 498.179 153.888C498.131 153.948 498.059 153.982 497.985 153.982Z" fill="#363E44"/>
<path d="M677.925 254.528L672.792 260.381C672.792 260.381 670.795 261.275 667.281 262.282C628.527 273.393 595.199 244.17 601.148 204.296C601.686 200.682 602.313 198.584 602.313 198.584L607.446 192.731L677.925 254.528Z" fill="#D87355"/>
<path d="M670.575 255.74C670.549 255.74 670.52 255.736 670.493 255.726C656.398 250.633 643.928 243.386 633.432 234.184C622.937 224.982 614.122 213.568 607.233 200.256C607.174 200.139 607.219 199.996 607.336 199.934C607.453 199.874 607.597 199.919 607.659 200.036C621.384 226.549 642.579 245.134 670.659 255.274C670.783 255.319 670.847 255.456 670.802 255.58C670.764 255.678 670.673 255.74 670.575 255.74Z" fill="#363E44"/>
<path d="M605.615 191.363C605.56 191.363 605.502 191.344 605.457 191.303L581.568 170.359C581.468 170.273 581.458 170.12 581.547 170.022C581.633 169.922 581.786 169.912 581.884 170.001L605.773 190.945C605.873 191.031 605.883 191.184 605.794 191.282C605.746 191.337 605.682 191.363 605.615 191.363Z" fill="#363E44"/>
<path d="M598.527 199.446C598.47 199.446 598.412 199.426 598.367 199.383L570.029 173.964C569.931 173.875 569.922 173.725 570.01 173.627C570.099 173.529 570.249 173.521 570.347 173.608L598.685 199.027C598.783 199.115 598.792 199.266 598.704 199.364C598.659 199.419 598.594 199.446 598.527 199.446Z" fill="#363E44"/>
<path d="M637.07 288.462C651.682 272.826 680.008 244.041 680.008 244.041C680.008 244.041 688.303 234.476 699.409 234.686C704.846 234.789 710.206 236.212 714.842 238.535C727.397 244.826 730.361 261.402 720.951 271.826C705.573 288.857 675.607 310.547 667.228 318.493C662.181 323.277 653.275 334.208 650.202 337.827C648.527 339.801 645.195 339.863 642.94 338.48C640.746 337.139 640.378 334.352 640.359 333.598C638.419 334.756 635.859 335.036 633.336 333.393C631.095 331.936 631.025 328.664 631.028 328.362C630.743 328.482 628.523 330.702 624.921 329.09C622.486 328.001 621.764 325.435 621.694 324.542C620.446 325.045 618.305 325.334 615.54 323.617C611.316 320.993 611.751 315.556 637.07 288.462Z" fill="#F7A9A0"/>
<path d="M651.412 332.433C651.369 332.433 651.328 332.421 651.287 332.4L647.623 330.185C647.51 330.116 647.475 329.97 647.541 329.857C647.608 329.745 647.757 329.709 647.869 329.776L651.534 331.991C651.646 332.06 651.682 332.206 651.615 332.319C651.572 332.393 651.493 332.433 651.412 332.433Z" fill="#363E44"/>
<path d="M642.673 326.941C642.632 326.941 642.591 326.932 642.555 326.91L638.338 324.528C638.224 324.463 638.183 324.317 638.247 324.203C638.312 324.088 638.458 324.047 638.573 324.112L642.79 326.494C642.905 326.559 642.945 326.705 642.881 326.819C642.838 326.898 642.756 326.941 642.673 326.941Z" fill="#363E44"/>
<path d="M633.105 321.751C633.062 321.751 633.019 321.739 632.98 321.718C632.299 321.304 631.679 320.935 631.06 320.565C630.44 320.196 629.821 319.825 629.137 319.412C629.024 319.342 628.988 319.196 629.055 319.084C629.125 318.972 629.27 318.936 629.383 319.003C630.065 319.416 630.684 319.785 631.301 320.153C631.921 320.524 632.54 320.892 633.224 321.306C633.337 321.375 633.373 321.521 633.306 321.634C633.265 321.71 633.186 321.751 633.105 321.751Z" fill="#363E44"/>
<path d="M625.642 316.788C625.594 316.788 625.546 316.773 625.505 316.745L622.037 314.305C621.929 314.228 621.903 314.08 621.979 313.972C622.056 313.865 622.204 313.838 622.312 313.915L625.78 316.355C625.888 316.431 625.914 316.58 625.838 316.687C625.79 316.752 625.716 316.788 625.642 316.788Z" fill="#363E44"/>
<path d="M610.538 166.934L630.356 162.38L613.614 127.82C612.217 124.438 606.233 128.514 602.851 129.909C599.468 131.306 597.858 135.178 599.255 138.56L610.538 166.934Z" fill="#F7A9A0"/>
<path d="M614.92 173.956L635.615 160.621L616.194 157.002L605.17 166.85L614.92 173.956Z" fill="#F7A9A0"/>
<path d="M589.207 149.341C592.824 153.326 606.339 146.179 606.339 146.179L616.856 134.764C618.483 127.371 613.806 120.059 606.413 118.432C599.019 116.805 591.707 121.482 590.08 128.875C590.08 128.875 585.524 145.282 589.207 149.341Z" fill="#F7A9A0"/>
<path d="M590.847 132.734C590.847 132.734 586.226 135.841 586.197 136.924C586.164 138.216 590.18 139.893 590.18 139.893C590.18 139.893 590.745 132.722 590.847 132.734Z" fill="#F7A9A0"/>
<path d="M621.929 120.501C621.929 120.501 625.202 136.054 614.6 139.572L612.378 136.987L605.987 138.596L609.515 131.775C610.57 129.093 608.908 126.115 606.071 125.608L593.688 123.388L595.264 116.839C604.48 113.426 613.416 113.988 621.929 120.501Z" fill="#363E44"/>
<path d="M608.588 115.937C609.903 116.53 611.451 115.947 612.044 114.631C612.637 113.316 612.365 111.079 611.049 110.486C609.734 109.893 607.875 111.165 607.282 112.481C606.686 113.796 607.272 115.344 608.588 115.937Z" fill="#363E44"/>
<path d="M606.52 116.284C607.957 116.165 609.026 114.902 608.907 113.464C608.787 112.026 607.462 110.204 606.022 110.323C604.585 110.443 603.578 112.459 603.697 113.897C603.819 115.337 605.082 116.406 606.52 116.284Z" fill="#363E44"/>
<path d="M602.094 117.076C603.986 116.576 605.112 114.638 604.613 112.746C604.113 110.854 601.912 108.737 600.022 109.237C598.13 109.737 597.264 112.665 597.764 114.557C598.264 116.447 600.202 117.576 602.094 117.076Z" fill="#363E44"/>
<path d="M612.589 117.018C613.885 117.655 615.449 117.121 616.086 115.825C616.722 114.528 616.521 112.285 615.224 111.648C613.928 111.012 612.031 112.225 611.395 113.521C610.759 114.815 611.294 116.382 612.589 117.018Z" fill="#363E44"/>
<path d="M598.776 117.095C599.78 115.674 599.441 113.706 598.02 112.701C596.599 111.696 593.886 111.51 592.882 112.931C591.877 114.351 592.961 116.846 594.382 117.851C595.802 118.855 597.771 118.518 598.776 117.095Z" fill="#363E44"/>
<path d="M615.634 118.588C617.074 119.664 619.114 119.367 620.19 117.927C621.267 116.487 621.532 113.694 620.092 112.617C618.652 111.541 616.048 112.591 614.974 114.033C613.897 115.473 614.194 117.511 615.634 118.588Z" fill="#363E44"/>
<path d="M618.728 119.681C619.364 120.932 620.893 121.429 622.146 120.795C623.397 120.159 624.55 118.296 623.914 117.045C623.277 115.794 621.094 115.629 619.843 116.265C618.589 116.899 618.092 118.43 618.728 119.681Z" fill="#363E44"/>
<path d="M597.239 120.795C597.859 118.765 596.713 116.617 594.685 115.999C592.654 115.38 589.444 116.2 588.827 118.231C588.207 120.262 590.415 122.733 592.446 123.352C594.474 123.969 596.622 122.826 597.239 120.795Z" fill="#363E44"/>
<path d="M619.443 135.389C619.924 137.955 618.235 140.426 615.668 140.907C613.102 141.388 610.631 139.699 610.15 137.133C609.669 134.566 611.358 132.095 613.925 131.614C616.491 131.131 618.962 132.822 619.443 135.389Z" fill="#F7A9A0"/>
<path d="M588.095 138.845L587.074 150.31C586.933 151.905 588.148 153.295 589.748 153.369C590.15 153.388 590.587 153.402 591.049 153.414C599.077 153.591 606.626 149.609 611.008 142.883C612.476 140.629 612.4 137.704 610.816 135.53L610.295 134.812L607.85 135.563C607.85 135.563 604.942 141.325 602.554 141.309C600.172 141.29 596.302 138.572 588.095 138.845Z" fill="#363E44"/>
<path d="M593.399 143.222C592.833 143.222 592.273 143 591.859 142.581C591.766 142.488 591.766 142.337 591.859 142.244C591.952 142.151 592.103 142.151 592.196 142.244C592.665 142.715 593.366 142.871 593.983 142.639C594.579 142.416 595.002 141.859 595.067 141.223C595.079 141.091 595.191 140.995 595.327 141.007C595.459 141.019 595.555 141.137 595.543 141.268C595.461 142.084 594.916 142.799 594.153 143.086C593.909 143.179 593.653 143.222 593.399 143.222Z" fill="#F7A9A0"/>
<path d="M609.311 126.89C609.225 126.89 609.142 126.842 609.099 126.761C609.039 126.644 609.084 126.5 609.201 126.438L615.373 123.273C615.49 123.214 615.633 123.259 615.696 123.376C615.755 123.493 615.71 123.637 615.593 123.699L609.421 126.864C609.386 126.88 609.347 126.89 609.311 126.89Z" fill="#F7A9A0"/>
<path d="M463.593 344.011C467.693 342.312 469.641 337.611 467.942 333.51C466.243 329.409 461.542 327.462 457.441 329.16C453.34 330.859 451.393 335.56 453.091 339.661C454.79 343.762 459.492 345.71 463.593 344.011Z" fill="#EFBC73"/>
<path d="M462.554 344.857C457.99 344.857 454.277 341.145 454.277 336.581C454.277 332.017 457.99 328.305 462.554 328.305C467.117 328.305 470.83 332.017 470.83 336.581C470.83 341.145 467.117 344.857 462.554 344.857ZM462.554 328.781C458.253 328.781 454.756 332.28 454.756 336.579C454.756 340.877 458.253 344.377 462.554 344.377C466.854 344.377 470.351 340.877 470.351 336.579C470.351 332.28 466.854 328.781 462.554 328.781Z" fill="#363E44"/>
<path d="M473.983 390.001L548.84 342.149L534.105 319.101L527.391 315.915L526.884 307.803L520.452 297.743L445.596 345.594L452.028 355.655L458.352 358.721L459.249 366.952L473.983 390.001Z" fill="#D4F4F8"/>
<path d="M472.986 392.785L472.857 392.584L444.34 347.974L444.541 347.845L519.598 299.865L519.727 300.065L548.244 344.675L548.043 344.805L472.986 392.785ZM445.002 348.12L473.132 392.125L547.584 344.532L519.455 300.527L445.002 348.12Z" fill="#363E44"/>
<path d="M459.241 366.937L534.1 319.087L526.879 307.79L452.02 355.641L459.241 366.937Z" fill="#363E44"/>
<path d="M520.177 416.748C494.933 441.992 431.218 439.531 408.437 416.748C392.521 400.832 416.615 363.591 416.615 363.591C416.615 353.217 425.025 344.81 435.397 344.81H493.218C503.592 344.81 511.999 353.22 511.999 363.591V364.213C511.999 364.216 536.651 400.274 520.177 416.748Z" fill="#1E88E5"/>
<path d="M511.997 364.046C511.865 364.046 511.758 363.938 511.758 363.806V363.591C511.758 353.459 503.515 345.216 493.383 345.216H435.225C425.092 345.216 416.849 353.459 416.849 363.591C416.849 363.723 416.742 363.83 416.61 363.83C416.479 363.83 416.371 363.723 416.371 363.591C416.371 353.196 424.829 344.738 435.225 344.738H493.383C503.778 344.738 512.236 353.196 512.236 363.591V363.806C512.236 363.938 512.128 364.046 511.997 364.046Z" fill="#363E44"/>
<path d="M416.223 417.575C410.054 417.575 406.787 410.397 406.435 405.3C405.739 395.165 412.097 377.472 416.955 368.598L417.182 368.184L417.383 368.612C421.294 376.974 426.65 394.637 426.102 404.695C425.779 410.636 422.997 417.575 416.223 417.575ZM417.149 369.246C412.351 378.197 406.234 395.38 406.914 405.266C407.251 410.179 410.363 417.097 416.223 417.097C424.703 417.097 425.554 405.938 425.624 404.668C426.159 394.857 421.019 377.725 417.149 369.246Z" fill="#363E44"/>
<path d="M480.59 338.451C481.61 334.131 478.935 329.803 474.615 328.783C470.295 327.763 465.967 330.438 464.947 334.757C463.926 339.077 466.601 343.406 470.921 344.426C475.241 345.446 479.57 342.771 480.59 338.451Z" fill="#EFBC73"/>
<path d="M474.819 344.857C470.255 344.857 466.543 341.145 466.543 336.581C466.543 332.017 470.255 328.305 474.819 328.305C479.383 328.305 483.095 332.017 483.095 336.581C483.095 341.145 479.383 344.857 474.819 344.857ZM474.819 328.781C470.518 328.781 467.021 332.281 467.021 336.579C467.021 340.877 470.518 344.377 474.819 344.377C479.12 344.377 482.617 340.877 482.617 336.579C482.617 332.281 479.117 328.781 474.819 328.781Z" fill="#363E44"/>
<path d="M31.2246 75.0564H12.4102V143.846H31.2246V75.0564Z" fill="#26C6DA"/>
<path d="M128.452 205.088H0.733115C0.326569 205.088 0 204.758 0 204.355V114.598C0 114.192 0.329902 113.865 0.733115 113.865C1.13633 113.865 1.46623 114.195 1.46623 114.598V203.618H128.452C128.858 203.618 129.185 203.948 129.185 204.351C129.185 204.755 128.858 205.088 128.452 205.088Z" fill="white"/>
<path d="M31.2246 143.846H12.4102V191.928H31.2246V143.846Z" fill="#D4F4F8"/>
<path d="M62.2773 134.269H43.4629V191.932H62.2773V134.269Z" fill="#D4F4F8"/>
<path d="M93.3261 98.946H74.5117V191.928H93.3261V98.946Z" fill="#D4F4F8"/>
<path d="M124.375 113.528H105.561V191.932H124.375V113.528Z" fill="#D4F4F8"/>
<path d="M155.475 75.0564H136.66V191.928H155.475V75.0564Z" fill="#D4F4F8"/>
<path d="M186.523 98.153H167.709V191.928H186.523V98.153Z" fill="#D4F4F8"/>
<path d="M217.576 131.623H198.762V191.932H217.576V131.623Z" fill="#D4F4F8"/>
<path d="M248.627 110.089H229.812V191.932H248.627V110.089Z" fill="#D4F4F8"/>
<path d="M279.701 123.022H260.887V191.928H279.701V123.022Z" fill="#D4F4F8"/>
<path d="M310.748 89.4521H291.934V191.932H310.748V89.4521Z" fill="#D4F4F8"/>
<path d="M341.842 143.849H323.027V191.932H341.842V143.849Z" fill="#D4F4F8"/>
<path d="M62.2773 75.0564H43.4629V134.265H62.2773V75.0564Z" fill="#26C6DA"/>
<path d="M93.3261 75.0564H74.5117V109.453H93.3261V75.0564Z" fill="#26C6DA"/>
<path d="M124.375 75.0564H105.561V113.525H124.375V75.0564Z" fill="#26C6DA"/>
<path d="M186.523 75.0564H167.709V98.1529H186.523V75.0564Z" fill="#26C6DA"/>
<path d="M217.576 75.0564H198.762V131.62H217.576V75.0564Z" fill="#26C6DA"/>
<path d="M248.627 75.0564H229.812V114.595H248.627V75.0564Z" fill="#26C6DA"/>
<path d="M279.701 75.0564H260.887V123.022H279.701V75.0564Z" fill="#26C6DA"/>
<path d="M310.748 75.0564H291.934V89.4488H310.748V75.0564Z" fill="#26C6DA"/>
<path d="M341.842 75H323.027V143.85H341.842V75Z" fill="#26C6DA"/>
<path d="M296.763 17.9612C294.037 17.9612 291.828 20.1701 291.828 22.8957V281.812C291.828 283.615 293.291 285.078 295.094 285.078H447.339C450.065 285.078 452.274 282.869 452.274 280.143V22.8957C452.274 20.1701 450.065 17.9612 447.339 17.9612H296.763Z" fill="#D4F4F8"/>
<path d="M449.539 299.234H294.571C288.19 299.234 283 294.044 283 287.663V11.5709C283 5.19039 288.19 0 294.571 0H449.539C455.92 0 461.11 5.19039 461.11 11.5709V287.666C461.108 294.044 455.917 299.234 449.539 299.234ZM294.569 1.06463C288.775 1.06463 284.062 5.77702 284.062 11.5709V287.666C284.062 293.46 288.775 298.172 294.569 298.172H449.537C455.331 298.172 460.043 293.46 460.043 287.666V11.5709C460.043 5.77702 455.331 1.06463 449.537 1.06463H294.569Z" fill="#363E44"/>
<path d="M385.006 9.72421H356.633C356.338 9.72421 356.102 9.48521 356.102 9.1931C356.102 8.89857 356.341 8.66199 356.633 8.66199H385.006C385.301 8.66199 385.537 8.90099 385.537 9.1931C385.54 9.48521 385.301 9.72421 385.006 9.72421Z" fill="#363E44"/>
<path d="M431.38 165.46H312.73V206.136H431.38V165.46Z" fill="white"/>
<path d="M431.38 216.263H312.73V232.464H431.38V216.263Z" fill="white"/>
<path d="M431.38 241.652H312.73V257.854H431.38V241.652Z" fill="white"/>
<path d="M399.535 114.722C386.745 114.722 374.561 109.785 365.223 100.822C355.796 91.7712 350.605 79.843 350.605 67.2339C350.605 41.0478 371.951 19.7455 398.19 19.7455C424.43 19.7455 445.775 41.0478 445.775 67.2339C445.773 93.8618 425.463 114.722 399.535 114.722ZM398.188 20.8077C372.535 20.8077 351.668 41.6344 351.668 67.2315C351.668 92.3965 373.588 113.655 399.535 113.655C424.867 113.655 444.708 93.2631 444.708 67.2315C444.708 41.6344 423.838 20.8077 398.188 20.8077Z" fill="#1E88E5"/>
<path d="M420.459 104.66C420.273 104.66 420.094 104.564 419.995 104.39C419.85 104.134 419.94 103.81 420.195 103.666C425.931 100.419 429.661 95.7883 433.495 89.8302C433.654 89.5839 433.983 89.5115 434.231 89.6709C434.478 89.8302 434.55 90.1585 434.391 90.4072C430.47 96.4956 426.644 101.237 420.719 104.593C420.637 104.638 420.548 104.66 420.459 104.66Z" fill="#1E88E5"/>
<path d="M440.613 65.7683C440.331 65.7683 440.094 65.5462 440.082 65.2614C439.041 42.8968 420.639 25.3798 398.187 25.3798C378.872 25.3798 362.132 38.4282 357.482 57.1088C357.41 57.3937 357.12 57.5675 356.838 57.4975C356.553 57.4275 356.379 57.1378 356.449 56.8529C361.219 37.6968 378.382 24.3176 398.187 24.3176C421.211 24.3176 440.08 42.2812 441.147 65.2155C441.161 65.51 440.934 65.7587 440.64 65.7707C440.63 65.7683 440.62 65.7683 440.613 65.7683Z" fill="#1E88E5"/>
<path d="M398.188 106.229C419.769 106.229 437.264 88.7704 437.264 67.2338C437.264 45.6972 419.769 28.2383 398.188 28.2383C376.608 28.2383 359.113 45.6972 359.113 67.2338C359.113 88.7704 376.608 106.229 398.188 106.229Z" fill="#1E88E5"/>
<path d="M406.29 78.2737C406.29 76.4873 405.646 74.9495 404.359 73.6651C403.07 72.3808 400.957 71.2365 398.019 70.2298C393.954 69.0059 390.886 67.3691 388.812 65.3195C386.738 63.2699 385.702 60.5395 385.702 57.1259C385.702 53.8113 386.654 51.1123 388.556 49.0216C390.458 46.9334 393.078 45.6781 396.419 45.2556V38.5974H401.189V45.2846C404.569 45.7674 407.191 47.2086 409.052 49.6083C410.913 52.0079 411.845 55.226 411.845 59.2624H405.928C405.928 56.532 405.293 54.3231 404.026 52.6356C402.758 50.9481 400.996 50.1056 398.744 50.1056C396.368 50.1056 394.594 50.7236 393.416 51.9572C392.238 53.1933 391.651 54.8856 391.651 57.0342C391.651 58.9824 392.259 60.5588 393.476 61.7634C394.693 62.9681 396.892 64.1124 400.071 65.1988C404.197 66.5241 407.256 68.1754 409.248 70.155C411.239 72.1322 412.236 74.8191 412.236 78.2134C412.236 81.668 411.201 84.4153 409.127 86.4528C407.053 88.4903 404.207 89.7022 400.583 90.0837V95.8679H395.844V90.115C392.382 89.7529 389.546 88.4927 387.332 86.3345C385.118 84.1763 384.051 81.0065 384.133 76.8301L384.194 76.6804H389.93C389.93 79.7729 390.709 81.977 392.269 83.2927C393.828 84.6084 395.745 85.265 398.019 85.265C400.615 85.265 402.642 84.647 404.103 83.4134C405.561 82.175 406.29 80.4633 406.29 78.2737Z" fill="white"/>
<path d="M392.691 207.297C382.226 207.297 372.253 203.258 364.612 195.922C356.897 188.515 352.65 178.755 352.65 168.434C352.65 147.004 370.119 129.572 391.593 129.572C413.064 129.572 430.535 147.006 430.535 168.434C430.533 190.227 413.911 207.297 392.691 207.297ZM391.593 130.636C370.708 130.636 353.715 147.593 353.715 168.434C353.715 188.923 371.565 206.232 392.691 206.232C413.315 206.232 429.468 189.63 429.468 168.434C429.468 147.593 412.477 130.636 391.593 130.636Z" fill="#1E88E5"/>
<path d="M409.769 199.084C409.583 199.084 409.405 198.988 409.306 198.814C409.161 198.558 409.25 198.232 409.506 198.09C414.17 195.449 417.207 191.678 420.329 186.828C420.488 186.581 420.816 186.509 421.065 186.668C421.311 186.828 421.384 187.156 421.224 187.405C418.016 192.387 414.885 196.267 410.03 199.017C409.948 199.062 409.859 199.084 409.769 199.084Z" fill="#1E88E5"/>
<path d="M426.222 167.336C425.94 167.336 425.703 167.114 425.691 166.829C424.846 148.626 409.866 134.366 391.589 134.366C375.866 134.366 362.24 144.986 358.455 160.193C358.383 160.477 358.093 160.651 357.81 160.581C357.526 160.511 357.352 160.222 357.422 159.937C361.325 144.254 375.376 133.304 391.589 133.304C410.436 133.304 425.882 148.008 426.753 166.781C426.768 167.075 426.541 167.324 426.246 167.336C426.239 167.336 426.232 167.336 426.222 167.336Z" fill="#1E88E5"/>
<path d="M391.593 200.267C409.21 200.267 423.491 186.015 423.491 168.434C423.491 150.854 409.21 136.602 391.593 136.602C373.977 136.602 359.695 150.854 359.695 168.434C359.695 186.015 373.977 200.267 391.593 200.267Z" fill="#1E88E5"/>
<path d="M398.211 177.446C398.211 175.988 397.684 174.733 396.634 173.683C395.582 172.633 393.858 171.698 391.461 170.88C388.141 169.881 385.638 168.543 383.946 166.872C382.253 165.199 381.408 162.971 381.408 160.183C381.408 157.477 382.186 155.273 383.738 153.568C385.29 151.864 387.429 150.838 390.157 150.495V145.061H394.051V150.519C396.811 150.913 398.949 152.088 400.47 154.049C401.989 156.009 402.749 158.635 402.749 161.931H397.919C397.919 159.703 397.402 157.897 396.366 156.521C395.331 155.145 393.894 154.454 392.055 154.454C390.116 154.454 388.665 154.959 387.704 155.965C386.744 156.975 386.263 158.355 386.263 160.108C386.263 161.699 386.76 162.986 387.755 163.968C388.75 164.951 390.543 165.888 393.139 166.771C396.506 167.853 399.003 169.202 400.63 170.817C402.257 172.432 403.068 174.624 403.068 177.396C403.068 180.215 402.221 182.458 400.531 184.121C398.838 185.785 396.514 186.772 393.556 187.084V191.806H389.686V187.108C386.862 186.813 384.544 185.785 382.739 184.023C380.93 182.26 380.061 179.675 380.126 176.263L380.175 176.14H384.856C384.856 178.666 385.493 180.464 386.765 181.538C388.038 182.613 389.602 183.149 391.458 183.149C393.578 183.149 395.232 182.644 396.424 181.637C397.614 180.631 398.211 179.233 398.211 177.446Z" fill="white"/>
<path d="M334.247 276.035C317.949 276.035 304.182 262.67 304.182 246.85C304.182 230.758 317.3 217.666 333.424 217.666C349.548 217.666 362.666 230.758 362.666 246.85C362.669 263.216 350.185 276.035 334.247 276.035ZM333.426 218.731C317.889 218.731 305.249 231.345 305.249 246.85C305.249 262.093 318.529 274.97 334.25 274.97C349.589 274.97 361.607 262.62 361.607 246.85C361.604 231.345 348.964 218.731 333.426 218.731Z" fill="#1E88E5"/>
<path d="M347.015 269.896C346.829 269.896 346.651 269.799 346.552 269.625C346.407 269.369 346.496 269.044 346.752 268.901C350.214 266.941 352.471 264.136 354.796 260.529C354.955 260.283 355.286 260.21 355.532 260.37C355.779 260.529 355.851 260.857 355.692 261.106C353.282 264.845 350.931 267.762 347.278 269.828C347.194 269.874 347.105 269.896 347.015 269.896Z" fill="#1E88E5"/>
<path d="M359.316 246.165C359.033 246.165 358.797 245.943 358.785 245.658C358.155 232.122 347.018 221.521 333.429 221.521C321.737 221.521 311.608 229.418 308.793 240.723C308.723 241.008 308.433 241.185 308.148 241.112C307.863 241.042 307.69 240.752 307.76 240.468C310.693 228.687 321.247 220.457 333.429 220.457C347.588 220.457 359.193 231.506 359.849 245.61C359.864 245.904 359.637 246.153 359.342 246.165C359.333 246.165 359.326 246.165 359.316 246.165Z" fill="#1E88E5"/>
<path d="M333.426 270.644C346.595 270.644 357.271 259.991 357.271 246.85C357.271 233.709 346.595 223.057 333.426 223.057C320.258 223.057 309.582 233.709 309.582 246.85C309.582 259.991 320.258 270.644 333.426 270.644Z" fill="#1E88E5"/>
<path d="M338.373 253.588C338.373 252.497 337.979 251.56 337.195 250.776C336.408 249.991 335.118 249.293 333.327 248.68C330.845 247.932 328.975 246.935 327.71 245.684C326.445 244.434 325.812 242.768 325.812 240.685C325.812 238.662 326.391 237.015 327.553 235.741C328.714 234.466 330.312 233.701 332.352 233.442V229.379H335.263V233.459C337.327 233.754 338.926 234.632 340.063 236.098C341.197 237.563 341.767 239.526 341.767 241.988H338.158C338.158 240.323 337.772 238.973 336.997 237.945C336.224 236.916 335.147 236.4 333.774 236.4C332.325 236.4 331.241 236.776 330.522 237.529C329.803 238.283 329.445 239.316 329.445 240.627C329.445 241.814 329.817 242.778 330.561 243.512C331.304 244.248 332.644 244.946 334.585 245.607C337.103 246.416 338.969 247.425 340.183 248.632C341.4 249.839 342.006 251.478 342.006 253.55C342.006 255.657 341.374 257.333 340.109 258.576C338.844 259.819 337.105 260.558 334.896 260.792V264.321H332.004V260.811C329.892 260.592 328.161 259.822 326.809 258.503C325.457 257.185 324.808 255.254 324.856 252.705L324.892 252.613H328.393C328.393 254.501 328.868 255.845 329.819 256.647C330.771 257.451 331.941 257.852 333.327 257.852C334.911 257.852 336.149 257.475 337.038 256.722C337.929 255.969 338.373 254.923 338.373 253.588Z" fill="white"/>
<path d="M219.043 385.012C219.019 385.012 218.993 385.009 218.966 385.006L198.578 382.622C198.407 382.602 198.25 382.516 198.144 382.38C198.038 382.245 197.988 382.074 198.009 381.903L198.651 376.404C196.137 375.599 193.665 374.618 191.283 373.477L187.977 377.918C187.873 378.057 187.72 378.148 187.549 378.172C187.378 378.198 187.204 378.154 187.066 378.051L170.603 365.791C170.464 365.688 170.373 365.534 170.349 365.363C170.326 365.192 170.367 365.018 170.47 364.88L173.768 360.45C171.988 358.493 170.337 356.404 168.852 354.223L163.777 356.413C163.618 356.48 163.441 356.483 163.279 356.419C163.12 356.354 162.99 356.23 162.922 356.071L154.794 337.223C154.726 337.064 154.723 336.887 154.788 336.725C154.853 336.566 154.977 336.436 155.136 336.369L160.211 334.182C159.645 331.606 159.259 328.971 159.059 326.333L153.574 325.691C153.217 325.65 152.961 325.326 153.005 324.969L155.389 304.58C155.41 304.409 155.495 304.253 155.631 304.147C155.767 304.041 155.94 303.994 156.108 304.011L161.608 304.654C162.412 302.14 163.394 299.664 164.534 297.286L160.093 293.979C159.804 293.764 159.745 293.357 159.96 293.068L172.221 276.605C172.324 276.467 172.477 276.375 172.648 276.352C172.819 276.325 172.993 276.369 173.131 276.473L177.561 279.771C179.515 277.99 181.608 276.34 183.786 274.852L181.596 269.777C181.454 269.447 181.605 269.063 181.935 268.922L200.782 260.794C200.941 260.726 201.118 260.723 201.28 260.788C201.439 260.852 201.569 260.976 201.637 261.135L203.824 266.21C206.399 265.645 209.037 265.259 211.672 265.058L212.315 259.573C212.335 259.402 212.421 259.246 212.556 259.14C212.692 259.034 212.863 258.984 213.034 259.005L233.422 261.389C233.779 261.43 234.035 261.754 233.991 262.111L233.349 267.61C235.863 268.415 238.335 269.396 240.717 270.537L244.023 266.096C244.239 265.807 244.645 265.748 244.934 265.963L261.397 278.223C261.536 278.326 261.627 278.48 261.651 278.651C261.677 278.822 261.633 278.995 261.53 279.134L258.232 283.564C260.012 285.521 261.663 287.61 263.148 289.791L268.223 287.601C268.382 287.534 268.559 287.531 268.721 287.595C268.88 287.66 269.01 287.784 269.078 287.943L277.206 306.791C277.274 306.95 277.277 307.127 277.212 307.289C277.147 307.448 277.023 307.577 276.864 307.645L271.789 309.832C272.355 312.411 272.741 315.046 272.941 317.681L278.426 318.323C278.783 318.364 279.039 318.688 278.995 319.045L276.611 339.434C276.59 339.605 276.505 339.761 276.369 339.867C276.233 339.973 276.063 340.023 275.892 340.003L270.392 339.36C269.588 341.874 268.606 344.347 267.466 346.728L271.907 350.035C272.196 350.25 272.255 350.657 272.04 350.946L259.779 367.409C259.676 367.547 259.523 367.639 259.352 367.662C259.181 367.689 259.007 367.644 258.869 367.541L254.439 364.243C252.482 366.024 250.392 367.674 248.214 369.159L250.404 374.234C250.546 374.565 250.395 374.948 250.065 375.089L231.218 383.218C230.888 383.359 230.505 383.209 230.363 382.879L228.173 377.803C225.598 378.369 222.96 378.755 220.325 378.956L219.683 384.441C219.662 384.612 219.576 384.768 219.441 384.874C219.332 384.965 219.187 385.012 219.043 385.012ZM199.376 381.408L218.474 383.642L219.102 378.266C219.137 377.954 219.391 377.715 219.703 377.694C222.633 377.5 225.565 377.07 228.418 376.415C228.722 376.345 229.034 376.504 229.161 376.793L231.306 381.765L248.96 374.152L246.815 369.18C246.691 368.891 246.791 368.555 247.05 368.381C249.485 366.754 251.81 364.918 253.961 362.923C254.191 362.708 254.542 362.69 254.793 362.879L259.134 366.112L270.616 350.692L266.266 347.453C266.016 347.265 265.933 346.926 266.072 346.646C267.362 344.017 268.459 341.264 269.322 338.464C269.414 338.164 269.708 337.972 270.018 338.01L275.405 338.641L277.639 319.543L272.264 318.915C271.951 318.88 271.712 318.627 271.692 318.314C271.497 315.388 271.067 312.455 270.413 309.599C270.342 309.293 270.501 308.98 270.79 308.857L275.762 306.711L268.149 289.057L263.177 291.203C262.889 291.327 262.553 291.229 262.379 290.967C260.755 288.533 258.916 286.207 256.92 284.056C256.708 283.826 256.688 283.478 256.876 283.225L260.109 278.883L244.69 267.401L241.451 271.751C241.262 272.002 240.923 272.084 240.643 271.946C238.014 270.655 235.261 269.561 232.462 268.695C232.161 268.604 231.972 268.309 232.008 267.999L232.638 262.612L213.541 260.378L212.913 265.754C212.877 266.066 212.624 266.305 212.312 266.325C209.382 266.52 206.45 266.95 203.597 267.605C203.29 267.675 202.978 267.516 202.854 267.227L200.708 262.255L183.055 269.868L185.2 274.84C185.324 275.129 185.224 275.465 184.964 275.639C182.53 277.265 180.205 279.102 178.053 281.097C177.823 281.309 177.473 281.33 177.222 281.141L172.881 277.908L161.399 293.328L165.749 296.567C165.999 296.755 166.082 297.094 165.943 297.374C164.652 300.003 163.559 302.753 162.692 305.556C162.601 305.856 162.306 306.048 161.997 306.01L156.609 305.379L154.375 324.477L159.751 325.104C160.064 325.14 160.302 325.393 160.323 325.706C160.517 328.635 160.948 331.568 161.602 334.421C161.673 334.727 161.514 335.04 161.225 335.163L156.253 337.309L163.865 354.963L168.837 352.817C169.126 352.693 169.459 352.794 169.636 353.053C171.263 355.487 173.099 357.813 175.094 359.964C175.306 360.194 175.327 360.542 175.138 360.795L171.905 365.136L187.325 376.619L190.564 372.269C190.753 372.018 191.092 371.936 191.372 372.074C194.001 373.365 196.753 374.458 199.553 375.325C199.854 375.416 200.042 375.711 200.007 376.02L199.376 381.408ZM216.057 358.909C202.144 358.909 188.855 350.993 182.621 337.721C178.233 328.379 177.912 317.96 181.72 308.385C185.524 298.81 192.91 291.453 202.515 287.669C220.558 280.56 241.15 288.745 249.393 306.298C253.782 315.641 254.103 326.059 250.295 335.635C246.49 345.21 239.105 352.567 229.503 356.351C225.099 358.084 220.543 358.909 216.057 358.909ZM202.751 288.273L202.99 288.877C193.724 292.526 186.597 299.626 182.928 308.862C179.256 318.099 179.565 328.152 183.8 337.167C189.813 349.97 202.636 357.606 216.057 357.609C220.387 357.609 224.778 356.813 229.025 355.142C238.291 351.494 245.418 344.394 249.087 335.157C252.759 325.921 252.45 315.868 248.214 306.852C240.263 289.918 220.396 282.022 202.99 288.88L202.751 288.273Z" fill="#26C6DA"/>
<path d="M216.004 367.568C202.273 367.568 188.889 361.355 180.063 350.008C179.841 349.726 179.895 349.316 180.177 349.098C180.46 348.877 180.867 348.93 181.088 349.213C193.452 365.104 215.013 370.63 233.528 362.646C244.382 357.966 252.764 349.339 257.129 338.355C261.494 327.371 261.32 315.343 256.64 304.489C248.037 284.539 225.732 273.67 204.763 279.205C204.415 279.296 204.062 279.09 203.97 278.742C203.879 278.394 204.085 278.041 204.433 277.949C214.869 275.194 226.001 276.269 235.779 280.976C245.656 285.73 253.489 293.897 257.833 303.976C262.652 315.149 262.829 327.53 258.337 338.836C253.843 350.141 245.216 359.024 234.044 363.84C228.205 366.354 222.069 367.568 216.004 367.568Z" fill="#26C6DA"/>
</svg>
