<svg width="95" height="84" viewBox="0 0 95 84" fill="none" xmlns="http://www.w3.org/2000/svg">
<path fill-rule="evenodd" clip-rule="evenodd" d="M34.9655 0.291385C33.839 0.846608 33.5465 1.50334 33.4755 3.63548L33.4124 5.5306H26.2003C18.2287 5.5306 18.1433 5.54188 17.3108 6.7089C16.9144 7.26468 16.8963 7.46768 16.8434 11.9555L16.7883 16.624H55.7253H94.6622L94.6071 11.9555C94.5256 5.05192 95.2241 5.5306 85.2334 5.5306H78.0044V3.84829C78.0044 1.14631 77.2177 0.0763587 75.2311 0.0763587C73.2444 0.0763587 72.4577 1.14631 72.4577 3.84829V5.5306H65.4319H58.4062V3.84829C58.4062 1.14631 57.6194 0.0763587 55.6328 0.0763587C53.6462 0.0763587 52.8595 1.14631 52.8595 3.84829V5.5306H45.9261H38.9928L38.9898 3.82037C38.9872 2.39228 38.9186 1.99126 38.5738 1.38981C37.8418 0.113152 36.2873 -0.360166 34.9655 0.291385ZM16.5527 24.5054C15.8178 38.2512 10.1419 52.2997 1.92908 60.7007C1.04475 61.6052 0.244738 62.5466 0.151184 62.7927C-0.304199 63.9902 0.308895 65.5903 1.45724 66.2013C2.07847 66.5319 3.42299 66.5441 38.951 66.5441C74.9567 66.5441 75.8163 66.536 76.4865 66.1884C76.8637 65.9926 77.7654 65.2231 78.4901 64.4782C83.5881 59.2378 88.1504 51.4418 90.8422 43.3704C92.7773 37.5677 94.1164 30.509 94.3993 24.6204L94.5169 22.1706H55.5971H16.6775L16.5527 24.5054Z" fill="white"/>
<path d="M76.9891 71.9981C76.9891 71.9981 81.1414 73.251 85.6492 66.4893C90.157 59.7277 94.108 50.5676 94.108 50.5676L94.5536 49.4751L94.601 65.2255L94.2748 81.7076C94.0343 82.1795 93.6421 82.5718 93.1718 82.8118C92.4477 83.181 92.1591 83.184 55.7268 83.184C19.2946 83.184 19.006 83.181 18.2819 82.8118C17.8121 82.5722 17.4194 82.1795 17.1798 81.7097C16.8374 81.0383 16.8076 80.6251 16.8076 76.5381V72.096L46.8984 72.0471L76.9891 71.9981Z" fill="#26C6DA"/>
</svg>
